<?xml version="1.0" encoding="UTF-8"?>
<!DOCTYPE svg PUBLIC "-//W3C//DTD SVG 1.1//EN" "http://www.w3.org/Graphics/SVG/1.1/DTD/svg11.dtd">
<!-- Creator: CorelDRAW 2020 (64-Bit) -->
<svg xmlns="http://www.w3.org/2000/svg" xml:space="preserve" width="128px" height="128px" version="1.1" style="shape-rendering:geometricPrecision; text-rendering:geometricPrecision; image-rendering:optimizeQuality; fill-rule:evenodd; clip-rule:evenodd"
viewBox="0 0 128 128"
 xmlns:xlink="http://www.w3.org/1999/xlink"
 xmlns:xodm="http://www.corel.com/coreldraw/odm/2003">
 <defs>
  <style type="text/css">
   <![CDATA[
    .str0 {stroke:#383B6F;stroke-width:0.9;stroke-miterlimit:22.9256}
    .fil31 {fill:#F9D779}
    .fil30 {fill:#A4883E}
    .fil33 {fill:#FEFEFE;fill-rule:nonzero}
    .fil29 {fill:#BDBFC1;fill-rule:nonzero}
    .fil5 {fill:#F1685B;fill-rule:nonzero}
    .fil16 {fill:#F9D779;fill-rule:nonzero}
    .fil12 {fill:#F9D060;fill-rule:nonzero}
    .fil13 {fill:#F6C845;fill-rule:nonzero}
    .fil14 {fill:#F4BF2F;fill-rule:nonzero}
    .fil3 {fill:#EDF1F1;fill-rule:nonzero}
    .fil1 {fill:#EAC869;fill-rule:nonzero}
    .fil19 {fill:#E8E7E8;fill-rule:nonzero}
    .fil25 {fill:#DC4538;fill-rule:nonzero}
    .fil8 {fill:#E2E1E0;fill-rule:nonzero}
    .fil22 {fill:#E5A936;fill-rule:nonzero}
    .fil10 {fill:#DFE9F1;fill-rule:nonzero}
    .fil15 {fill:#D6DAE2;fill-rule:nonzero}
    .fil17 {fill:#D4D8D9;fill-rule:nonzero}
    .fil28 {fill:#C7D1DA;fill-rule:nonzero}
    .fil9 {fill:#A4883E;fill-rule:nonzero}
    .fil6 {fill:#93CB72;fill-rule:nonzero}
    .fil27 {fill:#5F6751;fill-rule:nonzero}
    .fil7 {fill:#7267AC;fill-rule:nonzero}
    .fil26 {fill:#4B5B55;fill-rule:nonzero}
    .fil21 {fill:#27B494;fill-rule:nonzero}
    .fil24 {fill:#25B2A1;fill-rule:nonzero}
    .fil20 {fill:#5559A5;fill-rule:nonzero}
    .fil11 {fill:#2D2E42;fill-rule:nonzero}
    .fil23 {fill:#2C455C;fill-rule:nonzero}
    .fil18 {fill:#314164;fill-rule:nonzero}
    .fil4 {fill:#383B6F;fill-rule:nonzero}
    .fil32 {fill:#383B6F;fill-rule:nonzero}
    .fil0 {fill:url(#id0)}
    .fil2 {fill:url(#id1)}
   ]]>
  </style>
  <linearGradient id="id0" gradientUnits="userSpaceOnUse" x1="28.18" y1="19.46" x2="107.09" y2="102.28">
   <stop offset="0" style="stop-opacity:1; stop-color:#E6E6E6"/>
   <stop offset="0.568627" style="stop-opacity:1; stop-color:#999999"/>
   <stop offset="1" style="stop-opacity:1; stop-color:#E6E6E6"/>
  </linearGradient>
  <linearGradient id="id1" gradientUnits="userSpaceOnUse" x1="61.58" y1="51.89" x2="100.06" y2="127.67">
   <stop offset="0" style="stop-opacity:1; stop-color:#E6E6E6"/>
   <stop offset="1" style="stop-opacity:1; stop-color:#B3B3B3"/>
  </linearGradient>
 </defs>
 <g id="Capa_x0020_1">
  <metadata id="CorelCorpID_0Corel-Layer"/>
  <g id="_1652123747616">
   <circle class="fil0" cx="64" cy="64" r="49.21"/>
   <path class="fil1" d="M64 0c17.67,0 33.67,7.16 45.25,18.75 11.59,11.58 18.75,27.58 18.75,45.25 0,17.67 -7.16,33.67 -18.75,45.25 -11.58,11.59 -27.58,18.75 -45.25,18.75 -17.67,0 -33.67,-7.16 -45.25,-18.75 -11.59,-11.58 -18.75,-27.58 -18.75,-45.25 0,-17.67 7.16,-33.67 18.75,-45.25 11.58,-11.59 27.58,-18.75 45.25,-18.75zm43.62 20.38c-11.17,-11.16 -26.59,-18.06 -43.62,-18.06 -17.03,0 -32.45,6.9 -43.62,18.06 -11.16,11.17 -18.06,26.59 -18.06,43.62 0,17.03 6.9,32.45 18.06,43.62 11.17,11.16 26.59,18.06 43.62,18.06 17.03,0 32.45,-6.9 43.62,-18.06 11.16,-11.17 18.06,-26.59 18.06,-43.62 0,-17.03 -6.9,-32.45 -18.06,-43.62z"/>
   <circle class="fil2" cx="64" cy="64" r="47.34"/>
   <g>
    <path class="fil3" d="M86.95 90.66c0,1.18 -0.87,2.13 -1.95,2.13l-46.91 0c-1.07,0 -1.95,-0.95 -1.95,-2.13l0 -37.69c0,-1.17 0.88,-2.12 1.95,-2.12l46.91 0c1.08,0 1.95,0.95 1.95,2.12l0 37.69z"/>
    <path class="fil4" d="M85 50.85l-46.91 0c-1.07,0 -1.95,0.95 -1.95,2.12l0 8.23 50.81 0 0 -8.23c0,-1.17 -0.87,-2.12 -1.95,-2.12z"/>
    <path class="fil5" d="M78.89 52.73c0,0.59 -0.44,1.07 -0.98,1.07 -0.53,0 -0.97,-0.48 -0.97,-1.07 0,-0.58 0.44,-1.06 0.97,-1.06 0.54,0 0.98,0.48 0.98,1.06z"/>
    <path class="fil6" d="M82.11 52.73c0,0.59 -0.44,1.07 -0.97,1.07 -0.54,0 -0.98,-0.48 -0.98,-1.07 0,-0.58 0.44,-1.06 0.98,-1.06 0.53,0 0.97,0.48 0.97,1.06z"/>
    <path class="fil7" d="M85.46 52.73c0,0.59 -0.43,1.07 -0.97,1.07 -0.54,0 -0.98,-0.48 -0.98,-1.07 0,-0.58 0.44,-1.06 0.98,-1.06 0.54,0 0.97,0.48 0.97,1.06z"/>
    <path class="fil8" d="M74.29 54.38c0,0.91 -0.68,1.64 -1.51,1.64l-29.69 0c-0.83,0 -1.51,-0.73 -1.51,-1.64 0,-0.91 0.68,-1.65 1.51,-1.65l29.69 0c0.83,0 1.51,0.74 1.51,1.65z"/>
    <polygon class="fil9" points="38.66,79.9 68.96,79.9 68.96,63.15 38.66,63.15 "/>
    <polygon class="fil4" points="38.66,86.03 84.49,86.03 84.49,82.97 38.66,82.97 "/>
    <polygon class="fil4" points="38.63,90.52 84.46,90.52 84.46,87.45 38.63,87.45 "/>
    <path class="fil10" d="M85 92.79l-20.1 0 0 -2.27 19.56 0 0 -3.07 -19.56 0 0 -1.42 19.59 0 0 -3.06 -19.59 0 0 -0.82 0.1 0.11 0 -2.36 3.96 0 0 -16.75 -2.48 0 0 -1.95 17.8 0 0 15.35 2.67 0 0 14.11c0,1.18 -0.87,2.13 -1.95,2.13z"/>
    <path class="fil11" d="M84.28 61.2l-17.8 0 0 -5.18 6.3 0c0.83,0 1.51,-0.73 1.51,-1.64 0,-0.91 -0.68,-1.65 -1.51,-1.65l-6.3 0 0 -1.88 18.52 0c1.08,0 1.95,0.95 1.95,2.12l0 3.45 -2.67 0 0 4.78zm0.21 -9.53c-0.54,0 -0.98,0.48 -0.98,1.06 0,0.59 0.44,1.07 0.98,1.07 0.54,0 0.97,-0.48 0.97,-1.07 0,-0.58 -0.43,-1.06 -0.97,-1.06zm-3.35 0c-0.54,0 -0.98,0.48 -0.98,1.06 0,0.59 0.44,1.07 0.98,1.07 0.53,0 0.97,-0.48 0.97,-1.07 0,-0.58 -0.44,-1.06 -0.97,-1.06zm-3.23 0c-0.53,0 -0.97,0.48 -0.97,1.06 0,0.59 0.44,1.07 0.97,1.07 0.54,0 0.98,-0.48 0.98,-1.07 0,-0.58 -0.44,-1.06 -0.98,-1.06z"/>
    <path class="fil12" d="M77.91 53.8c-0.53,0 -0.97,-0.48 -0.97,-1.07 0,-0.58 0.44,-1.06 0.97,-1.06 0.54,0 0.98,0.48 0.98,1.06 0,0.59 -0.44,1.07 -0.98,1.07z"/>
    <path class="fil13" d="M81.14 53.8c-0.54,0 -0.98,-0.48 -0.98,-1.07 0,-0.58 0.44,-1.06 0.98,-1.06 0.53,0 0.97,0.48 0.97,1.06 0,0.59 -0.44,1.07 -0.97,1.07z"/>
    <path class="fil14" d="M84.49 53.8c-0.54,0 -0.98,-0.48 -0.98,-1.07 0,-0.58 0.44,-1.06 0.98,-1.06 0.54,0 0.97,0.48 0.97,1.06 0,0.59 -0.43,1.07 -0.97,1.07z"/>
    <path class="fil15" d="M72.78 56.02l-6.3 0 0 -3.29 6.3 0c0.83,0 1.51,0.74 1.51,1.65 0,0.91 -0.68,1.64 -1.51,1.64z"/>
    <polygon class="fil9" points="68.96,79.9 65,79.9 65,78.97 64.56,78.72 61.66,75.68 61.57,75.68 61.57,63.87 66.48,63.87 66.48,63.15 68.96,63.15 "/>
    <polygon class="fil4" points="64.9,86.03 84.49,86.03 84.49,82.97 64.9,82.97 "/>
    <polygon class="fil4" points="64.9,90.52 84.46,90.52 84.46,87.45 64.9,87.45 "/>
    <polygon class="fil16" points="29.92,57.51 29.92,70.84 39.57,70.84 39.57,59.75 37.43,57.51 "/>
    <polygon class="fil17" points="39.65,61.86 39.57,61.79 39.57,61.2 39.65,61.2 "/>
    <polygon class="fil18" points="39.65,61.2 39.57,61.2 39.57,59.75 39.35,59.51 39.65,59.68 "/>
    <polygon class="fil14" points="39.57,61.79 37.47,59.68 38.07,58.79 39.35,59.51 39.57,59.75 "/>
    <polygon class="fil19" points="39.57,59.75 37.43,59.78 37.43,57.51 "/>
    <polygon class="fil20" points="31.26,61.31 32.48,61.31 32.48,60.09 31.26,60.09 "/>
    <polygon class="fil4" points="31.26,61.86 32.48,61.86 32.48,61.58 31.26,61.58 "/>
    <polygon class="fil11" points="32.48,61.86 34.14,61.86 34.14,61.58 32.48,61.58 "/>
    <polygon class="fil20" points="34.14,61.86 35.83,61.86 35.83,61.58 34.14,61.58 "/>
    <polygon class="fil4" points="32.91,61.31 34.14,61.31 34.14,60.09 32.91,60.09 "/>
    <polygon class="fil11" points="34.61,61.31 35.83,61.31 35.83,60.09 34.61,60.09 "/>
    <polygon class="fil16" points="84.28,56.42 84.28,76.55 98.86,76.55 98.86,59.8 95.62,56.42 "/>
    <polygon class="fil21" points="98.97,62.99 98.86,62.88 98.86,59.8 98.52,59.45 98.97,59.7 "/>
    <polygon class="fil22" points="98.86,62.88 95.68,59.7 96.58,58.36 98.52,59.45 98.86,59.8 "/>
    <polygon class="fil19" points="98.86,59.8 95.62,59.86 95.62,56.42 "/>
    <polygon class="fil23" points="86.31,62.16 88.15,62.16 88.15,60.32 86.31,60.32 "/>
    <polygon class="fil24" points="86.31,62.99 88.15,62.99 88.15,62.58 86.31,62.58 "/>
    <polygon class="fil25" points="88.15,62.99 90.65,62.99 90.65,62.58 88.15,62.58 "/>
    <polygon class="fil23" points="90.65,62.99 93.21,62.99 93.21,62.58 90.65,62.58 "/>
    <polygon class="fil26" points="88.81,62.16 90.65,62.16 90.65,60.32 88.81,60.32 "/>
    <polygon class="fil27" points="91.37,62.16 93.21,62.16 93.21,60.32 91.37,60.32 "/>
    <polygon class="fil16" points="50.32,75.68 50.32,95.82 64.9,95.82 64.9,79.07 61.66,75.68 "/>
    <polygon class="fil28" points="65,82.26 64.9,82.15 64.9,79.9 65,79.9 "/>
    <polygon class="fil29" points="65,79.9 64.9,79.9 64.9,79.07 64.56,78.72 65,78.97 "/>
    <polygon class="fil14" points="64.9,82.15 61.72,78.97 62.62,77.62 64.56,78.72 64.9,79.07 "/>
    <polygon class="fil19" points="64.9,79.07 61.66,79.12 61.66,75.68 "/>
    <polygon class="fil20" points="52.34,81.43 54.19,81.43 54.19,79.58 52.34,79.58 "/>
    <polygon class="fil20" points="52.34,82.26 54.19,82.26 54.19,81.84 52.34,81.84 "/>
    <polygon class="fil4" points="54.19,82.26 56.69,82.26 56.69,81.84 54.19,81.84 "/>
    <polygon class="fil11" points="56.69,82.26 59.25,82.26 59.25,81.84 56.69,81.84 "/>
    <polygon class="fil4" points="54.84,81.43 56.69,81.43 56.69,79.58 54.84,79.58 "/>
    <polygon class="fil11" points="57.4,81.43 59.25,81.43 59.25,79.58 57.4,79.58 "/>
    <polygon class="fil16" points="51.91,43.73 51.91,63.87 66.48,63.87 66.48,47.12 63.24,43.73 "/>
    <polygon class="fil14" points="66.48,50.2 63.3,47.02 64.21,45.67 66.14,46.77 66.48,47.12 "/>
    <polygon class="fil19" points="66.48,47.12 63.24,47.17 63.24,43.73 "/>
    <polygon class="fil20" points="53.93,49.48 55.77,49.48 55.77,47.63 53.93,47.63 "/>
    <polygon class="fil20" points="53.93,50.31 55.77,50.31 55.77,49.89 53.93,49.89 "/>
    <polygon class="fil4" points="55.77,50.31 58.27,50.31 58.27,49.89 55.77,49.89 "/>
    <polygon class="fil11" points="58.28,50.31 60.84,50.31 60.84,49.89 58.28,49.89 "/>
    <polygon class="fil4" points="56.43,49.48 58.28,49.48 58.28,47.63 56.43,47.63 "/>
    <polygon class="fil11" points="58.99,49.48 60.84,49.48 60.84,47.63 58.99,47.63 "/>
    <polygon class="fil4" points="51.7,67.3 49.58,65.19 34.61,65.19 34.61,64.59 49.83,64.59 52.12,66.88 "/>
    <path class="fil4" d="M35.77 64.79c0,0.64 -0.52,1.16 -1.16,1.16 -0.64,0 -1.16,-0.52 -1.16,-1.16 0,-0.64 0.52,-1.16 1.16,-1.16 0.64,0 1.16,0.52 1.16,1.16z"/>
    <path class="fil4" d="M53.07 67.1c0,0.64 -0.52,1.16 -1.16,1.16 -0.64,0 -1.16,-0.52 -1.16,-1.16 0,-0.64 0.52,-1.15 1.16,-1.15 0.64,0 1.16,0.51 1.16,1.15z"/>
    <path class="fil4" d="M58.77 87.18c0,0.64 -0.52,1.16 -1.16,1.16 -0.64,0 -1.16,-0.52 -1.16,-1.16 0,-0.63 0.52,-1.15 1.16,-1.15 0.64,0 1.16,0.52 1.16,1.15z"/>
    <path class="fil4" d="M59.43 67.1c0,0.64 -0.51,1.16 -1.15,1.16 -0.64,0 -1.16,-0.52 -1.16,-1.16 0,-0.64 0.52,-1.15 1.16,-1.15 0.64,0 1.15,0.51 1.15,1.15z"/>
    <path class="fil4" d="M53.07 70.84c0,0.64 -0.52,1.16 -1.16,1.16 -0.64,0 -1.16,-0.52 -1.16,-1.16 0,-0.64 0.52,-1.16 1.16,-1.16 0.64,0 1.16,0.52 1.16,1.16z"/>
    <path class="fil4" d="M92.73 66.9c0,0.64 -0.52,1.15 -1.16,1.15 -0.64,0 -1.16,-0.51 -1.16,-1.15 0,-0.64 0.52,-1.16 1.16,-1.16 0.64,0 1.16,0.52 1.16,1.16z"/>
    <path class="fil4" d="M59.48 70.84c0,0.64 -0.51,1.16 -1.15,1.16 -0.64,0 -1.16,-0.52 -1.16,-1.16 0,-0.64 0.52,-1.16 1.16,-1.16 0.64,0 1.15,0.52 1.15,1.16z"/>
    <path class="fil4" d="M59.43 54.38c0,0.64 -0.51,1.15 -1.15,1.15 -0.64,0 -1.16,-0.51 -1.16,-1.15 0,-0.64 0.52,-1.16 1.16,-1.16 0.64,0 1.15,0.52 1.15,1.16z"/>
    <polygon class="fil4" points="57.98,67.1 58.57,67.1 58.57,54.8 57.98,54.8 "/>
    <polygon class="fil4" points="58.54,71.05 58.12,70.63 62.17,66.58 91.37,66.58 91.37,67.18 62.41,67.18 "/>
    <polygon class="fil4" points="57.97,87.18 57.37,87.18 57.37,76.73 51.7,71.05 52.12,70.63 57.97,76.48 "/>
   </g>
   <path class="fil30 str0" d="M86.99 28.46l10.54 16.29c0.17,0.25 0.27,0.56 0.32,0.89 -0.08,0.42 -0.45,0.74 -0.89,0.74l-21.74 0c-0.42,0 -0.77,-0.29 -0.87,-0.67 0.06,-0.4 0.19,-0.78 0.39,-1.1l10.37 -16.01c0.54,-0.84 1.39,-0.9 1.88,-0.14z"/>
   <path class="fil31 str0" d="M40.59 35.84l6.65 10.26c0.1,0.16 0.17,0.35 0.2,0.56 -0.05,0.27 -0.28,0.47 -0.56,0.47l-13.71 0c-0.26,0 -0.48,-0.18 -0.55,-0.43 0.04,-0.25 0.13,-0.49 0.25,-0.68l6.54 -10.1c0.34,-0.53 0.87,-0.56 1.18,-0.08z"/>
   <path class="fil32" d="M39.39 40.72c-0.01,-0.07 -0.02,-0.13 -0.02,-0.18 0,-0.05 -0.01,-0.1 -0.01,-0.15 0,-0.23 0.05,-0.4 0.16,-0.53 0.11,-0.12 0.26,-0.19 0.45,-0.19 0.2,0 0.35,0.07 0.46,0.2 0.12,0.12 0.17,0.3 0.17,0.52 0,0.05 -0.01,0.14 -0.02,0.27 -0.01,0.03 -0.01,0.04 -0.01,0.05l-0.38 2.6c-0.01,0.09 -0.04,0.16 -0.08,0.21 -0.04,0.05 -0.08,0.07 -0.14,0.07 -0.04,0 -0.09,-0.02 -0.12,-0.07 -0.04,-0.05 -0.07,-0.12 -0.08,-0.21l-0.38 -2.59zm-0.02 3.99c0,-0.17 0.06,-0.31 0.18,-0.43 0.12,-0.12 0.26,-0.18 0.42,-0.18 0.17,0 0.31,0.06 0.43,0.18 0.12,0.12 0.18,0.26 0.18,0.43 0,0.17 -0.05,0.31 -0.17,0.43 -0.12,0.12 -0.26,0.17 -0.44,0.17 -0.16,0 -0.3,-0.05 -0.42,-0.17 -0.12,-0.12 -0.18,-0.26 -0.18,-0.43z"/>
   <path class="fil33" d="M87.26 41.56c0.01,0.1 0.02,0.19 0.02,0.28 0.01,0.08 0.02,0.16 0.02,0.24 0,0.36 -0.09,0.64 -0.26,0.84 -0.18,0.2 -0.42,0.3 -0.73,0.3 -0.31,0 -0.56,-0.1 -0.73,-0.3 -0.18,-0.21 -0.27,-0.48 -0.27,-0.84 0,-0.09 0.02,-0.23 0.04,-0.44 0.01,-0.04 0.01,-0.07 0.01,-0.08l0.6 -4.16c0.03,-0.14 0.07,-0.25 0.13,-0.33 0.07,-0.08 0.14,-0.12 0.22,-0.12 0.08,0 0.15,0.04 0.21,0.11 0.06,0.08 0.1,0.2 0.12,0.34l0.62 4.16zm0.02 -6.39c0,0.26 -0.09,0.49 -0.28,0.68 -0.19,0.19 -0.42,0.29 -0.69,0.29 -0.26,0 -0.49,-0.1 -0.68,-0.29 -0.2,-0.19 -0.29,-0.42 -0.29,-0.68 0,-0.28 0.09,-0.51 0.28,-0.69 0.19,-0.19 0.42,-0.29 0.69,-0.29 0.27,0 0.5,0.1 0.69,0.29 0.19,0.18 0.28,0.41 0.28,0.69z"/>
  </g>
 </g>
</svg>
