<?xml version="1.0" encoding="UTF-8"?>
<!DOCTYPE svg PUBLIC "-//W3C//DTD SVG 1.1//EN" "http://www.w3.org/Graphics/SVG/1.1/DTD/svg11.dtd">
<!-- Creator: CorelDRAW 2020 (64-Bit) -->
<svg xmlns="http://www.w3.org/2000/svg" xml:space="preserve" width="128px" height="128px" version="1.1" style="shape-rendering:geometricPrecision; text-rendering:geometricPrecision; image-rendering:optimizeQuality; fill-rule:evenodd; clip-rule:evenodd"
viewBox="0 0 128 128"
 xmlns:xlink="http://www.w3.org/1999/xlink"
 xmlns:xodm="http://www.corel.com/coreldraw/odm/2003">
 <defs>
  <style type="text/css">
   <![CDATA[
    .fil20 {fill:#E5E8E8}
    .fil23 {fill:#A4883E}
    .fil21 {fill:#282828}
    .fil19 {fill:#5559A5}
    .fil22 {fill:#2D2E42}
    .fil17 {fill:#383B6F}
    .fil9 {fill:#D2D3D5;fill-rule:nonzero}
    .fil26 {fill:#A9ABAE;fill-rule:nonzero}
    .fil10 {fill:#848688;fill-rule:nonzero}
    .fil24 {fill:#727376;fill-rule:nonzero}
    .fil5 {fill:#606062;fill-rule:nonzero}
    .fil6 {fill:#4B4B4D;fill-rule:nonzero}
    .fil3 {fill:#4B4B4D;fill-rule:nonzero}
    .fil14 {fill:#F9D779;fill-rule:nonzero}
    .fil4 {fill:#ECEDEE;fill-rule:nonzero}
    .fil1 {fill:#EAC869;fill-rule:nonzero}
    .fil11 {fill:#E8E7E5;fill-rule:nonzero}
    .fil25 {fill:#E5E6E5;fill-rule:nonzero}
    .fil18 {fill:#E2A049;fill-rule:nonzero}
    .fil27 {fill:#D0CFCF;fill-rule:nonzero}
    .fil16 {fill:#C79042;fill-rule:nonzero}
    .fil12 {fill:#BB9843;fill-rule:nonzero}
    .fil15 {fill:#A4883E;fill-rule:nonzero}
    .fil13 {fill:#756137;fill-rule:nonzero}
    .fil8 {fill:#2D2E42;fill-rule:nonzero}
    .fil7 {fill:#383B6F;fill-rule:nonzero}
    .fil0 {fill:url(#id0)}
    .fil2 {fill:url(#id1)}
   ]]>
  </style>
  <linearGradient id="id0" gradientUnits="userSpaceOnUse" x1="28.18" y1="19.46" x2="107.09" y2="102.28">
   <stop offset="0" style="stop-opacity:1; stop-color:#E6E6E6"/>
   <stop offset="0.568627" style="stop-opacity:1; stop-color:#999999"/>
   <stop offset="1" style="stop-opacity:1; stop-color:#E6E6E6"/>
  </linearGradient>
  <linearGradient id="id1" gradientUnits="userSpaceOnUse" x1="61.58" y1="51.89" x2="100.06" y2="127.67">
   <stop offset="0" style="stop-opacity:1; stop-color:#E6E6E6"/>
   <stop offset="1" style="stop-opacity:1; stop-color:#B3B3B3"/>
  </linearGradient>
 </defs>
 <g id="Capa_x0020_1">
  <metadata id="CorelCorpID_0Corel-Layer"/>
  <circle class="fil0" cx="64" cy="64" r="49.21"/>
  <path class="fil1" d="M64 0c17.67,0 33.67,7.16 45.25,18.75 11.59,11.58 18.75,27.58 18.75,45.25 0,17.67 -7.16,33.67 -18.75,45.25 -11.58,11.59 -27.58,18.75 -45.25,18.75 -17.67,0 -33.67,-7.16 -45.25,-18.75 -11.59,-11.58 -18.75,-27.58 -18.75,-45.25 0,-17.67 7.16,-33.67 18.75,-45.25 11.58,-11.59 27.58,-18.75 45.25,-18.75zm43.62 20.38c-11.17,-11.16 -26.59,-18.06 -43.62,-18.06 -17.03,0 -32.45,6.9 -43.62,18.06 -11.16,11.17 -18.06,26.59 -18.06,43.62 0,17.03 6.9,32.45 18.06,43.62 11.17,11.16 26.59,18.06 43.62,18.06 17.03,0 32.45,-6.9 43.62,-18.06 11.16,-11.17 18.06,-26.59 18.06,-43.62 0,-17.03 -6.9,-32.45 -18.06,-43.62z"/>
  <circle class="fil2" cx="64" cy="64" r="47.34"/>
  <g id="_1652125358384">
   <polygon class="fil3" points="72.17,63.27 71.93,62.65 70.94,63.03 71.18,63.65 "/>
   <polygon class="fil3" points="73.64,62.7 73.4,62.08 72.42,62.46 72.65,63.08 "/>
   <polygon class="fil3" points="75.11,62.13 74.87,61.51 73.89,61.89 74.13,62.51 "/>
   <polygon class="fil3" points="76.59,61.56 76.35,60.94 75.36,61.32 75.6,61.95 "/>
   <polygon class="fil3" points="78.06,61 77.82,60.38 76.83,60.76 77.07,61.38 "/>
   <polygon class="fil3" points="79.53,60.43 79.29,59.81 78.3,60.19 78.54,60.81 "/>
   <polygon class="fil3" points="81,59.86 80.76,59.24 79.77,59.62 80.01,60.24 "/>
   <polygon class="fil3" points="67.84,58.22 67.43,57.7 66.6,58.35 67.01,58.87 "/>
   <polygon class="fil3" points="69.08,57.25 68.67,56.72 67.84,57.38 68.25,57.9 "/>
   <polygon class="fil3" points="70.32,56.27 69.92,55.75 69.08,56.4 69.49,56.93 "/>
   <polygon class="fil3" points="71.57,55.3 71.16,54.77 70.32,55.43 70.73,55.95 "/>
   <polygon class="fil3" points="72.81,54.32 72.39,53.8 71.56,54.45 71.97,54.98 "/>
   <polygon class="fil3" points="74.05,53.35 73.64,52.83 72.8,53.48 73.21,54 "/>
   <polygon class="fil3" points="75.29,52.38 74.88,51.85 74.04,52.51 74.46,53.03 "/>
   <polygon class="fil3" points="64.47,53.44 63.89,53.11 63.37,54.03 63.95,54.36 "/>
   <polygon class="fil3" points="65.24,52.06 64.66,51.74 64.14,52.66 64.72,52.98 "/>
   <polygon class="fil3" points="66.01,50.69 65.43,50.36 64.91,51.28 65.49,51.61 "/>
   <polygon class="fil3" points="66.78,49.31 66.21,48.99 65.68,49.91 66.27,50.23 "/>
   <polygon class="fil3" points="67.56,47.94 66.98,47.61 66.46,48.53 67.04,48.86 "/>
   <polygon class="fil3" points="68.33,46.56 67.75,46.24 67.23,47.16 67.81,47.48 "/>
   <polygon class="fil3" points="69.1,45.19 68.52,44.86 68.01,45.78 68.59,46.11 "/>
   <path class="fil4" d="M43.01 70.68l-0.48 0.43c0,0 0.25,0.28 0.51,0.54 0.14,0.14 0.27,0.27 0.38,0.36 0.05,0.05 0.09,0.09 0.13,0.12 0.03,0.02 0.05,0.04 0.05,0.04l0.42 -0.5c0,0 -0.02,-0.01 -0.05,-0.03 -0.03,-0.03 -0.07,-0.07 -0.12,-0.11 -0.09,-0.09 -0.22,-0.21 -0.35,-0.34 -0.25,-0.25 -0.49,-0.51 -0.49,-0.51z"/>
   <path class="fil4" d="M41.71 69l-0.54 0.36c0,0 0.01,0.02 0.03,0.05 0.02,0.03 0.05,0.08 0.09,0.14 0.09,0.12 0.19,0.27 0.3,0.42 0.22,0.3 0.46,0.59 0.46,0.59l0.51 -0.41c0,0 -0.23,-0.28 -0.44,-0.57 -0.11,-0.14 -0.21,-0.29 -0.29,-0.4 -0.04,-0.05 -0.06,-0.1 -0.09,-0.13 -0.02,-0.03 -0.03,-0.05 -0.03,-0.05z"/>
   <path class="fil5" d="M40.73 67.15l-0.62 0.22c0,0 0.04,0.09 0.1,0.22 0.06,0.13 0.13,0.3 0.22,0.47 0.04,0.09 0.08,0.17 0.12,0.25 0.04,0.08 0.08,0.15 0.12,0.21 0.06,0.13 0.11,0.21 0.11,0.21l0.57 -0.32c0,0 -0.05,-0.08 -0.11,-0.19 -0.03,-0.06 -0.07,-0.13 -0.11,-0.2 -0.03,-0.07 -0.07,-0.15 -0.11,-0.23 -0.08,-0.16 -0.15,-0.32 -0.21,-0.44 -0.05,-0.12 -0.08,-0.2 -0.08,-0.2z"/>
   <path class="fil5" d="M40.19 65.14l-0.66 0.06c0,0 0.02,0.09 0.04,0.23 0.01,0.14 0.06,0.33 0.09,0.51 0.02,0.1 0.05,0.19 0.07,0.27 0.03,0.09 0.04,0.17 0.07,0.24 0.01,0.07 0.03,0.12 0.04,0.16 0.02,0.04 0.02,0.06 0.02,0.06l0.63 -0.17c0,0 0,-0.02 -0.01,-0.05 -0.02,-0.04 -0.03,-0.09 -0.05,-0.16 -0.02,-0.06 -0.04,-0.13 -0.06,-0.21 -0.02,-0.08 -0.04,-0.17 -0.06,-0.25 -0.03,-0.18 -0.08,-0.35 -0.09,-0.48 -0.02,-0.13 -0.03,-0.21 -0.03,-0.21z"/>
   <path class="fil5" d="M40.22 63.05l-0.65 -0.1c0,0 -0.01,0.1 -0.03,0.24 -0.01,0.07 -0.02,0.15 -0.03,0.24 -0.01,0.09 -0.02,0.18 -0.02,0.27 -0.01,0.1 -0.02,0.19 -0.02,0.28 -0.01,0.09 0,0.17 0,0.24 0,0.15 0,0.24 0,0.24l0.66 -0.01c0,0 0,-0.09 0,-0.22 0,-0.07 -0.01,-0.14 0,-0.22 0,-0.09 0.01,-0.17 0.01,-0.26 0.01,-0.09 0.01,-0.18 0.02,-0.26 0.01,-0.08 0.02,-0.16 0.03,-0.22 0.02,-0.13 0.03,-0.22 0.03,-0.22z"/>
   <path class="fil5" d="M40.89 61.08l-0.6 -0.26c0,0 -0.04,0.09 -0.1,0.22 -0.03,0.06 -0.07,0.14 -0.1,0.22 -0.04,0.08 -0.07,0.17 -0.11,0.25 -0.03,0.09 -0.06,0.18 -0.1,0.26 -0.03,0.09 -0.05,0.17 -0.07,0.24 -0.04,0.13 -0.07,0.22 -0.07,0.22l0.64 0.15c0,0 0.02,-0.08 0.06,-0.21 0.02,-0.06 0.04,-0.14 0.07,-0.21 0.03,-0.08 0.06,-0.16 0.1,-0.24 0.03,-0.08 0.06,-0.17 0.09,-0.24 0.04,-0.08 0.07,-0.15 0.1,-0.21 0.05,-0.11 0.09,-0.19 0.09,-0.19z"/>
   <path class="fil5" d="M41.92 59.21l-0.56 -0.33c0,0 -0.18,0.32 -0.37,0.64 -0.18,0.32 -0.35,0.65 -0.35,0.65l0.57 0.3c0,0 0.18,-0.32 0.35,-0.63 0.18,-0.32 0.36,-0.63 0.36,-0.63z"/>
   <polygon class="fil5" points="43.02,57.33 42.46,57 41.72,58.26 42.28,58.59 "/>
   <polygon class="fil5" points="44.13,55.46 43.57,55.13 42.83,56.39 43.39,56.72 "/>
   <path class="fil5" d="M45.21 53.56l-0.57 -0.31c0,0 -0.18,0.31 -0.35,0.63 -0.18,0.32 -0.36,0.63 -0.36,0.63l0.56 0.33c0,0 0.19,-0.32 0.36,-0.64 0.09,-0.16 0.18,-0.32 0.25,-0.44 0.07,-0.12 0.11,-0.2 0.11,-0.2z"/>
   <path class="fil5" d="M46.19 51.59l-0.59 -0.27c0,0 -0.04,0.08 -0.1,0.2 -0.05,0.13 -0.13,0.29 -0.21,0.45 -0.08,0.16 -0.16,0.33 -0.22,0.45 -0.06,0.12 -0.1,0.2 -0.1,0.2l0.58 0.3c0,0 0.04,-0.09 0.1,-0.21 0.06,-0.12 0.15,-0.29 0.22,-0.45 0.09,-0.17 0.17,-0.34 0.22,-0.46 0.06,-0.13 0.1,-0.21 0.1,-0.21z"/>
   <path class="fil5" d="M46.99 49.52l-0.62 -0.19c0,0 -0.03,0.08 -0.07,0.21 -0.04,0.13 -0.1,0.29 -0.16,0.46 -0.06,0.17 -0.13,0.34 -0.18,0.46 -0.05,0.13 -0.08,0.21 -0.08,0.21l0.6 0.25c0,0 0.03,-0.09 0.08,-0.22 0.06,-0.12 0.13,-0.3 0.19,-0.47 0.06,-0.18 0.13,-0.35 0.17,-0.49 0.04,-0.13 0.07,-0.22 0.07,-0.22z"/>
   <path class="fil5" d="M47.47 47.34l-0.65 -0.08c0,0 0,0.02 -0.01,0.06 0,0.04 -0.01,0.09 -0.02,0.16 -0.02,0.13 -0.04,0.31 -0.08,0.48 -0.03,0.18 -0.06,0.35 -0.09,0.48 -0.04,0.13 -0.06,0.21 -0.06,0.21l0.63 0.17c0,0 0.02,-0.1 0.06,-0.23 0.03,-0.14 0.07,-0.32 0.1,-0.51 0.04,-0.18 0.07,-0.37 0.09,-0.51 0.01,-0.07 0.02,-0.13 0.02,-0.17 0.01,-0.04 0.01,-0.06 0.01,-0.06z"/>
   <path class="fil4" d="M47.44 45.08l-0.65 0.1c0,0 0.02,0.08 0.04,0.21 0.01,0.13 0.02,0.31 0.04,0.48 0,0.18 0.01,0.35 0.01,0.48 -0.01,0.14 -0.01,0.22 -0.01,0.22l0.65 0.03c0,0 0.01,-0.1 0.01,-0.24 0,-0.14 0,-0.33 -0.01,-0.52 -0.02,-0.19 -0.03,-0.38 -0.05,-0.53 -0.02,-0.14 -0.03,-0.23 -0.03,-0.23z"/>
   <path class="fil4" d="M59.28 69.94l-0.59 0.17c0,0 -0.13,-0.33 -0.25,-0.67 -0.06,-0.17 -0.11,-0.34 -0.14,-0.47 -0.02,-0.06 -0.04,-0.12 -0.05,-0.16 -0.01,-0.04 -0.02,-0.06 -0.02,-0.06l0.62 -0.1c0,0 0.01,0.02 0.02,0.06 0.01,0.03 0.02,0.08 0.04,0.14 0.03,0.12 0.08,0.29 0.14,0.45 0.11,0.32 0.23,0.64 0.23,0.64z"/>
   <path class="fil4" d="M60.19 71.78l-0.56 0.26c0,0 0,-0.02 -0.03,-0.05 -0.02,-0.04 -0.05,-0.09 -0.08,-0.15 -0.06,-0.12 -0.15,-0.27 -0.24,-0.43 -0.16,-0.33 -0.31,-0.65 -0.31,-0.65l0.58 -0.21c0,0 0.14,0.32 0.3,0.62 0.08,0.16 0.16,0.31 0.23,0.42 0.03,0.06 0.06,0.1 0.08,0.14 0.01,0.03 0.03,0.05 0.03,0.05z"/>
   <path class="fil4" d="M61.38 73.45l-0.47 0.39c0,0 -0.06,-0.07 -0.15,-0.18 -0.08,-0.11 -0.21,-0.25 -0.31,-0.4 -0.06,-0.08 -0.12,-0.15 -0.17,-0.22 -0.05,-0.08 -0.09,-0.14 -0.13,-0.2 -0.08,-0.11 -0.14,-0.19 -0.14,-0.19l0.53 -0.3c0,0 0.05,0.07 0.12,0.18 0.04,0.05 0.09,0.11 0.13,0.18 0.05,0.06 0.1,0.14 0.15,0.2 0.1,0.14 0.22,0.28 0.3,0.38 0.08,0.1 0.14,0.16 0.14,0.16z"/>
   <path class="fil6" d="M62.91 74.85l-0.35 0.49c0,0 -0.07,-0.05 -0.19,-0.13 -0.11,-0.09 -0.25,-0.21 -0.4,-0.33 -0.08,-0.06 -0.14,-0.12 -0.21,-0.18 -0.07,-0.06 -0.12,-0.12 -0.17,-0.17 -0.06,-0.04 -0.1,-0.08 -0.13,-0.11 -0.03,-0.03 -0.04,-0.05 -0.04,-0.05l0.42 -0.42c0,0 0.02,0.02 0.04,0.04 0.03,0.03 0.07,0.07 0.12,0.11 0.04,0.05 0.1,0.1 0.16,0.15 0.06,0.06 0.13,0.12 0.19,0.17 0.14,0.11 0.27,0.23 0.38,0.31 0.1,0.07 0.18,0.12 0.18,0.12z"/>
   <path class="fil6" d="M64.75 75.83l-0.2 0.56c0,0 -0.09,-0.03 -0.22,-0.08 -0.07,-0.03 -0.14,-0.06 -0.22,-0.09 -0.09,-0.03 -0.17,-0.08 -0.26,-0.12 -0.08,-0.04 -0.17,-0.08 -0.25,-0.12 -0.08,-0.04 -0.15,-0.08 -0.21,-0.11 -0.12,-0.08 -0.21,-0.12 -0.21,-0.12l0.3 -0.52c0,0 0.08,0.04 0.19,0.11 0.06,0.03 0.13,0.07 0.2,0.11 0.07,0.03 0.15,0.07 0.23,0.11 0.08,0.03 0.16,0.08 0.24,0.11 0.07,0.03 0.14,0.05 0.21,0.08 0.12,0.05 0.2,0.08 0.2,0.08z"/>
   <path class="fil6" d="M66.77 76.25l-0.04 0.6c0,0 -0.09,-0.01 -0.23,-0.02 -0.07,-0.01 -0.15,-0.02 -0.24,-0.03 -0.09,-0.01 -0.18,-0.03 -0.27,-0.04 -0.09,-0.02 -0.19,-0.03 -0.27,-0.05 -0.09,-0.01 -0.17,-0.03 -0.24,-0.05 -0.13,-0.03 -0.23,-0.05 -0.23,-0.05l0.15 -0.58c0,0 0.09,0.02 0.22,0.05 0.06,0.01 0.13,0.03 0.21,0.05 0.08,0.01 0.17,0.02 0.25,0.04 0.09,0.01 0.18,0.02 0.25,0.04 0.09,0.01 0.16,0.01 0.23,0.02 0.12,0.01 0.21,0.02 0.21,0.02z"/>
   <path class="fil6" d="M68.86 76.33l0.04 0.61c0,0 -0.36,-0.01 -0.72,-0.02 -0.36,-0.02 -0.73,-0.03 -0.73,-0.03l-0.01 -0.61c0,0 0.35,0.02 0.71,0.03 0.35,0.01 0.71,0.02 0.71,0.02z"/>
   <polygon class="fil6" points="70.98,76.36 71.03,76.96 69.6,76.95 69.56,76.34 "/>
   <polygon class="fil6" points="73.11,76.37 73.15,76.98 71.73,76.97 71.68,76.36 "/>
   <path class="fil6" d="M75.25 76.43l0.02 0.61c0,0 -0.35,-0.01 -0.71,-0.03 -0.36,-0.01 -0.71,-0.02 -0.71,-0.02l-0.04 -0.6c0,0 0.36,0 0.72,0.02 0.18,0 0.36,0.01 0.5,0.02 0.13,0 0.22,0 0.22,0z"/>
   <path class="fil6" d="M77.41 76.6l-0.03 0.6c0,0 -0.09,-0.01 -0.22,-0.02 -0.13,-0.02 -0.31,-0.03 -0.49,-0.05 -0.17,-0.01 -0.35,-0.03 -0.48,-0.04 -0.14,-0.01 -0.22,-0.01 -0.22,-0.01l-0.01 -0.61c0,0 0.09,0.01 0.22,0.02 0.14,0.01 0.32,0.02 0.5,0.04 0.18,0.01 0.36,0.03 0.5,0.05 0.13,0.01 0.23,0.02 0.23,0.02z"/>
   <path class="fil6" d="M79.57 76.96l-0.1 0.59c0,0 -0.09,-0.02 -0.22,-0.05 -0.13,-0.03 -0.31,-0.06 -0.48,-0.09 -0.17,-0.04 -0.35,-0.07 -0.48,-0.08 -0.13,-0.03 -0.22,-0.04 -0.22,-0.04l0.05 -0.6c0,0 0.09,0.02 0.22,0.04 0.14,0.02 0.32,0.05 0.5,0.08 0.18,0.03 0.36,0.07 0.5,0.1 0.13,0.03 0.23,0.05 0.23,0.05z"/>
   <path class="fil6" d="M81.69 77.63l-0.22 0.55c0,0 -0.02,-0.01 -0.05,-0.02 -0.04,-0.02 -0.09,-0.04 -0.15,-0.06 -0.13,-0.05 -0.29,-0.12 -0.46,-0.17 -0.16,-0.06 -0.33,-0.11 -0.46,-0.15 -0.13,-0.04 -0.21,-0.06 -0.21,-0.06l0.13 -0.58c0,0 0.09,0.03 0.23,0.06 0.13,0.04 0.31,0.1 0.49,0.16 0.17,0.06 0.35,0.13 0.48,0.18 0.07,0.03 0.12,0.05 0.16,0.07 0.04,0.01 0.06,0.02 0.06,0.02z"/>
   <path class="fil4" d="M83.65 78.74l-0.36 0.47c0,0 -0.07,-0.05 -0.18,-0.13 -0.11,-0.08 -0.25,-0.17 -0.4,-0.26 -0.15,-0.09 -0.3,-0.18 -0.42,-0.25 -0.12,-0.06 -0.19,-0.1 -0.19,-0.1l0.26 -0.52c0,0 0.08,0.04 0.21,0.1 0.13,0.07 0.29,0.17 0.46,0.27 0.15,0.1 0.32,0.2 0.43,0.28 0.12,0.09 0.19,0.14 0.19,0.14z"/>
   <polygon class="fil7" points="53.67,90.17 48.41,94.11 43.31,82.78 46.4,80.47 "/>
   <polygon class="fil8" points="47.17,81.5 47.17,81.5 44.98,82.7 51.69,91.66 53.67,90.17 "/>
   <path class="fil9" d="M70.41 66.43c0.62,0.83 0.45,2.01 -0.38,2.63l-31.83 17.33c-1.75,0.79 -2.35,-0.01 -2.98,-0.83l-3.53 -4.72c-0.62,-0.83 -1.01,-1.78 -0.04,-2.84l26.5 -24.8c0.83,-0.62 2.01,-0.45 2.63,0.38l9.63 12.85z"/>
   <path class="fil7" d="M32.71 77.02l-1.06 0.98c-0.97,1.06 -0.58,2.01 0.04,2.84l3.53 4.72c0.63,0.82 1.23,1.62 2.98,0.83l1.08 -0.59 -6.57 -8.78z"/>
   <path class="fil7" d="M58.15 53.2l-1.73 1.62 11.52 15.37 2.09 -1.13c0.83,-0.62 1,-1.8 0.38,-2.63l-9.63 -12.85c-0.62,-0.83 -1.8,-1 -2.63,-0.38z"/>
   <path class="fil10" d="M36.93 86.72l0 0c0.01,0 0.01,0 0.01,0l0 0c0,0 0,0 -0.01,0zm2.35 -0.92l-3.28 -4.39 25.84 -19.36 6.1 8.14 2.09 -1.13 -22.86 12.44 -2.19 1.2 -1.37 0.74 -4.33 2.36z"/>
   <path class="fil8" d="M36.93 86.72c-0.83,0 -1.26,-0.58 -1.71,-1.16l0 0 -1.71 -2.29 2.49 -1.86 3.28 4.39 -1.08 0.59c-0.51,0.23 -0.92,0.33 -1.26,0.33 0,0 0,0 -0.01,0l0 0z"/>
   <path class="fil8" d="M67.94 70.19l-6.1 -8.14 3.38 -2.54 5.19 6.92c0.25,0.34 0.37,0.73 0.37,1.12 0,0.57 -0.26,1.14 -0.75,1.51l0 0 -2.09 1.13z"/>
   <path class="fil7" d="M81.28 89.56c0,0.31 -0.25,0.56 -0.56,0.56l-7.78 0c-0.31,0 -0.56,-0.25 -0.56,-0.56l0 -8.4c0,-0.31 0.25,-0.56 0.56,-0.56l7.78 0c0.31,0 0.56,0.25 0.56,0.56l0 8.4z"/>
   <path class="fil8" d="M80.42 85.82l0 -0.46 0.86 0 -0.86 0.46zm-7.19 -0.09l-0.65 -0.37 0.65 0 0 0.37z"/>
   <polygon class="fil11" points="73.23,89.26 80.43,89.26 80.43,81.39 73.23,81.39 "/>
   <path class="fil12" d="M72.58 85.36l-0.2 0 0 4.2c0,0.31 0.25,0.56 0.56,0.56l7.78 0c0.31,0 0.56,-0.25 0.56,-0.56l0 -4.2 -4.45 2.38 -4.25 -2.38z"/>
   <path class="fil13" d="M80.72 90.12l-7.78 0 0 0c0,0 0,0 0,0 0,0 -0.01,0 -0.01,0 0,0 0,0 0,0 0,0 0,0 0,0 0,0 0,0 -0.01,0 0,0 0,0 0,0 0,0 0,0 -0.01,0l0 0c0,0 0,0 0,0l0 0c-0.15,-0.01 -0.28,-0.08 -0.38,-0.18l4.3 -2.2 4.45 -2.38 0 4.2c0,0.31 -0.25,0.56 -0.56,0.56z"/>
   <polygon class="fil14" points="74.1,82.35 79.88,82.35 79.88,82.14 74.1,82.14 "/>
   <polygon class="fil14" points="74.1,82.73 79.88,82.73 79.88,82.52 74.1,82.52 "/>
   <polygon class="fil14" points="74.1,83.13 79.88,83.13 79.88,82.92 74.1,82.92 "/>
   <polygon class="fil14" points="74.1,83.51 79.88,83.51 79.88,83.3 74.1,83.3 "/>
   <polygon class="fil14" points="74.1,84.01 79.88,84.01 79.88,83.8 74.1,83.8 "/>
   <polygon class="fil14" points="74.1,84.6 79.88,84.6 79.88,84.38 74.1,84.38 "/>
   <polygon class="fil14" points="74.1,85.01 79.88,85.01 79.88,84.79 74.1,84.79 "/>
   <polygon class="fil14" points="74.1,85.39 79.88,85.39 79.88,85.18 74.1,85.18 "/>
   <polygon class="fil14" points="74.1,85.84 79.88,85.84 79.88,85.63 74.1,85.63 "/>
   <path class="fil7" d="M96.93 80.81c0,0.53 -0.43,0.97 -0.97,0.97l-13.33 0c-0.54,0 -0.97,-0.44 -0.97,-0.97l0 -14.41c0,-0.54 0.43,-0.97 0.97,-0.97l13.33 0c0.54,0 0.97,0.43 0.97,0.97l0 14.41z"/>
   <path class="fil6" d="M95.47 74.39l0 -0.79 1.46 0 -1.46 0.79zm-12.34 -0.16l-1.13 -0.63 1.13 0 0 0.63z"/>
   <polygon class="fil11" points="83.13,80.3 95.47,80.3 95.47,66.79 83.13,66.79 "/>
   <path class="fil15" d="M82 73.6l-0.34 0 0 7.21c0,0.53 0.43,0.97 0.97,0.97l13.33 0c0.54,0 0.97,-0.44 0.97,-0.97l0 -7.21 -7.64 4.09 -7.29 -4.09z"/>
   <path class="fil16" d="M84.49 81.78l-1.86 0 1.86 0 0 0zm-1.87 0c0,0 0,0 0,0 0,0 0,0 0,0zm-0.01 0c0,0 0,0 0,0 0,0 0,0 0,0zm0 0c0,0 0,0 0,0 0,0 0,0 0,0zm-0.01 0c0,0 0,0 0,0 0,0 0,0 0,0zm-0.01 0c0,0 0,0 0,0 0,0 0,0 0,0zm0 0c0,0 0,0 0,0 0,0 0,0 0,0z"/>
   <path class="fil12" d="M95.96 81.78l-13.33 0 0 0c0,0 -0.01,0 -0.01,0 0,0 0,0 0,0 0,0 0,0 -0.01,0 0,0 0,0 0,0 0,0 0,0 0,0 0,0 0,0 0,0 -0.01,0 -0.01,0 -0.01,0 0,0 0,0 0,0 0,0 -0.01,0 -0.01,0 0,0 0,0 0,0 0,0 0,0 0,0 0,0 0,0 0,0 -0.27,-0.01 -0.5,-0.13 -0.67,-0.31l7.37 -3.78 7.64 -4.09 0 7.21c0,0.53 -0.43,0.97 -0.97,0.97z"/>
   <polygon class="fil14" points="84.62,68.44 94.54,68.44 94.54,68.08 84.62,68.08 "/>
   <polygon class="fil14" points="84.62,69.08 94.54,69.08 94.54,68.72 84.62,68.72 "/>
   <polygon class="fil14" points="84.62,69.77 94.54,69.77 94.54,69.41 84.62,69.41 "/>
   <polygon class="fil14" points="84.62,70.44 94.54,70.44 94.54,70.07 84.62,70.07 "/>
   <polygon class="fil14" points="84.62,71.28 94.54,71.28 94.54,70.92 84.62,70.92 "/>
   <polygon class="fil14" points="84.62,72.29 94.54,72.29 94.54,71.93 84.62,71.93 "/>
   <polygon class="fil14" points="84.62,73 94.54,73 94.54,72.63 84.62,72.63 "/>
   <polygon class="fil14" points="84.62,73.66 94.54,73.66 94.54,73.3 84.62,73.3 "/>
   <polygon class="fil14" points="84.62,74.43 94.54,74.43 94.54,74.07 84.62,74.07 "/>
   <path class="fil17" d="M79.01 35.44c0.01,0 0.03,0 0.04,0 -0.01,0 -0.03,0 -0.04,0zm-0.13 -0.01c0.02,0 0.03,0 0.04,0 -0.01,0 -0.02,0 -0.04,0zm-0.1 -0.02c0.01,0 0.02,0.01 0.03,0.01 -0.01,0 -0.02,-0.01 -0.03,-0.01zm-0.09 -0.02c0.01,0.01 0.02,0.01 0.03,0.01 -0.01,0 -0.02,0 -0.03,-0.01zm-0.08 -0.02c0.01,0 0.02,0.01 0.03,0.01 -0.01,0 -0.02,-0.01 -0.03,-0.01zm-0.07 -0.03c0.01,0 0.02,0.01 0.02,0.01 0,0 -0.01,-0.01 -0.02,-0.01zm-0.05 -0.03c0,0 0.01,0.01 0.01,0.01 0,0 -0.01,-0.01 -0.01,-0.01zm-0.05 -0.03l0.01 0.01 -0.01 -0.01zm-0.07 -0.08l0.01 0.01 -0.01 -0.01zm-0.02 -0.04l0 0 0 0zm0.05 0.08l0.01 0.01 -0.01 -0.01zm-0.64 -0.84l0 0 0 0zm-0.1 -0.02l0 0zm7.73 0l-7.85 0c-0.03,-0.01 -0.06,-0.01 -0.1,-0.01 -1.74,0 -3.47,0 -5.21,0 -0.44,0 -0.8,0.37 -0.8,0.81l0 7.43c0,0.45 0.36,0.81 0.8,0.81l12.75 0c0.44,0 0.8,-0.36 0.8,-0.81l0 -7.85c0,-0.21 -0.18,-0.38 -0.39,-0.38z"/>
   <path class="fil18" d="M78.56 35.35c0,0 -0.01,0 -0.01,-0.01 0,0.01 0.01,0.01 0.01,0.01zm-0.01 -0.01c0,0 0,0 -0.01,0 0.01,0 0.01,0 0.01,0z"/>
   <path class="fil6" d="M79.13 35.44c-1.38,0 -0.41,-0.89 -1.37,-1.04l0 0 0 0c-0.06,-0.01 -0.13,-0.02 -0.22,-0.02l7.85 0c0.21,0 0.39,0.17 0.39,0.38l0 0.68 -6.59 0c-0.02,0 -0.04,0 -0.06,0zm-0.12 0c0.01,0 0.03,0 0.04,0 -0.01,0 -0.03,0 -0.04,0zm-0.13 -0.01c0.02,0 0.03,0 0.04,0 -0.01,0 -0.02,0 -0.04,0zm-0.1 -0.02c0.01,0 0.02,0.01 0.03,0.01 -0.01,0 -0.02,-0.01 -0.03,-0.01zm-0.09 -0.02c0.01,0.01 0.02,0.01 0.03,0.01 -0.01,0 -0.02,0 -0.03,-0.01zm-0.08 -0.02c0.01,0 0.02,0.01 0.03,0.01 -0.01,0 -0.02,-0.01 -0.03,-0.01zm-0.06 -0.03c0,0.01 0.01,0.01 0.01,0.01 0,0 -0.01,0 -0.01,-0.01 0,0 0,0 -0.01,0 0.01,0 0.01,0 0.01,0zm-0.06 -0.03c0,0 0.01,0.01 0.01,0.01 0,0 -0.01,-0.01 -0.01,-0.01zm-0.05 -0.03l0.01 0.01 -0.01 -0.01zm-0.04 -0.04l0.01 0.01 -0.01 -0.01zm-0.03 -0.04l0.01 0.01 -0.01 -0.01zm-0.02 -0.04l0 0 0 0zm-0.69 -0.78l0 0z"/>
   <path class="fil19" d="M79.19 35.44l5.86 0c-0.12,-0.42 -0.5,-0.72 -0.96,-0.72l-5.86 0c0.11,0.32 -0.04,0.74 0.96,0.72z"/>
   <polygon class="fil20" points="75.43,40.61 81.78,40.61 81.78,36.92 75.43,36.92 "/>
   <polygon class="fil21" points="75.99,38.42 81.21,38.42 81.21,38.17 75.99,38.17 "/>
   <polygon class="fil21" points="75.99,38.83 81.21,38.83 81.21,38.58 75.99,38.58 "/>
   <polygon class="fil21" points="75.99,39.24 81.21,39.24 81.21,38.99 75.99,38.99 "/>
   <polygon class="fil21" points="75.99,39.65 81.21,39.65 81.21,39.4 75.99,39.4 "/>
   <path class="fil22" d="M83.33 39.17c0.01,0 0.03,0 0.04,0 -0.01,0 -0.03,0 -0.04,0zm-0.15 -0.01c0.01,0 0.03,0 0.04,0 -0.01,0 -0.03,0 -0.04,0zm-0.13 -0.02c0.01,0.01 0.03,0.01 0.04,0.01 -0.01,0 -0.03,0 -0.04,-0.01zm-0.11 -0.02c0.01,0.01 0.02,0.01 0.04,0.01 -0.02,0 -0.03,0 -0.04,-0.01zm-0.09 -0.02c0.01,0 0.02,0 0.03,0.01 -0.01,-0.01 -0.02,-0.01 -0.03,-0.01zm-0.08 -0.04c0.01,0.01 0.01,0.01 0.02,0.02 -0.01,-0.01 -0.01,-0.01 -0.02,-0.02zm-0.07 -0.03c0.01,0 0.01,0.01 0.02,0.01 -0.01,0 -0.01,-0.01 -0.02,-0.01zm-0.06 -0.04c0.01,0 0.01,0.01 0.02,0.01 -0.01,0 -0.01,-0.01 -0.02,-0.01zm-0.08 -0.09l0.01 0.01 -0.01 -0.01zm-0.03 -0.04l0.01 0 -0.01 0zm0.07 0.09l0.01 0.01 -0.01 -0.01zm-0.76 -0.95l0 0 0 0zm-0.13 -0.01l0 0 0 0zm9.26 -0.01l-9.4 0c-0.04,0 -0.08,0 -0.12,0 -2.09,0 -4.17,0 -6.25,0 -0.53,0 -0.96,0.4 -0.96,0.9l0 8.36c0,0.5 0.43,0.91 0.96,0.91l15.28 0c0.53,0 0.96,-0.41 0.96,-0.91l0 -8.82c0,-0.25 -0.21,-0.44 -0.47,-0.44z"/>
   <path class="fil6" d="M83.47 39.17c-1.65,0 -0.49,-1 -1.63,-1.17l0 0c-0.08,-0.01 -0.17,-0.02 -0.27,-0.02l9.4 0c0.26,0 0.47,0.19 0.47,0.44l0 0.75 -7.9 0c-0.02,0 -0.05,0 -0.07,0zm-0.14 0c0.01,0 0.03,0 0.04,0 -0.01,0 -0.03,0 -0.04,0zm-0.15 -0.01c0.01,0 0.03,0 0.04,0 -0.01,0 -0.03,0 -0.04,0zm-0.13 -0.02c0.01,0.01 0.03,0.01 0.04,0.01 -0.01,0 -0.03,0 -0.04,-0.01zm-0.11 -0.02c0.01,0.01 0.02,0.01 0.04,0.01 -0.02,0 -0.03,0 -0.04,-0.01zm-0.09 -0.02c0.01,0 0.02,0 0.03,0.01 -0.01,-0.01 -0.02,-0.01 -0.03,-0.01zm-0.08 -0.04c0.01,0.01 0.01,0.01 0.02,0.02 -0.01,-0.01 -0.01,-0.01 -0.02,-0.02zm-0.07 -0.03c0.01,0 0.01,0.01 0.02,0.01 -0.01,0 -0.01,-0.01 -0.02,-0.01zm-0.06 -0.04c0.01,0 0.01,0.01 0.02,0.01 -0.01,0 -0.01,-0.01 -0.02,-0.01zm-0.04 -0.04l0.01 0.01 -0.01 -0.01zm-0.04 -0.05l0.01 0.01 -0.01 -0.01zm-0.03 -0.04l0.01 0 -0.01 0z"/>
   <path class="fil19" d="M83.54 39.17l7.03 0c-0.14,-0.46 -0.61,-0.8 -1.15,-0.8l-7.02 0c0.13,0.35 -0.05,0.82 1.14,0.8z"/>
   <polygon class="fil20" points="79.04,44.99 86.65,44.99 86.65,40.84 79.04,40.84 "/>
   <polygon class="fil23" points="79.71,42.52 85.97,42.52 85.97,42.25 79.71,42.25 "/>
   <polygon class="fil23" points="79.71,42.99 85.97,42.99 85.97,42.71 79.71,42.71 "/>
   <polygon class="fil23" points="79.71,43.45 85.97,43.45 85.97,43.17 79.71,43.17 "/>
   <polygon class="fil23" points="79.71,43.91 85.97,43.91 85.97,43.63 79.71,43.63 "/>
   <path class="fil24" d="M51.71 35.87c4.72,0 8.56,2.94 8.56,6.55 0,2.53 -1.87,4.72 -4.6,5.81 0.3,0.68 0.87,1.54 1.92,2.17 0,0 -1.9,-0.8 -2.9,-1.84 -0.93,0.27 -1.93,0.41 -2.98,0.41 -4.73,0 -8.56,-2.93 -8.56,-6.55 0,-3.61 3.83,-6.55 8.56,-6.55z"/>
   <path class="fil10" d="M57.59 42.42l-1.2 0c0.09,-0.22 0.17,-0.45 0.23,-0.68 0.08,-0.03 0.16,-0.04 0.24,-0.04 0.4,0 0.73,0.32 0.73,0.72l0 0z"/>
   <path class="fil6" d="M57.59 50.4c0,0 -1.9,-0.8 -2.9,-1.84 -0.93,0.27 -1.93,0.41 -2.98,0.41 -1.59,0 -3.08,-0.33 -4.35,-0.91 -0.21,-0.09 -0.41,-0.19 -0.61,-0.3 -0.58,-0.32 -1.11,-0.69 -1.57,-1.11 0.02,-0.02 0.04,-0.05 0.07,-0.07 0.93,0.26 1.93,0.41 2.98,0.41 3.65,0 6.77,-1.75 8,-4.22 0.12,0.23 0.36,0.38 0.63,0.38 0.4,0 0.73,-0.33 0.73,-0.73l2.68 0 0 0c0,2.52 -1.87,4.71 -4.59,5.8 0,0.01 -0.01,0.01 -0.01,0.01l0 0c0.3,0.68 0.87,1.54 1.92,2.17z"/>
   <path class="fil5" d="M56.86 43.15c-0.27,0 -0.51,-0.15 -0.63,-0.38 0.05,-0.11 0.11,-0.23 0.16,-0.35l1.2 0c0,0.4 -0.33,0.73 -0.73,0.73z"/>
   <path class="fil9" d="M48.23 33.89c-4.72,0 -8.56,2.93 -8.56,6.55 0,2.52 1.87,4.71 4.61,5.8 -0.31,0.68 -0.88,1.54 -1.93,2.18 0,0 1.9,-0.8 2.9,-1.84 0.93,0.26 1.93,0.41 2.98,0.41 4.73,0 8.56,-2.94 8.56,-6.55 0,-3.62 -3.83,-6.55 -8.56,-6.55z"/>
   <path class="fil25" d="M43.8 40.44l-1.45 0 0 0c0,-0.4 0.32,-0.73 0.72,-0.73 0.41,0 0.73,0.33 0.73,0.73l0 0z"/>
   <path class="fil25" d="M46.57 40.44l-1.45 0 0 0c0,-0.4 0.32,-0.73 0.72,-0.73 0.41,0 0.73,0.33 0.73,0.73l0 0z"/>
   <path class="fil25" d="M49.15 40.44l-1.45 0 0 0c0,-0.4 0.32,-0.73 0.72,-0.73 0.41,0 0.73,0.33 0.73,0.73l0 0z"/>
   <path class="fil25" d="M51.71 40.44l-1.45 0 0 0c0,-0.4 0.32,-0.73 0.72,-0.73 0.4,0 0.73,0.33 0.73,0.73l0 0z"/>
   <path class="fil25" d="M54.42 40.44l-1.45 0 0 0c0,-0.4 0.32,-0.73 0.73,-0.73 0.4,0 0.72,0.33 0.72,0.73l0 0z"/>
   <path class="fil26" d="M42.35 48.42c1.05,-0.64 1.62,-1.5 1.93,-2.18l0 0c-2.74,-1.09 -4.61,-3.28 -4.61,-5.8l2.68 0c0,0.4 0.32,0.72 0.72,0.72 0.41,0 0.73,-0.32 0.73,-0.72l1.32 0c0,0.4 0.32,0.72 0.72,0.72 0.41,0 0.73,-0.32 0.73,-0.72l1.13 0c0,0.4 0.32,0.72 0.72,0.72 0.41,0 0.73,-0.32 0.73,-0.72l1.11 0c0,0.4 0.32,0.72 0.72,0.72 0.4,0 0.73,-0.32 0.73,-0.72l1.26 0c0,0.4 0.32,0.72 0.73,0.72 0.4,0 0.72,-0.32 0.72,-0.72l2.37 0c0,0.69 -0.14,1.36 -0.4,1.98 -0.05,0.12 -0.11,0.24 -0.16,0.35 -1.23,2.47 -4.35,4.22 -8,4.22 -1.05,0 -2.05,-0.15 -2.98,-0.41 -0.03,0.02 -0.05,0.05 -0.07,0.07 -1.02,1.01 -2.83,1.77 -2.83,1.77z"/>
   <path class="fil27" d="M43.07 41.16c-0.4,0 -0.72,-0.32 -0.72,-0.72l1.45 0c0,0.4 -0.32,0.72 -0.73,0.72z"/>
   <path class="fil27" d="M45.84 41.16c-0.4,0 -0.72,-0.32 -0.72,-0.72l1.45 0c0,0.4 -0.32,0.72 -0.73,0.72z"/>
   <path class="fil27" d="M48.42 41.16c-0.4,0 -0.72,-0.32 -0.72,-0.72l1.45 0c0,0.4 -0.32,0.72 -0.73,0.72z"/>
   <path class="fil27" d="M50.98 41.16c-0.4,0 -0.72,-0.32 -0.72,-0.72l1.45 0c0,0.4 -0.33,0.72 -0.73,0.72z"/>
   <path class="fil27" d="M53.7 41.16c-0.41,0 -0.73,-0.32 -0.73,-0.72l1.45 0c0,0.4 -0.32,0.72 -0.72,0.72z"/>
  </g>
 </g>
</svg>
