<?xml version="1.0" encoding="UTF-8"?>
<!DOCTYPE svg PUBLIC "-//W3C//DTD SVG 1.1//EN" "http://www.w3.org/Graphics/SVG/1.1/DTD/svg11.dtd">
<!-- Creator: CorelDRAW 2020 (64-Bit) -->
<svg xmlns="http://www.w3.org/2000/svg" xml:space="preserve" width="128px" height="128px" version="1.1" style="shape-rendering:geometricPrecision; text-rendering:geometricPrecision; image-rendering:optimizeQuality; fill-rule:evenodd; clip-rule:evenodd"
viewBox="0 0 128 128"
 xmlns:xlink="http://www.w3.org/1999/xlink"
 xmlns:xodm="http://www.corel.com/coreldraw/odm/2003">
 <defs>
  <style type="text/css">
   <![CDATA[
    .fil36 {fill:#F9D779}
    .fil27 {fill:#C7C8C7}
    .fil38 {fill:#A4883E}
    .fil32 {fill:#414242}
    .fil23 {fill:#415989}
    .fil22 {fill:#294242}
    .fil29 {fill:#36446D}
    .fil35 {fill:#383B6F}
    .fil7 {fill:#E6E7E8;fill-rule:nonzero}
    .fil33 {fill:#373435;fill-rule:nonzero}
    .fil37 {fill:#F9D779;fill-rule:nonzero}
    .fil44 {fill:#F5BA8D;fill-rule:nonzero}
    .fil4 {fill:#F3F4F4;fill-rule:nonzero}
    .fil19 {fill:#EA6558;fill-rule:nonzero}
    .fil1 {fill:#EAC869;fill-rule:nonzero}
    .fil43 {fill:#E2E3E3;fill-rule:nonzero}
    .fil18 {fill:#E0E1E0;fill-rule:nonzero}
    .fil5 {fill:#DBDBDB;fill-rule:nonzero}
    .fil26 {fill:#D6DCE7;fill-rule:nonzero}
    .fil21 {fill:#D2D2D3;fill-rule:nonzero}
    .fil41 {fill:#CECDCC;fill-rule:nonzero}
    .fil17 {fill:#BB4A3F;fill-rule:nonzero}
    .fil40 {fill:#C1C0C1;fill-rule:nonzero}
    .fil13 {fill:#BCBDBE;fill-rule:nonzero}
    .fil12 {fill:#BB9843;fill-rule:nonzero}
    .fil16 {fill:#B2B2B2;fill-rule:nonzero}
    .fil11 {fill:#A4883E;fill-rule:nonzero}
    .fil39 {fill:#A6A7A7;fill-rule:nonzero}
    .fil28 {fill:#9E9F9E;fill-rule:nonzero}
    .fil8 {fill:#9A9B9C;fill-rule:nonzero}
    .fil45 {fill:#64483B;fill-rule:nonzero}
    .fil6 {fill:#756137;fill-rule:nonzero}
    .fil30 {fill:#8E8E8E;fill-rule:nonzero}
    .fil47 {fill:#543F35;fill-rule:nonzero}
    .fil31 {fill:#747475;fill-rule:nonzero}
    .fil46 {fill:#45B5A5;fill-rule:nonzero}
    .fil34 {fill:#3DA892;fill-rule:nonzero}
    .fil20 {fill:#5559A5;fill-rule:nonzero}
    .fil25 {fill:#3A766C;fill-rule:nonzero}
    .fil3 {fill:#43506D;fill-rule:nonzero}
    .fil15 {fill:#3C455A;fill-rule:nonzero}
    .fil24 {fill:#32394D;fill-rule:nonzero}
    .fil10 {fill:#2D2E42;fill-rule:nonzero}
    .fil42 {fill:#36446D;fill-rule:nonzero}
    .fil9 {fill:#383B6F;fill-rule:nonzero}
    .fil14 {fill:#3E4095;fill-rule:nonzero}
    .fil2 {fill:url(#id0)}
    .fil0 {fill:url(#id1)}
   ]]>
  </style>
  <linearGradient id="id0" gradientUnits="userSpaceOnUse" x1="93.42" y1="113.41" x2="38.46" y2="24.13">
   <stop offset="0" style="stop-opacity:1; stop-color:#E6E6E6"/>
   <stop offset="0.180392" style="stop-opacity:1; stop-color:#C7C7C7"/>
   <stop offset="1" style="stop-opacity:1; stop-color:#E6E6E6"/>
  </linearGradient>
  <linearGradient id="id1" gradientUnits="userSpaceOnUse" x1="28.18" y1="19.46" x2="107.09" y2="102.28">
   <stop offset="0" style="stop-opacity:1; stop-color:#E6E6E6"/>
   <stop offset="0.568627" style="stop-opacity:1; stop-color:#999999"/>
   <stop offset="1" style="stop-opacity:1; stop-color:#E6E6E6"/>
  </linearGradient>
 </defs>
 <g id="Capa_x0020_1">
  <metadata id="CorelCorpID_0Corel-Layer"/>
  <circle class="fil0" cx="64" cy="64" r="49.21"/>
  <path class="fil1" d="M64 0c17.67,0 33.67,7.16 45.25,18.75 11.59,11.58 18.75,27.58 18.75,45.25 0,17.67 -7.16,33.67 -18.75,45.25 -11.58,11.59 -27.58,18.75 -45.25,18.75 -17.67,0 -33.67,-7.16 -45.25,-18.75 -11.59,-11.58 -18.75,-27.58 -18.75,-45.25 0,-17.67 7.16,-33.67 18.75,-45.25 11.58,-11.59 27.58,-18.75 45.25,-18.75zm43.62 20.38c-11.17,-11.16 -26.59,-18.06 -43.62,-18.06 -17.03,0 -32.45,6.9 -43.62,18.06 -11.16,11.17 -18.06,26.59 -18.06,43.62 0,17.03 6.9,32.45 18.06,43.62 11.17,11.16 26.59,18.06 43.62,18.06 17.03,0 32.45,-6.9 43.62,-18.06 11.16,-11.17 18.06,-26.59 18.06,-43.62 0,-17.03 -6.9,-32.45 -18.06,-43.62z"/>
  <circle class="fil2" cx="64" cy="64" r="47.34"/>
  <g id="_1651832347504">
   <polygon class="fil3" points="52.48,47.45 78.59,47.45 78.59,30.66 52.48,30.66 "/>
   <polygon class="fil4" points="53.49,46.87 77.72,46.87 77.72,31.3 53.49,31.3 "/>
   <path class="fil5" d="M76.85 46.87l-18.75 0c0.04,-0.08 0.06,-0.17 0.06,-0.27l0 -2.48 1.63 0 -0.03 0.25 0 0c0,0 0,0 0,0 0,0 0,0 0,0.01 0,0 0,0 0,0 0,0 0,0 0,0 0,0 0,0 0,0.01 0,0 0,0 0,0 0,0 0,0 0,0 -0.03,0.28 0.13,0.55 0.35,0.59 0.02,0.01 0.04,0.01 0.07,0.01 0.01,0 0.02,0 0.03,0 0.01,0 0.02,0 0.05,-0.01 0.07,-0.02 0.14,-0.07 0.2,-0.13 0.07,-0.08 0.12,-0.19 0.13,-0.32l0.05 -0.41 4.14 0 0 -0.61 -4.06 0 0.09 -0.73 3.97 0 0 -0.61 -3.9 0 0.17 -1.41 3.73 0 0 -0.61 -3.65 0 0.05 -0.46 3.6 0 0 -0.61 -3.52 0 0.05 -0.44 3.47 0 0 -0.61 -3.39 0 0.06 -0.53c0.02,0.02 0.05,0.03 0.07,0.03 0.01,0.01 0.02,0.01 0.03,0.01 0.09,0 0.16,-0.08 0.18,-0.2l0.15 -1.28 2.9 0 0 -0.6 -2.82 0 0.05 -0.42 2.77 0 0 -0.61 -2.72 0c-0.03,-0.07 -0.08,-0.12 -0.14,-0.14 -0.01,0 -0.02,0 -0.03,0 -0.02,0 -0.03,0.01 -0.05,0.01l0.04 -0.36c0,0 0,-0.01 0.01,-0.01 0,0 0,0 0,0 0,0 0,0 0,0 0,0 0,0 0,0 0,-0.01 0,-0.01 0,-0.01 0,0 0,0 0,0 0,0 0,0 0,-0.01 0,0 0,0 0,0 0,0 0,0 0,0 0,0 0,0 0,0 0,-0.01 0,-0.01 0,-0.02 0,0 0,0 0,0 0,0 0,0 0,0 0,0 0,0 0,-0.01 0,0 0,0 0,0 0,0 0,0 0,0 0,0 0,-0.01 0,-0.01 0,0 0,0 0,0 0,0 0,0 0,0 0,0 0,0 0,-0.01 0,0 0,0 0,0 0,0 0,0 0,-0.01 0,0 0,0 0,0 0,0 0,0 0,0 0,0 0,0 0,0 0,-0.01 0,-0.01 0,-0.01 0,0 0,0 0,0 0,0 0,0 0,-0.01 0,0 0,0 0,0 -0.01,-0.24 -0.15,-0.46 -0.36,-0.5 -0.02,-0.01 -0.04,-0.01 -0.06,-0.01 -0.13,0 -0.24,0.07 -0.32,0.19 0,0 0,0 0,0 0,0 0,0 0,0 0,0 0,0 -0.01,0 0,0 0,0 0,0 0,0.01 0,0.01 0,0.01 0,0 0,0 0,0 -0.04,0.07 -0.07,0.15 -0.09,0.24 0,0 0,0 0,0 0,0 0,0 0,0.01 0,0 0,0 0,0 0,0 0,0 0,0l0 0 -0.08 0.66 -4.98 0 -0.02 -0.09c-0.04,-0.25 -0.22,-0.42 -0.41,-0.42 -0.03,0 -0.06,0 -0.09,0.01 -0.22,0.06 -0.37,0.34 -0.32,0.63 0,0 0,0 0,0 0,0 0,0 0,0 0,0 0,0.01 0,0.01l0.59 3.46 -0.22 0 0 0.61 0.32 0 0.08 0.44 -0.4 0 0 0.61 0.5 0 0.08 0.46 -0.58 0 0 0.61 0.68 0 0.24 1.41 -0.92 0 0 0.61 1.02 0 0.13 0.73 -1.15 0 0 0.61 1.25 0 0.16 0.92c0.02,0.1 0.05,0.18 0.1,0.24 0,0.01 0,0.01 0,0.01 0,0 0,0 0,0 0.07,0.1 0.17,0.17 0.28,0.18l0 1.13c0,0 0,0.01 0,0.01 0,0 0,0 0,0 0,0 0,0 0,0 0,0 0,0.01 0,0.01 0,0 0,0 0,0 0,0 0,0 0,0 0,0 0,0.01 0,0.01 0,0 0,0 0,0 0,0 0.01,0 0.01,0 0,0.01 0,0.01 0,0.01 0,0 0,0 0,0 0,0 0,0 0,0.01 0,0 0,0 0,0 0,0 0,0 0,0 0,0 0,0 0,0 0,0.01 0,0.01 0,0.01 0,0 0,0 0,0 0,0.08 0.02,0.15 0.05,0.21l-2.58 0 0 -15.57 22.93 0 -0.87 0 0 15.57zm-16.99 -3.36l-1.7 0 0 -0.73 1.79 0 -0.09 0.73zm0.17 -1.34l-1.87 0 0 -1.41 2.04 0 -0.17 1.41zm-2.72 0l-0.01 0 -0.24 -1.41 0.25 0 0 1.41zm2.96 -2.02l-2.11 0 0 -0.46 2.17 0 -0.06 0.46zm-2.96 0l-0.35 0 -0.08 -0.46 0.43 0 0 0.46zm3.09 -1.07l-2.24 0 0 -0.44 2.3 0 -0.06 0.44zm-3.09 0l-0.53 0 -0.08 -0.44 0.61 0 0 0.44zm3.22 -1.05l-2.37 0 0 -1.97 2.61 0 -0.24 1.97zm-3.22 0l-0.71 0 -0.03 -0.17c0.01,0 0.03,0 0.04,0 0.01,0 0.03,0 0.04,0 0.1,-0.03 0.16,-0.15 0.14,-0.27l-0.26 -1.53 0.78 0 0 1.97zm3.54 -2.57l-2.86 0c-0.07,-0.08 -0.16,-0.12 -0.25,-0.12 -0.1,0 -0.19,0.04 -0.26,0.12l-1.06 0 -0.07 -0.42 4.55 0 -0.05 0.42z"/>
   <polygon class="fil6" points="67.01,32.72 76.27,32.72 76.27,32.11 67.01,32.11 "/>
   <polygon class="fil6" points="67.01,34.11 76.27,34.11 76.27,33.5 67.01,33.5 "/>
   <polygon class="fil6" points="66.72,35.76 75.98,35.76 75.98,35.15 66.72,35.15 "/>
   <polygon class="fil6" points="66.72,36.99 75.98,36.99 75.98,36.38 66.72,36.38 "/>
   <polygon class="fil6" points="66.72,38.34 75.98,38.34 75.98,37.73 66.72,37.73 "/>
   <polygon class="fil6" points="66.72,40.45 75.98,40.45 75.98,39.84 66.72,39.84 "/>
   <polygon class="fil7" points="73.34,49.03 65.53,46.87 65.61,31.28 73.34,28.26 "/>
   <polygon class="fil8" points="76.85,46.87 77.72,46.87 77.72,31.3 76.85,31.3 "/>
   <polygon class="fil9" points="55.52,32.72 64.78,32.72 64.78,32.11 55.52,32.11 "/>
   <polygon class="fil9" points="55.52,35.04 64.78,35.04 64.78,34.43 55.52,34.43 "/>
   <polygon class="fil9" points="55.52,36.06 64.78,36.06 64.78,35.45 55.52,35.45 "/>
   <polygon class="fil9" points="55.52,38.64 64.78,38.64 64.78,38.04 55.52,38.04 "/>
   <polygon class="fil10" points="55.52,39.69 64.78,39.69 64.78,39.08 55.52,39.08 "/>
   <polygon class="fil10" points="55.52,40.76 64.78,40.76 64.78,40.15 55.52,40.15 "/>
   <polygon class="fil11" points="55.52,42.78 64.78,42.78 64.78,42.17 55.52,42.17 "/>
   <polygon class="fil11" points="55.52,44.12 64.78,44.12 64.78,43.51 55.52,43.51 "/>
   <path class="fil11" d="M57.75 44.82c0.05,0.29 -0.09,0.57 -0.32,0.64 -0.23,0.06 -0.45,-0.12 -0.5,-0.42l-1.78 -10.47c-0.05,-0.29 0.09,-0.58 0.32,-0.64 0.23,-0.06 0.45,0.12 0.5,0.41l1.78 10.48z"/>
   <path class="fil12" d="M57.31 44.2l-1.74 -10.28c0.19,0 0.36,0.17 0.4,0.42l0.06 0.36c-0.05,0.05 -0.08,0.14 -0.06,0.22l0.47 2.76c0.01,0.09 0.06,0.16 0.13,0.18l0.74 4.38 0 1.96z"/>
   <path class="fil6" d="M56.79 37.59c0.02,0.12 -0.04,0.24 -0.14,0.27 -0.1,0.03 -0.19,-0.05 -0.21,-0.18l-0.47 -2.76c-0.02,-0.12 0.04,-0.24 0.13,-0.27 0.1,-0.02 0.2,0.05 0.22,0.18l0.47 2.76z"/>
   <path class="fil13" d="M57.03 45.29c0,0 0,0 0,0 0,0 0,0 0,0zm0 -0.01c-0.05,-0.06 -0.08,-0.14 -0.1,-0.24l-0.16 -0.92 0.16 0.92c0.02,0.1 0.05,0.18 0.1,0.24zm-1.29 -7.25l0 0 -0.59 -3.46c0,0 0,-0.01 0,-0.01 0,0 0,0.01 0,0.01l0.59 3.46z"/>
   <path class="fil13" d="M55.15 34.56c0,0 0,0 0,0 0,0 0,0 0,0z"/>
   <path class="fil6" d="M57.31 45.47c-0.11,-0.01 -0.21,-0.08 -0.28,-0.18 0,0 0,0 0,0 0,0 0,0 0,-0.01 -0.05,-0.06 -0.08,-0.14 -0.1,-0.24l-0.16 -0.92 -1.03 -6.09 -0.59 -3.46c0,0 0,-0.01 0,-0.01 0,0 0,0 0,0 0,0 0,0 0,0 -0.04,-0.24 0.05,-0.47 0.21,-0.58l1.95 11.49z"/>
   <path class="fil14" d="M58.16 46.6c0,0.3 -0.19,0.54 -0.42,0.54 -0.24,0 -0.43,-0.24 -0.43,-0.54l0 -10.72c0,-0.3 0.19,-0.54 0.43,-0.54 0.23,0 0.42,0.24 0.42,0.54l0 10.72z"/>
   <path class="fil15" d="M58.06 46.94c0.02,-0.02 0.03,-0.04 0.04,-0.07l0 0c-0.01,0.03 -0.02,0.05 -0.04,0.07z"/>
   <path class="fil16" d="M58.1 46.87l0 0c0.04,-0.08 0.06,-0.17 0.06,-0.27l0 -2.48 0 2.48c0,0.1 -0.02,0.19 -0.06,0.27z"/>
   <path class="fil17" d="M58.16 35.88c0,0 0,0 0,0 0,0 0,0 0,0zm0 -0.01c0,0 0,0 0,0 0,0 0,0 0,0zm0 0c0,0 0,-0.01 0,-0.01 0,0 0,0.01 0,0.01zm0 -0.01c0,0 0,0 0,0 0,0 0,0 0,0zm0 -0.01c0,0 0,0 0,0 0,0 0,0 0,0zm0 0c0,0 0,0 0,-0.01 0,0.01 0,0.01 0,0.01zm0 -0.01c0,0 0,0 0,0 0,0 0,0 0,0zm0 -0.01c0,0 0,0 0,0 0,0 0,0 0,0zm-0.01 -0.01c0,0 0,0 0,0 0,0 0,0 0,0zm0 0c0,0 0,0 0,0 0,0 0,0 0,0z"/>
   <path class="fil9" d="M57.83 47.12l0 -11.76c0.17,0.05 0.3,0.23 0.32,0.46 0,0 0,0 0,0 0,0 0,0 0,0 0,0 0,0 0,0 0.01,0.01 0.01,0.01 0.01,0.01 0,0 0,0 0,0 0,0 0,0 0,0.01 0,0 0,0 0,0 0,0 0,0 0,0 0,0.01 0,0.01 0,0.01 0,0 0,0 0,0 0,0 0,0 0,0 0,0 0,0.01 0,0.01 0,0 0,0 0,0 0,0 0,0 0,0 0,0 0,0.01 0,0.01 0,0 0,0 0,0 0,0 0,0 0,0 0,0.01 0,0.01 0,0.01 0,0 0,0 0,0l0 10.72c0,0.1 -0.02,0.19 -0.06,0.27l0 0c-0.01,0.03 -0.02,0.05 -0.04,0.07 0,0 0,0 0,0 -0.13,0.18 -0.23,0.18 -0.23,0.18z"/>
   <path class="fil10" d="M58.41 39.28c0,0.12 -0.08,0.22 -0.18,0.22 -0.09,0 -0.17,-0.1 -0.17,-0.22l0 -2.83c0,-0.12 0.08,-0.22 0.17,-0.22 0.1,0 0.18,0.1 0.18,0.22l0 2.83z"/>
   <path class="fil18" d="M57.32 46.66c0,0 0,0 0,0 0,0 0,0 0,0zm0 -0.01c0,0 0,0 0,0 0,0 0,0 0,0zm0 0c0,0 0,0 0,0 0,0 0,0 0,0zm0 -0.01c0,0 0,0 0,0 0,0 0,0 0,0zm0 -0.01c0,0 -0.01,0 -0.01,0 0,0 0.01,0 0.01,0zm-0.01 0c0,0 0,-0.01 0,-0.01 0,0 0,0.01 0,0.01zm0 -0.01c0,0 0,0 0,0 0,0 0,0 0,0zm0 -0.01c0,0 0,0 0,0 0,0 0,0 0,0zm0 0c0,0 0,-0.01 0,-0.01l0 0c0,0 0,0.01 0,0.01z"/>
   <path class="fil19" d="M57.31 35.88c0,0 0,0 0,0 0,0 0,0 0,0zm0 -0.01c0,0 0,0 0,0 0,0 0,0 0,0zm0 0c0,0 0,-0.01 0,-0.01 0,0.01 0,0.01 0,0.01zm0 -0.01c0,0 0,0 0,0 0,0 0,0 0,0zm0 -0.01c0,0 0.01,0 0.01,0 0,0 -0.01,0 -0.01,0zm0.01 -0.01c0,0 0,0 0,0 0,0 0,0 0,0zm0 0c0,0 0,0 0,0 0,0 0,0 0,0zm0 -0.01c0,0 0,0 0,0 0,0 0,0 0,0z"/>
   <path class="fil20" d="M57.62 47.12c-0.16,-0.06 -0.28,-0.24 -0.3,-0.46 0,0 0,0 0,0 0,0 0,0 0,-0.01 0,0 0,0 0,0 0,0 0,0 0,0 0,0 0,0 0,0 0,-0.01 0,-0.01 0,-0.01 0,0 0,0 0,0 0,0 0,0 0,-0.01 0,0 -0.01,0 -0.01,0 0,0 0,0 0,0 0,0 0,-0.01 0,-0.01 0,0 0,0 0,0 0,0 0,0 0,0 0,0 0,-0.01 0,-0.01 0,0 0,0 0,0 0,0 0,0 0,0 0,0 0,-0.01 0,-0.01l0 -10.72c0,0 0,0 0,0 0,0 0,0 0,-0.01 0,0 0,0 0,0 0,0 0,0 0,0 0,0 0,0 0,-0.01 0,0 0,0 0,0 0,0 0,0 0,0 0,0 0,0 0,-0.01 0,0 0.01,0 0.01,0 0,0 0,0 0,-0.01 0,0 0,0 0,0 0,0 0,0 0,0 0,0 0,0 0,0 0,-0.01 0,-0.01 0,-0.01 0,0 0,0 0,0 0.01,-0.22 0.14,-0.41 0.3,-0.47l0 11.76z"/>
   <path class="fil11" d="M60.59 44.53c-0.03,0.29 -0.25,0.5 -0.48,0.45 -0.23,-0.04 -0.39,-0.32 -0.35,-0.61l1.29 -10.6c0.04,-0.29 0.25,-0.49 0.48,-0.44 0.23,0.04 0.39,0.32 0.35,0.61l-1.29 10.59z"/>
   <path class="fil16" d="M60.21 44.99c0.02,0 0.03,-0.01 0.05,-0.01 -0.03,0.01 -0.04,0.01 -0.05,0.01zm0.25 -0.14c0.07,-0.08 0.12,-0.19 0.13,-0.32l0.05 -0.41 -0.05 0.41c-0.01,0.13 -0.06,0.24 -0.13,0.32z"/>
   <path class="fil16" d="M61.84 34.3l0.04 -0.36c0,0 0,-0.01 0.01,-0.01 -0.01,0 -0.01,0.01 -0.01,0.01l-0.04 0.36 0 0zm0.05 -0.37c0,0 0,0 0,0 0,0 0,0 0,0zm0 0c0,-0.01 0,-0.01 0,-0.01 0,0 0,0 0,0.01zm0 -0.01c0,0 0,0 0,-0.01 0,0.01 0,0.01 0,0.01zm0 -0.01c0,0 0,0 0,0 0,0 0,0 0,0zm0 0c0,-0.01 0,-0.01 0,-0.02 0,0.01 0,0.01 0,0.02zm0 -0.02c0,0 0,0 0,0 0,0 0,0 0,0zm0 -0.01c0,0 0,0 0,0 0,0 0,0 0,0zm0 0c0,0 0,-0.01 0,-0.01 0,0 0,0.01 0,0.01zm0 -0.01c0,0 0,0 0,0 0,0 0,0 0,0zm0 -0.01c0,0 0,0 0,0 0,0 0,0 0,0zm0 -0.01c0,0 0,0 0,0 0,0 0,0 0,0zm0 0c0,0 0,0 0,0 0,0 0,0 0,0zm0 -0.01c0,0 0,0 0,0 0,0 0,0 0,0zm0 -0.01c0,0 0,0 0,0 0,0 0,0 0,0z"/>
   <path class="fil6" d="M60.21 44.99l1.42 -11.63c0.15,0.08 0.25,0.26 0.26,0.47 0,0 0,0 0,0 0,0.01 0,0.01 0,0.01 0,0 0,0 0,0 0,0 0,0 0,0.01 0,0 0,0 0,0 0,0 0,0 0,0 0,0 0,0 0,0 0,0.01 0,0.01 0,0.01 0,0 0,0 0,0 0,0.01 0,0.01 0,0.01 0,0 0,0 0,0 0,0 0,0 0,0 0,0 0,0.01 0,0.01 0,0 0,0 0,0 0,0 0,0 0,0 0,0.01 0,0.01 0,0.01 0,0 0,0 0,0 0,0 0,0 0,0 0,0.01 0,0.01 0,0.02 0,0 0,0 0,0 0,0 0,0 0,0 0,0 0,0 0,0 0,0.01 0,0.01 0,0.01 0,0 0,0 0,0 0,0 0,0 0,0.01 0,0 0,0 0,0 0,0 0,0 0,0 0,0 0,0 0,0 -0.01,0 -0.01,0.01 -0.01,0.01l-0.04 0.36c-0.06,0.03 -0.11,0.09 -0.13,0.19l-0.34 2.78c-0.01,0.09 0.03,0.18 0.08,0.23l-0.06 0.53 -0.08 0.61 -0.05 0.44 -0.08 0.61 -0.05 0.46 -0.08 0.61 -0.17 1.41 -0.07 0.61 -0.09 0.73 -0.08 0.61 -0.05 0.41c-0.01,0.13 -0.06,0.24 -0.13,0.32 0,0 0,0 0,0 -0.08,0.08 -0.16,0.12 -0.2,0.13 -0.02,0 -0.03,0.01 -0.05,0.01 0,0 0,0 0,0z"/>
   <path class="fil12" d="M61.73 37.34c-0.02,0.13 -0.11,0.21 -0.21,0.19 -0.09,-0.02 -0.16,-0.13 -0.15,-0.26l0.34 -2.78c0.02,-0.13 0.11,-0.22 0.21,-0.2 0.1,0.02 0.16,0.14 0.15,0.26l-0.34 2.79z"/>
   <path class="fil21" d="M59.76 44.39c0,0 0,0 0,0 0,0 0,0 0,0zm0 0c0,-0.01 0,-0.01 0,-0.01 0,0 0,0 0,0.01zm0 -0.01c0,0 0,0 0,0 0,0 0,0 0,0zm0 -0.01c0,0 0,0 0,0 0,0 0,0 0,0zm1.29 -10.6c0,0 0,0 0,0 0,0 0,0 0,0zm0 0c0,-0.01 0,-0.01 0,-0.01 0,0 0,0 0,0.01zm0 -0.01c0.02,-0.09 0.05,-0.17 0.09,-0.24 -0.04,0.07 -0.07,0.15 -0.09,0.24zm0.09 -0.24c0,0 0,0 0,-0.01 0,0.01 0,0.01 0,0.01zm0 -0.01c0.01,0 0.01,0 0.01,0 0,0 0,0 -0.01,0zm0.01 0c0,0 0,0 0,0 0,0 0,0 0,0z"/>
   <path class="fil12" d="M60 44.94c-0.16,-0.1 -0.26,-0.32 -0.24,-0.55 0,0 0,0 0,0 0,0 0,0 0,0 0,-0.01 0,-0.01 0,-0.01 0,0 0,0 0,0 0,0 0,0 0,0 0,-0.01 0,-0.01 0,-0.01 0,0 0,0 0,0l0 0 1.29 -10.6 0 0c0,0 0,0 0,0 0,0 0,0 0,0 0,-0.01 0,-0.01 0,-0.01 0,0 0,0 0,0 0.02,-0.09 0.05,-0.17 0.09,-0.24 0,0 0,0 0,0 0,0 0,0 0,-0.01 0,0 0,0 0,0 0.01,0 0.01,0 0.01,0 0,0 0,0 0,0 0,0 0,0 0,0 0.07,-0.1 0.16,-0.17 0.27,-0.19l-1.42 11.62z"/>
   <polygon class="fil22" points="79.77,63.15 97.54,63.15 97.54,62.33 79.77,62.33 "/>
   <path class="fil23" d="M74.78 53.05c0.03,-0.01 0.05,-0.01 0.08,-0.01 -0.03,0 -0.05,0 -0.08,0.01zm-0.11 0.02c0.02,0 0.03,-0.01 0.05,-0.01 -0.02,0 -0.03,0.01 -0.05,0.01zm-0.11 0.03c0.01,0 0.02,0 0.04,-0.01 -0.02,0.01 -0.03,0.01 -0.04,0.01zm-0.11 0.04c0.01,0 0.02,-0.01 0.03,-0.01 -0.01,0 -0.02,0.01 -0.03,0.01zm-0.11 0.05c0.01,0 0.02,-0.01 0.03,-0.01 -0.01,0 -0.02,0.01 -0.03,0.01zm-0.09 0.06c0,-0.01 0.01,-0.01 0.02,-0.01 -0.01,0 -0.02,0 -0.02,0.01zm-0.09 0.05l0.01 0 -0.01 0zm0.74 -0.27c0.04,0 0.08,-0.01 0.12,-0.01 -0.04,0 -0.08,0.01 -0.12,0.01zm-1.09 0.71c0,0.02 -0.01,0.03 -0.01,0.05 0,-0.02 0.01,-0.03 0.01,-0.05zm0.04 -0.07c-0.01,0 -0.01,0.01 -0.02,0.02 0.01,-0.01 0.01,-0.02 0.02,-0.02zm-0.06 0.16c-0.01,0.02 -0.01,0.04 -0.01,0.06 0,-0.02 0,-0.04 0.01,-0.06zm28.07 -1.54l-26.72 0c-1.22,0 -1.6,0.77 -1.37,1.67 0,-0.01 0.01,-0.02 0.01,-0.03 -0.01,0.06 0,0.13 0.02,0.19l1.93 7.3c0.29,1.11 0.55,1.14 2,1.14l22.34 0c1.16,0 1.72,0 1.95,-1.11l1.51 -7.33c0,-0.03 0,-0.06 0.01,-0.08l0 0 0.07 -0.62c0.1,-0.89 -1.07,-1.13 -1.75,-1.13z"/>
   <path class="fil24" d="M103.54 54.04l0 0c-0.1,-0.47 -0.68,-1.02 -1.24,-1.02l-10.5 0 1.07 -0.73 8.99 0c0.65,0 1.75,0.22 1.76,1.01 0,0.04 -0.01,0.08 -0.01,0.12l-0.07 0.62z"/>
   <path class="fil25" d="M73.77 53.96c0,0 0,0 0,0 0,0 0,0 0,0z"/>
   <path class="fil24" d="M73.77 53.96c-0.04,-0.17 -0.06,-0.33 -0.06,-0.49 0,-0.68 0.44,-1.18 1.43,-1.18l7.17 0c-0.01,0.01 -0.03,0.02 -0.05,0.04 -0.3,0.2 -0.57,0.44 -0.81,0.69l-6.43 0 0 0c-0.61,0 -1.25,0.43 -1.25,0.94 0,0 0,0 0,0l0 0zm14.95 -0.94l-0.07 0c-0.01,-0.01 -0.02,-0.02 -0.03,-0.03l-0.16 -0.31 -0.12 0.04c-0.18,-0.16 -0.36,-0.31 -0.55,-0.43l2 0c0,0 0,0 0,0l-1.07 0.73zm-1.78 0l-3.78 0c0.59,-0.33 1.24,-0.49 1.89,-0.49 0.66,0 1.31,0.17 1.89,0.49z"/>
   <path class="fil26" d="M76.84 62.02l-1.71 -8.48 5.9 -0.01c-1.15,1.64 -1.23,3.89 -0.03,5.63 0.96,1.39 2.49,2.13 4.05,2.13 0.14,0 0.28,0 0.42,-0.01l0.18 0.3 0.55 -0.23c0.12,0.1 0.26,0.18 0.41,0.23l0.07 0.44 -9.84 0zm10.64 0l0.06 -0.45c0.15,-0.05 0.28,-0.13 0.4,-0.24l0.56 0.21 0.38 -0.65 -0.49 -0.38c0.01,-0.06 0.02,-0.14 0.02,-0.21 0,-0.08 -0.01,-0.16 -0.02,-0.23l0.46 -0.39 -0.06 -0.11c0.38,-0.44 0.67,-0.94 0.87,-1.47l0.56 -0.18 -0.16 -0.88c0.18,-0.14 0.34,-0.32 0.45,-0.52l0.89 0.04 0.24 -1.09 -0.86 -0.31c-0.02,-0.1 -0.04,-0.2 -0.07,-0.3 -0.04,-0.12 -0.09,-0.23 -0.14,-0.33l0.48 -0.76 -0.27 -0.25 11.55 -0.01 -1.46 8.5 -13.39 0.01zm-2.43 -1.8c-1.22,0 -2.42,-0.58 -3.17,-1.66 0.75,1.08 1.95,1.66 3.17,1.66 0.23,0 0.45,-0.02 0.67,-0.06 0,0 0,0 0,0 -0.22,0.04 -0.44,0.06 -0.67,0.06zm0.42 -0.33c-2.53,-0.04 -3.73,-1.92 -4.25,-3.14 0.06,0.62 0.27,1.23 0.65,1.78 -1.09,-1.6 -0.81,-3.73 0.59,-5l5.03 -0.01 0.07 0.38c-0.19,0.14 -0.34,0.32 -0.46,0.52l-0.88 -0.04 -0.24 1.09 0.86 0.31c0.02,0.1 0.04,0.2 0.07,0.3 0.04,0.12 0.09,0.22 0.14,0.33l-0.48 0.76 0.82 0.75 0.69 -0.58c0.2,0.08 0.43,0.13 0.65,0.14 -0.18,0.61 -0.51,1.18 -0.99,1.65 -0.07,-0.04 -0.15,-0.08 -0.23,-0.11l-0.1 -0.58 -0.75 0 -0.08 0.59c-0.14,0.06 -0.28,0.14 -0.4,0.24l-0.56 -0.21 -0.37 0.65 0.22 0.18zm-1.26 -1.18c0.02,0.02 0.04,0.04 0.06,0.06 0.02,0.03 0.05,0.05 0.07,0.07l-0.03 0.26 0.3 0.09 0.1 -0.23c0.07,0 0.13,-0.02 0.19,-0.04l0.2 0.14 0.23 -0.21 -0.15 -0.2c0.03,-0.06 0.05,-0.12 0.06,-0.19l0.23 -0.1 -0.07 -0.3 -0.26 0.02c-0.01,-0.02 -0.03,-0.04 -0.05,-0.07 -0.03,-0.02 -0.05,-0.04 -0.08,-0.06l0.04 -0.25 -0.3 -0.09 -0.11 0.22c-0.06,0.01 -0.13,0.02 -0.19,0.05l-0.19 -0.15 -0.23 0.21 0.14 0.21c-0.03,0.05 -0.05,0.12 -0.05,0.18l-0.23 0.1 0.07 0.3 0.25 -0.02zm-0.88 -1.63c0.03,0.03 0.07,0.05 0.11,0.07 0.04,0.03 0.09,0.05 0.13,0.06l0.07 0.37 0.46 0 0.05 -0.37c0.09,-0.04 0.17,-0.09 0.24,-0.15l0.35 0.12 0.22 -0.4 -0.29 -0.23c0.01,-0.09 0.01,-0.19 -0.01,-0.28l0.28 -0.24 -0.24 -0.4 -0.34 0.15c-0.04,-0.03 -0.08,-0.05 -0.11,-0.07 -0.05,-0.03 -0.09,-0.05 -0.14,-0.07l-0.07 -0.36 -0.46 0 -0.04 0.37c-0.09,0.04 -0.18,0.09 -0.25,0.15l-0.34 -0.12 -0.23 0.4 0.29 0.22c-0.01,0.1 -0.01,0.2 0.01,0.29l-0.28 0.24 0.24 0.4 0.35 -0.15zm-1.45 1.48c0,-0.01 0,-0.01 0,-0.01 0,0 0,0.01 0,0.01zm-0.01 -0.02c0,0 0,0 0,-0.01 0,0.01 0,0.01 0,0.01z"/>
   <path class="fil27" d="M76.47 62.81l24.53 0c0.41,0 0.74,0.33 0.74,0.74l0 13.52c0,0.41 -0.33,0.74 -0.74,0.74l-24.53 0c-0.4,0 -0.74,-0.33 -0.74,-0.74l0 -13.52c0,-0.41 0.34,-0.74 0.74,-0.74z"/>
   <path class="fil28" d="M101 77.81l-17.7 0 5.44 -5.22 11.71 0 0 -8.52 -2.84 0 1.32 -1.26 2.07 0c0.41,0 0.74,0.33 0.74,0.74l0 13.52c0,0.41 -0.33,0.74 -0.74,0.74z"/>
   <polygon class="fil29" points="85.26,76.87 92.21,76.87 92.21,73.24 85.26,73.24 "/>
   <polygon class="fil30" points="88.74,72.59 77.02,72.59 77.02,64.07 97.61,64.07 "/>
   <polygon class="fil31" points="100.45,72.59 88.74,72.59 97.61,64.07 100.45,64.07 "/>
   <path class="fil32" d="M77.53 64.58l1.09 0c0.06,0 0.11,0.07 0.11,0.15l0 1.17c0,0.08 -0.05,0.15 -0.11,0.15l-1.09 0c-0.07,0 -0.12,-0.07 -0.12,-0.15l0 -1.17c0,-0.08 0.05,-0.15 0.12,-0.15z"/>
   <path class="fil32" d="M79.29 64.58l1.09 0c0.06,0 0.12,0.07 0.12,0.15l0 1.17c0,0.08 -0.06,0.15 -0.12,0.15l-1.09 0c-0.06,0 -0.12,-0.07 -0.12,-0.15l0 -1.17c0,-0.08 0.06,-0.15 0.12,-0.15z"/>
   <path class="fil32" d="M81.06 64.58l1.08 0c0.07,0 0.12,0.07 0.12,0.15l0 1.17c0,0.08 -0.05,0.15 -0.12,0.15l-1.08 0c-0.06,0 -0.12,-0.07 -0.12,-0.15l0 -1.17c0,-0.08 0.06,-0.15 0.12,-0.15z"/>
   <path class="fil32" d="M82.82 64.58l1.09 0c0.07,0 0.12,0.07 0.12,0.15l0 1.17c0,0.08 -0.05,0.15 -0.12,0.15l-1.09 0c-0.06,0 -0.11,-0.07 -0.11,-0.15l0 -1.17c0,-0.08 0.05,-0.15 0.11,-0.15z"/>
   <path class="fil32" d="M84.59 64.58l1.09 0c0.06,0 0.11,0.07 0.11,0.15l0 1.17c0,0.08 -0.05,0.15 -0.11,0.15l-1.09 0c-0.07,0 -0.12,-0.07 -0.12,-0.15l0 -1.17c0,-0.08 0.05,-0.15 0.12,-0.15z"/>
   <path class="fil32" d="M86.35 64.58l1.09 0c0.06,0 0.12,0.07 0.12,0.15l0 1.17c0,0.08 -0.06,0.15 -0.12,0.15l-1.09 0c-0.06,0 -0.11,-0.07 -0.11,-0.15l0 -1.17c0,-0.08 0.05,-0.15 0.11,-0.15z"/>
   <path class="fil32" d="M88.12 64.58l1.09 0c0.06,0 0.11,0.07 0.11,0.15l0 1.17c0,0.08 -0.05,0.15 -0.11,0.15l-1.09 0c-0.07,0 -0.12,-0.07 -0.12,-0.15l0 -1.17c0,-0.08 0.05,-0.15 0.12,-0.15z"/>
   <path class="fil32" d="M89.88 64.58l1.09 0c0.07,0 0.12,0.07 0.12,0.15l0 1.17c0,0.08 -0.05,0.15 -0.12,0.15l-1.09 0c-0.06,0 -0.11,-0.07 -0.11,-0.15l0 -1.17c0,-0.08 0.05,-0.15 0.11,-0.15z"/>
   <path class="fil32" d="M91.65 64.58l1.09 0c0.06,0 0.11,0.07 0.11,0.15l0 1.17c0,0.08 -0.05,0.15 -0.11,0.15l-1.09 0c-0.07,0 -0.12,-0.07 -0.12,-0.15l0 -1.17c0,-0.08 0.05,-0.15 0.12,-0.15z"/>
   <path class="fil32" d="M93.42 64.58l1.08 0c0.07,0 0.12,0.07 0.12,0.15l0 1.17c0,0.08 -0.05,0.15 -0.12,0.15l-1.08 0c-0.07,0 -0.12,-0.07 -0.12,-0.15l0 -1.17c0,-0.08 0.05,-0.15 0.12,-0.15z"/>
   <path class="fil32" d="M95.18 64.58l1.09 0c0.06,0 0.12,0.07 0.12,0.15l0 1.17c0,0.08 -0.06,0.15 -0.12,0.15l-1.09 0c-0.06,0 -0.12,-0.07 -0.12,-0.15l0 -1.17c0,-0.08 0.06,-0.15 0.12,-0.15z"/>
   <path class="fil32" d="M80.18 66.62l1.08 0c0.07,0 0.12,0.07 0.12,0.16l0 1.17c0,0.08 -0.05,0.15 -0.12,0.15l-1.08 0c-0.07,0 -0.12,-0.07 -0.12,-0.15l0 -1.17c0,-0.09 0.05,-0.16 0.12,-0.16z"/>
   <path class="fil32" d="M81.94 66.62l1.09 0c0.06,0 0.12,0.07 0.12,0.16l0 1.17c0,0.08 -0.06,0.15 -0.12,0.15l-1.09 0c-0.06,0 -0.11,-0.07 -0.11,-0.15l0 -1.17c0,-0.09 0.05,-0.16 0.11,-0.16z"/>
   <path class="fil32" d="M83.71 66.62l1.08 0c0.07,0 0.12,0.07 0.12,0.16l0 1.17c0,0.08 -0.05,0.15 -0.12,0.15l-1.08 0c-0.07,0 -0.12,-0.07 -0.12,-0.15l0 -1.17c0,-0.09 0.05,-0.16 0.12,-0.16z"/>
   <path class="fil32" d="M85.47 66.62l1.09 0c0.06,0 0.12,0.07 0.12,0.16l0 1.17c0,0.08 -0.06,0.15 -0.12,0.15l-1.09 0c-0.06,0 -0.11,-0.07 -0.11,-0.15l0 -1.17c0,-0.09 0.05,-0.16 0.11,-0.16z"/>
   <path class="fil32" d="M87.24 66.62l1.09 0c0.06,0 0.11,0.07 0.11,0.16l0 1.17c0,0.08 -0.05,0.15 -0.11,0.15l-1.09 0c-0.07,0 -0.12,-0.07 -0.12,-0.15l0 -1.17c0,-0.09 0.05,-0.16 0.12,-0.16z"/>
   <path class="fil32" d="M89 66.62l1.09 0c0.06,0 0.12,0.07 0.12,0.16l0 1.17c0,0.08 -0.06,0.15 -0.12,0.15l-1.09 0c-0.06,0 -0.12,-0.07 -0.12,-0.15l0 -1.17c0,-0.09 0.06,-0.16 0.12,-0.16z"/>
   <path class="fil32" d="M90.77 66.62l1.08 0c0.07,0 0.12,0.07 0.12,0.16l0 1.17c0,0.08 -0.05,0.15 -0.12,0.15l-1.08 0c-0.06,0 -0.12,-0.07 -0.12,-0.15l0 -1.17c0,-0.09 0.06,-0.16 0.12,-0.16z"/>
   <path class="fil32" d="M92.53 66.62l1.09 0c0.07,0 0.12,0.07 0.12,0.16l0 1.17c0,0.08 -0.05,0.15 -0.12,0.15l-1.09 0c-0.06,0 -0.11,-0.07 -0.11,-0.15l0 -1.17c0,-0.09 0.05,-0.16 0.11,-0.16z"/>
   <path class="fil32" d="M94.3 66.62l1.09 0c0.06,0 0.11,0.07 0.11,0.16l0 1.17c0,0.08 -0.05,0.15 -0.11,0.15l-1.09 0c-0.07,0 -0.12,-0.07 -0.12,-0.15l0 -1.17c0,-0.09 0.05,-0.16 0.12,-0.16z"/>
   <path class="fil32" d="M96.06 66.62l1.09 0c0.07,0 0.12,0.07 0.12,0.16l0 1.17c0,0.08 -0.05,0.15 -0.12,0.15l-1.09 0c-0.06,0 -0.11,-0.07 -0.11,-0.15l0 -1.17c0,-0.09 0.05,-0.16 0.11,-0.16z"/>
   <path class="fil32" d="M96.95 64.58l1.08 0c0.07,0 0.12,0.07 0.12,0.15l0 1.17c0,0.08 -0.05,0.15 -0.12,0.15l-1.08 0c-0.07,0 -0.12,-0.07 -0.12,-0.15l0 -1.17c0,-0.08 0.05,-0.15 0.12,-0.15z"/>
   <path class="fil32" d="M98.71 64.58l1.09 0c0.06,0 0.11,0.07 0.11,0.15l0 1.17c0,0.08 -0.05,0.15 -0.11,0.15l-1.09 0c-0.06,0 -0.12,-0.07 -0.12,-0.15l0 -1.17c0,-0.08 0.06,-0.15 0.12,-0.15z"/>
   <path class="fil32" d="M97.86 66.62l1.94 0c0.06,0 0.11,0.07 0.11,0.16l0 1.17c0,0.08 -0.05,0.15 -0.11,0.15l-1.94 0c-0.07,0 -0.12,-0.07 -0.12,-0.15l0 -1.17c0,-0.09 0.05,-0.16 0.12,-0.16z"/>
   <path class="fil32" d="M77.55 66.62l2.01 0c0.06,0 0.11,0.07 0.11,0.16l0 1.17c0,0.08 -0.05,0.15 -0.11,0.15l-2.01 0c-0.07,0 -0.12,-0.07 -0.12,-0.15l0 -1.17c0,-0.09 0.05,-0.16 0.12,-0.16z"/>
   <path class="fil32" d="M77.55 68.67l2.4 0c0.06,0 0.12,0.07 0.12,0.15l0 1.17c0,0.08 -0.06,0.15 -0.12,0.15l-2.4 0c-0.07,0 -0.12,-0.07 -0.12,-0.15l0 -1.17c0,-0.08 0.05,-0.15 0.12,-0.15z"/>
   <path class="fil32" d="M77.55 70.72l1.08 0c0.06,0 0.12,0.07 0.12,0.15l0 1.17c0,0.08 -0.06,0.15 -0.12,0.15l-1.08 0c-0.07,0 -0.12,-0.07 -0.12,-0.15l0 -1.17c0,-0.08 0.05,-0.15 0.12,-0.15z"/>
   <path class="fil32" d="M79.31 70.72l1.08 0c0.07,0 0.12,0.07 0.12,0.15l0 1.17c0,0.08 -0.05,0.15 -0.12,0.15l-1.08 0c-0.07,0 -0.12,-0.07 -0.12,-0.15l0 -1.17c0,-0.08 0.05,-0.15 0.12,-0.15z"/>
   <path class="fil32" d="M81.07 70.72l1.08 0c0.07,0 0.12,0.07 0.12,0.15l0 1.17c0,0.08 -0.05,0.15 -0.12,0.15l-1.08 0c-0.06,0 -0.12,-0.07 -0.12,-0.15l0 -1.17c0,-0.08 0.06,-0.15 0.12,-0.15z"/>
   <path class="fil32" d="M82.83 70.72l11.29 0c0.06,0 0.12,0.07 0.12,0.15l0 1.17c0,0.08 -0.06,0.15 -0.12,0.15l-11.29 0c-0.06,0 -0.12,-0.07 -0.12,-0.15l0 -1.17c0,-0.08 0.06,-0.15 0.12,-0.15z"/>
   <path class="fil32" d="M80.6 68.69l1.08 0c0.07,0 0.12,0.07 0.12,0.15l0 1.17c0,0.09 -0.05,0.15 -0.12,0.15l-1.08 0c-0.06,0 -0.12,-0.06 -0.12,-0.15l0 -1.17c0,-0.08 0.06,-0.15 0.12,-0.15z"/>
   <path class="fil32" d="M82.36 68.69l1.09 0c0.07,0 0.12,0.07 0.12,0.15l0 1.17c0,0.09 -0.05,0.15 -0.12,0.15l-1.09 0c-0.06,0 -0.11,-0.06 -0.11,-0.15l0 -1.17c0,-0.08 0.05,-0.15 0.11,-0.15z"/>
   <path class="fil32" d="M84.13 68.69l1.09 0c0.06,0 0.11,0.07 0.11,0.15l0 1.17c0,0.09 -0.05,0.15 -0.11,0.15l-1.09 0c-0.07,0 -0.12,-0.06 -0.12,-0.15l0 -1.17c0,-0.08 0.05,-0.15 0.12,-0.15z"/>
   <path class="fil32" d="M85.9 68.69l1.08 0c0.06,0 0.12,0.07 0.12,0.15l0 1.17c0,0.09 -0.06,0.15 -0.12,0.15l-1.08 0c-0.07,0 -0.12,-0.06 -0.12,-0.15l0 -1.17c0,-0.08 0.05,-0.15 0.12,-0.15z"/>
   <path class="fil32" d="M87.66 68.69l1.09 0c0.06,0 0.11,0.07 0.11,0.15l0 1.17c0,0.09 -0.05,0.15 -0.11,0.15l-1.09 0c-0.06,0 -0.12,-0.06 -0.12,-0.15l0 -1.17c0,-0.08 0.06,-0.15 0.12,-0.15z"/>
   <path class="fil32" d="M89.42 68.69l1.09 0c0.07,0 0.12,0.07 0.12,0.15l0 1.17c0,0.09 -0.05,0.15 -0.12,0.15l-1.09 0c-0.06,0 -0.11,-0.06 -0.11,-0.15l0 -1.17c0,-0.08 0.05,-0.15 0.11,-0.15z"/>
   <path class="fil32" d="M91.19 68.69l1.09 0c0.06,0 0.11,0.07 0.11,0.15l0 1.17c0,0.09 -0.05,0.15 -0.11,0.15l-1.09 0c-0.06,0 -0.12,-0.06 -0.12,-0.15l0 -1.17c0,-0.08 0.06,-0.15 0.12,-0.15z"/>
   <path class="fil32" d="M92.96 68.69l1.08 0c0.07,0 0.12,0.07 0.12,0.15l0 1.17c0,0.09 -0.05,0.15 -0.12,0.15l-1.08 0c-0.07,0 -0.12,-0.06 -0.12,-0.15l0 -1.17c0,-0.08 0.05,-0.15 0.12,-0.15z"/>
   <path class="fil32" d="M94.72 68.69l2.02 0c0.07,0 0.12,0.07 0.12,0.15l0 1.17c0,0.09 -0.05,0.15 -0.12,0.15l-2.02 0c-0.06,0 -0.12,-0.06 -0.12,-0.15l0 -1.17c0,-0.08 0.06,-0.15 0.12,-0.15z"/>
   <path class="fil32" d="M97.38 68.67l2.4 0c0.07,0 0.12,0.07 0.12,0.15l0 1.17c0,0.08 -0.05,0.15 -0.12,0.15l-2.4 0c-0.06,0 -0.12,-0.07 -0.12,-0.15l0 -1.17c0,-0.08 0.06,-0.15 0.12,-0.15z"/>
   <path class="fil32" d="M97.6 70.72l0.9 0c0.02,0 0.04,0.02 0.04,0.05l0 0.4c0,0.03 -0.02,0.05 -0.04,0.05l-0.9 0c-0.03,0 -0.04,-0.02 -0.04,-0.05l0 -0.4c0,-0.03 0.01,-0.05 0.04,-0.05z"/>
   <path class="fil32" d="M97.6 71.6l0.9 0c0.02,0 0.04,0.02 0.04,0.05l0 0.4c0,0.03 -0.02,0.05 -0.04,0.05l-0.9 0c-0.03,0 -0.04,-0.02 -0.04,-0.05l0 -0.4c0,-0.03 0.01,-0.05 0.04,-0.05z"/>
   <path class="fil32" d="M96.25 71.6l0.91 0c0.02,0 0.04,0.02 0.04,0.05l0 0.4c0,0.03 -0.02,0.05 -0.04,0.05l-0.91 0c-0.02,0 -0.04,-0.02 -0.04,-0.05l0 -0.4c0,-0.03 0.02,-0.05 0.04,-0.05z"/>
   <path class="fil32" d="M98.94 71.6l0.9 0c0.02,0 0.04,0.02 0.04,0.05l0 0.4c0,0.03 -0.02,0.05 -0.04,0.05l-0.9 0c-0.03,0 -0.05,-0.02 -0.05,-0.05l0 -0.4c0,-0.03 0.02,-0.05 0.05,-0.05z"/>
   <path class="fil32" d="M94.68 70.72l1.09 0c0.06,0 0.11,0.07 0.11,0.15l0 1.17c0,0.08 -0.05,0.15 -0.11,0.15l-1.09 0c-0.07,0 -0.12,-0.07 -0.12,-0.15l0 -1.17c0,-0.08 0.05,-0.15 0.12,-0.15z"/>
   <path class="fil9" d="M95.07 48.16c0.49,-0.33 1.16,-0.21 1.49,0.28 0.34,0.48 0.21,1.15 -0.27,1.49l-4.83 3.32c-0.48,0.34 -1.15,0.22 -1.49,-0.27 -0.33,-0.49 -0.21,-1.16 0.28,-1.49l4.82 -3.33z"/>
   <path class="fil10" d="M91.22 53.03c-0.29,0 -0.57,-0.14 -0.75,-0.4 -0.28,-0.41 -0.18,-0.98 0.24,-1.26l4.09 -2.82c0.15,-0.11 0.33,-0.16 0.51,-0.16 0.29,0 0.58,0.13 0.75,0.39 0.29,0.41 0.18,0.98 -0.23,1.27l-4.09 2.82c-0.16,0.1 -0.34,0.16 -0.52,0.16z"/>
   <path class="fil20" d="M90.64 53.4l-0.17 -0.16c0.02,-0.25 -0.01,-0.82 -0.68,-0.96l0 0.01c0,-0.07 0.02,-0.13 0.03,-0.2 0.2,0.05 0.43,0.22 0.61,0.48 0.2,0.29 0.28,0.62 0.21,0.83z"/>
   <path class="fil6" d="M88.22 54.19c1.2,1.75 0.76,4.15 -0.99,5.35 -1.74,1.21 -4.14,0.77 -5.35,-0.98 -1.2,-1.75 -0.76,-4.15 0.99,-5.35 1.75,-1.21 4.14,-0.77 5.35,0.98zm-5.96 -1.86c-2.24,1.54 -2.8,4.6 -1.26,6.83 1.54,2.24 4.61,2.81 6.84,1.26 2.07,-1.43 2.71,-4.16 1.57,-6.33l1.04 -0.73c0,0 0.2,-0.9 -0.66,-1.08l-1.11 0.77c-1.63,-1.78 -4.37,-2.14 -6.42,-0.72z"/>
   <path class="fil33" d="M85.05 60.22c-1.22,0 -2.42,-0.58 -3.17,-1.66l0 0c0,0 0,-0.01 0,-0.01 0,0 -0.01,0 -0.01,-0.01 0,0 0,0 0,-0.01 0,0 0,0 0,0 -0.38,-0.55 -0.59,-1.16 -0.65,-1.78 0.52,1.22 1.72,3.1 4.25,3.14l0.26 0.2c0,0.03 0,0.05 -0.01,0.07 -0.22,0.04 -0.44,0.06 -0.67,0.06z"/>
   <path class="fil34" d="M81.88 58.56l0 0zm0 -0.01c0,0 -0.01,0 -0.01,-0.01 0,0.01 0.01,0.01 0.01,0.01zm-0.01 -0.02c0,0 0,0 0,0 0,0 0,0 0,0z"/>
   <path class="fil35" d="M87.51 59.02c0.15,0.06 0.29,0.14 0.41,0.24l0.56 -0.24 0.37 0.66 -0.46 0.39c0.01,0.07 0.02,0.15 0.02,0.23 0,0.07 -0.01,0.15 -0.02,0.21l0.49 0.38 -0.38 0.65 -0.56 -0.21c-0.12,0.11 -0.25,0.19 -0.4,0.24l-0.08 0.6 -0.75 0 -0.1 -0.59c-0.15,-0.05 -0.29,-0.13 -0.41,-0.23l-0.55 0.23 -0.38 -0.65 0.47 -0.39c-0.02,-0.07 -0.02,-0.16 -0.02,-0.24 0,-0.07 0,-0.14 0.01,-0.21l-0.48 -0.38 0.37 -0.65 0.56 0.21c0.12,-0.1 0.26,-0.18 0.4,-0.24l0.08 -0.59 0.75 0 0.1 0.58z"/>
   <path class="fil20" d="M87.06 61.28c-0.54,0 -0.98,-0.44 -0.98,-0.98 0,-0.54 0.44,-0.97 0.98,-0.97 0.54,0 0.98,0.43 0.98,0.97 0,0.54 -0.44,0.98 -0.98,0.98zm0 -1.63c-0.36,0 -0.65,0.3 -0.65,0.65 0,0.36 0.29,0.65 0.65,0.65 0.36,0 0.65,-0.29 0.65,-0.65 0,-0.35 -0.29,-0.65 -0.65,-0.65z"/>
   <path class="fil9" d="M87.06 60.95c-0.36,0 -0.65,-0.29 -0.65,-0.65 0,-0.35 0.29,-0.65 0.65,-0.65 0.36,0 0.65,0.3 0.65,0.65 0,0.36 -0.29,0.65 -0.65,0.65z"/>
   <path class="fil35" d="M88.86 53.46c0.24,0.01 0.47,0.06 0.68,0.14l0.69 -0.58 0.82 0.75 -0.48 0.76c0.05,0.1 0.1,0.21 0.14,0.33 0.03,0.1 0.05,0.2 0.07,0.3l0.86 0.31 -0.24 1.09 -0.89 -0.04c-0.11,0.2 -0.27,0.38 -0.45,0.52l0.16 0.88 -1.06 0.34 -0.41 -0.78c-0.23,-0.01 -0.46,-0.06 -0.67,-0.14l-0.69 0.58 -0.82 -0.75 0.48 -0.76c-0.05,-0.11 -0.1,-0.21 -0.14,-0.33 -0.03,-0.1 -0.05,-0.2 -0.07,-0.3l-0.86 -0.31 0.24 -1.09 0.88 0.04c0.12,-0.2 0.27,-0.38 0.46,-0.52l-0.16 -0.88 1.06 -0.34 0.4 0.78z"/>
   <path class="fil20" d="M88.81 57.05c-0.87,0 -1.58,-0.71 -1.58,-1.58 0,-0.87 0.71,-1.58 1.58,-1.58 0.87,0 1.58,0.71 1.58,1.58 0,0.87 -0.71,1.58 -1.58,1.58zm0 -2.54c-0.1,0 -0.2,0.01 -0.3,0.04 -0.5,0.17 -0.78,0.71 -0.62,1.21 0.14,0.41 0.51,0.67 0.92,0.67 0.1,0 0.2,-0.02 0.29,-0.05 0.51,-0.16 0.79,-0.7 0.62,-1.21 -0.13,-0.4 -0.51,-0.66 -0.91,-0.66z"/>
   <path class="fil9" d="M88.81 56.43c-0.41,0 -0.78,-0.26 -0.92,-0.67 -0.16,-0.5 0.12,-1.04 0.62,-1.21 0.1,-0.03 0.2,-0.04 0.3,-0.04 0.4,0 0.78,0.26 0.91,0.66 0.17,0.51 -0.11,1.05 -0.62,1.21 -0.09,0.03 -0.19,0.05 -0.29,0.05z"/>
   <path class="fil36" d="M84.45 57.88c0.06,-0.03 0.13,-0.04 0.19,-0.05l0.11 -0.22 0.3 0.09 -0.04 0.25c0.03,0.02 0.05,0.04 0.08,0.06 0.02,0.03 0.04,0.05 0.05,0.07l0.26 -0.02 0.07 0.3 -0.23 0.1c-0.01,0.07 -0.03,0.13 -0.06,0.19l0.15 0.2 -0.23 0.21 -0.2 -0.14c-0.06,0.02 -0.12,0.04 -0.19,0.04l-0.1 0.23 -0.3 -0.09 0.03 -0.26c-0.02,-0.02 -0.05,-0.04 -0.07,-0.07 -0.02,-0.02 -0.04,-0.04 -0.06,-0.06l-0.25 0.02 -0.07 -0.3 0.23 -0.1c0,-0.06 0.02,-0.13 0.05,-0.18l-0.14 -0.21 0.23 -0.21 0.19 0.15z"/>
   <path class="fil6" d="M84.68 58.8c-0.11,0 -0.22,-0.04 -0.3,-0.13 -0.15,-0.16 -0.14,-0.42 0.02,-0.57 0.08,-0.08 0.18,-0.11 0.28,-0.11 0.11,0 0.22,0.04 0.29,0.13 0.16,0.16 0.15,0.42 -0.02,0.57 -0.07,0.08 -0.17,0.11 -0.27,0.11zm0 -0.67c-0.07,0 -0.13,0.02 -0.19,0.07 -0.11,0.1 -0.11,0.27 -0.01,0.38 0.05,0.06 0.12,0.09 0.2,0.09 0.06,0 0.13,-0.03 0.18,-0.08 0.11,-0.1 0.12,-0.27 0.02,-0.38 -0.06,-0.05 -0.13,-0.08 -0.2,-0.08z"/>
   <path class="fil37" d="M84.68 58.67c-0.08,0 -0.15,-0.03 -0.2,-0.09 -0.1,-0.11 -0.1,-0.28 0.01,-0.38 0.06,-0.05 0.12,-0.07 0.19,-0.07 0.07,0 0.14,0.03 0.2,0.08 0.1,0.11 0.09,0.28 -0.02,0.38 -0.05,0.05 -0.12,0.08 -0.18,0.08z"/>
   <path class="fil38" d="M83.29 55.8c0.07,-0.06 0.16,-0.11 0.25,-0.15l0.04 -0.37 0.46 0 0.07 0.36c0.05,0.02 0.09,0.04 0.14,0.07 0.03,0.02 0.07,0.04 0.11,0.07l0.34 -0.15 0.24 0.4 -0.28 0.24c0.02,0.09 0.02,0.19 0.01,0.28l0.29 0.23 -0.22 0.4 -0.35 -0.12c-0.07,0.06 -0.15,0.11 -0.24,0.15l-0.05 0.37 -0.46 0 -0.07 -0.37c-0.04,-0.01 -0.09,-0.03 -0.13,-0.06 -0.04,-0.02 -0.08,-0.04 -0.11,-0.07l-0.35 0.15 -0.24 -0.4 0.28 -0.24c-0.02,-0.09 -0.02,-0.19 -0.01,-0.29l-0.29 -0.22 0.23 -0.4 0.34 0.12z"/>
   <path class="fil6" d="M83.84 57.08c-0.17,0 -0.35,-0.07 -0.48,-0.21 -0.24,-0.26 -0.23,-0.68 0.04,-0.92 0.12,-0.12 0.28,-0.18 0.44,-0.18 0.18,0 0.35,0.07 0.48,0.21 0.25,0.27 0.23,0.68 -0.03,0.93 -0.13,0.11 -0.29,0.17 -0.45,0.17zm0 -1.05c-0.14,0 -0.27,0.07 -0.35,0.2 -0.1,0.2 -0.04,0.44 0.16,0.55 0.06,0.03 0.12,0.05 0.19,0.05 0.14,0 0.28,-0.08 0.35,-0.2 0.11,-0.2 0.04,-0.44 -0.15,-0.55 -0.06,-0.03 -0.13,-0.05 -0.2,-0.05z"/>
   <path class="fil12" d="M83.84 56.83c-0.07,0 -0.13,-0.02 -0.19,-0.05 -0.2,-0.11 -0.26,-0.35 -0.16,-0.55 0.08,-0.13 0.21,-0.2 0.35,-0.2 0.07,0 0.14,0.02 0.2,0.05 0.19,0.11 0.26,0.35 0.15,0.55 -0.07,0.12 -0.21,0.2 -0.35,0.2z"/>
   <path class="fil39" d="M43.34 75.42c-1.44,-1.27 -0.78,-4.24 -0.78,-4.24l-4.3 0c0,0 0.66,2.97 -0.79,4.24 -1.44,1.28 -3.12,1.28 -3.12,1.28l0 0.71 12.12 0 0 -0.71c0,0 -1.68,0 -3.13,-1.28z"/>
   <polygon class="fil40" points="46.47,77.41 34.35,77.41 34.35,76.7 46.47,76.7 "/>
   <path class="fil41" d="M56.43 69.27c0,1.06 -0.85,1.91 -1.91,1.91l-28.23 0c-1.05,0 -1.91,-0.85 -1.91,-1.91l0 -15.6c0,-1.05 0.86,-1.91 1.91,-1.91l28.23 0c1.06,0 1.91,0.86 1.91,1.91l0 15.6z"/>
   <path class="fil42" d="M24.38 53.67l0 15.6c0,0.37 0.11,0.72 0.29,1.01l31.47 0c0.19,-0.29 0.29,-0.64 0.29,-1.01l0 -15.6c0,-0.49 -0.19,-0.94 -0.5,-1.28l-31.05 0c-0.31,0.34 -0.5,0.79 -0.5,1.28z"/>
   <polygon class="fil43" points="25.76,69.62 55.05,69.62 55.05,53.03 25.76,53.03 "/>
   <polygon class="fil9" points="28.67,69.62 31.8,69.62 31.8,63.65 28.67,63.65 "/>
   <polygon class="fil9" points="33.97,69.62 37.1,69.62 37.1,61.85 33.97,61.85 "/>
   <polygon class="fil9" points="39.33,69.62 42.45,69.62 42.45,58.06 39.33,58.06 "/>
   <polygon class="fil9" points="44.92,69.62 48.04,69.62 48.04,56.07 44.92,56.07 "/>
   <polygon class="fil9" points="50.25,69.34 53.38,69.34 53.38,53.98 50.25,53.98 "/>
   <polygon class="fil11" points="27.85,66.04 27.56,65.66 36.65,58.84 46.39,57.82 53.25,53.77 53.5,54.18 46.55,58.29 36.83,59.3 "/>
   <path class="fil37" d="M28.48 65.85c0,0.43 -0.34,0.78 -0.78,0.78 -0.43,0 -0.78,-0.35 -0.78,-0.78 0,-0.43 0.35,-0.78 0.78,-0.78 0.44,0 0.78,0.35 0.78,0.78z"/>
   <path class="fil37" d="M37.52 59.07c0,0.43 -0.35,0.78 -0.78,0.78 -0.43,0 -0.78,-0.35 -0.78,-0.78 0,-0.43 0.35,-0.78 0.78,-0.78 0.43,0 0.78,0.35 0.78,0.78z"/>
   <path class="fil37" d="M47.25 58.06c0,0.43 -0.35,0.78 -0.78,0.78 -0.43,0 -0.78,-0.35 -0.78,-0.78 0,-0.44 0.35,-0.79 0.78,-0.79 0.43,0 0.78,0.35 0.78,0.79z"/>
   <path class="fil37" d="M54.16 53.98c0,0.43 -0.35,0.78 -0.78,0.78 -0.43,0 -0.78,-0.35 -0.78,-0.78 0,-0.44 0.35,-0.79 0.78,-0.79 0.43,0 0.78,0.35 0.78,0.79z"/>
   <polygon class="fil44" points="58.01,74.85 58.44,71 67.91,69.06 67.74,72.06 68.14,74.57 66.77,75.85 63.77,76.97 59.52,75.99 "/>
   <path class="fil9" d="M56.74 74.57l1.47 -1.55c0,0 1.47,3.62 5.07,3.4 3.59,-0.22 4.64,-3.25 4.64,-3.25l1.9 1.4 0.13 3.51c0,0 -7.27,1.88 -8.41,1.61 -1.15,-0.27 -5.18,-2.18 -5.18,-2.18l0.38 -2.94z"/>
   <path class="fil14" d="M69.82 74.57c-1.31,3.43 -6.54,3.76 -6.54,3.76 0,0 -5.23,-0.33 -6.54,-3.76 0,0 -12.1,2.94 -13.08,14.55 0,0 4.91,9.64 19.62,10.62 14.71,-0.98 19.61,-10.62 19.61,-10.62 -0.98,-11.61 -13.07,-14.55 -13.07,-14.55z"/>
   <path class="fil45" d="M72.19 54.06c-1.07,-3.84 -8.91,-5.07 -8.91,-5.07 0,0 -7.85,1.23 -8.91,5.07 -1.06,3.84 -0.25,8.25 0.9,11.68 1.14,3.44 3.43,7.68 8.01,9.32 4.57,-1.64 6.86,-5.88 8.01,-9.32 1.14,-3.43 1.96,-7.84 0.9,-11.68z"/>
   <path class="fil46" d="M71.25 65.85l0 0 0 0zm0.01 -0.03c0,0 0,-0.01 0,-0.01 0,0 0,0.01 0,0.01zm0.01 -0.02c0,0 0,0 0,-0.01 0,0.01 0,0.01 0,0.01zm0 -0.02c0.01,0 0.01,-0.01 0.01,-0.01 0,0 0,0.01 -0.01,0.01zm0.01 -0.02c0,0 0,-0.01 0.01,-0.02 0.77,-2.31 1.39,-5.07 1.39,-7.8 0,2.73 -0.62,5.49 -1.39,7.8 -0.01,0.01 -0.01,0.02 -0.01,0.02zm0.9 -11.72c0,0 0,0 0,0 0,0 0,0 0,0zm0 -0.02c0,0 0,0 0,0 0,0 0,0 0,0zm-0.01 -0.01c0,0 0,-0.01 0,-0.01 0,0 0,0.01 0,0.01zm0 -0.02c0,0 0,0 0,0 0,0 0,0 0,0zm-0.01 -0.02c0,0 0,0 0,0 0,0 0,0 0,0zm0 -0.01c0,0 0,0 0,-0.01 0,0.01 0,0.01 0,0.01zm-0.01 -0.02c0,0 0,0 0,0 0,0 0,0 0,0zm0 -0.01c0,0 0,0 0,-0.01 0,0.01 0,0.01 0,0.01zm-0.01 -0.02c0,0 0,-0.01 0,-0.01 0,0 0,0.01 0,0.01zm0 -0.01c0,-0.01 0,-0.01 -0.01,-0.01 0.01,0 0.01,0 0.01,0.01zm-0.01 -0.02c0,0 0,-0.01 0,-0.01 0,0 0,0.01 0,0.01zm0 -0.02c-0.01,0 -0.01,0 -0.01,0 0,0 0,0 0.01,0zm-0.01 -0.01c0,-0.01 0,-0.01 0,-0.01 0,0 0,0 0,0.01zm-0.01 -0.02c0,0 0,0 0,-0.01 0,0.01 0,0.01 0,0.01zm0 -0.01c0,-0.01 0,-0.01 -0.01,-0.02 0.01,0.01 0.01,0.01 0.01,0.02zm-0.01 -0.02c0,0 0,-0.01 0,-0.01 0,0 0,0.01 0,0.01zm0 -0.01c0,-0.01 0,-0.02 -0.01,-0.02 0.01,0.01 0.01,0.01 0.01,0.02zm-0.01 -0.02c0,-0.01 0,-0.01 0,-0.01 0,0 0,0 0,0.01zm0 -0.02c-0.01,0 -0.01,-0.01 -0.01,-0.01 0,0 0,0.01 0.01,0.01zm-0.01 -0.02c0,0 0,0 0,0 0,0 0,0 0,0zm-0.01 0c0,-0.01 0,-0.02 0,-0.02 0,0 0,0.01 0,0.02zm0 -0.03c-0.01,0 -0.01,0 -0.01,-0.01 0,0.01 0,0.01 0.01,0.01zm-0.01 -0.01c-0.47,-1.17 -1.6,-2.09 -2.89,-2.78 1.29,0.69 2.42,1.61 2.89,2.78zm-2.89 -2.78c0,-0.01 -0.01,-0.01 -0.02,-0.01 0.01,0 0.02,0 0.02,0.01zm-0.02 -0.02c0,0 -0.01,0 -0.01,0 0,0 0.01,0 0.01,0zm-0.02 0c0,-0.01 0,-0.01 0,-0.01 0,0 0,0 0,0.01zm-0.02 -0.02c0,0 0,0 0,0 0,0 0,0 0,0zm-0.01 0c0,-0.01 -0.01,-0.01 -0.01,-0.01 0,0 0.01,0 0.01,0.01zm-0.02 -0.01c0,-0.01 -0.01,-0.01 -0.01,-0.01 0,0 0.01,0 0.01,0.01zm-0.02 -0.01c0,0 0,-0.01 0,-0.01 0,0 0,0.01 0,0.01zm-0.02 -0.01c0,0 0,0 0,-0.01 0,0.01 0,0.01 0,0.01zm-0.02 -0.01c0,0 0,0 0,0 0,0 0,0 0,0zm-0.01 -0.01l0 0 0 0zm-3.51 -1.33c0,0 0,0 0,0 0,0 0,0 0,0zm-0.02 -0.01c0,0 0,0 0,0 0,0 0,0 0,0zm-0.01 0c-0.3,-0.08 -0.59,-0.15 -0.85,-0.21 0,0 0,0 0,0 0.26,0.06 0.55,0.13 0.85,0.21z"/>
   <path class="fil47" d="M64.31 74.63c7.04,-13.05 2.55,-22.1 0.31,-25.36 0.26,0.06 0.55,0.13 0.85,0.21 0,0 0.01,0 0.01,0 0,0 0,0 0,0 0.01,0 0.01,0.01 0.02,0.01 0,0 0,0 0,0 1.05,0.29 2.34,0.72 3.51,1.33l0 0c0,0 0.01,0 0.01,0.01 0,0 0,0 0,0 0.01,0 0.01,0 0.02,0 0,0.01 0,0.01 0,0.01 0.01,0 0.01,0 0.02,0 0,0 0,0.01 0,0.01 0.01,0 0.01,0 0.01,0 0,0 0.01,0 0.01,0.01 0,0 0.01,0 0.01,0 0,0 0.01,0 0.01,0.01 0,0 0,0 0.01,0 0,0 0,0 0,0 0.01,0.01 0.01,0.01 0.02,0.01 0,0 0,0 0,0.01 0.01,0 0.01,0 0.01,0 0,0 0.01,0 0.01,0 0,0 0,0.01 0,0.01 0.01,0 0.02,0 0.02,0.01 0,0 0,0 0,0 1.29,0.69 2.42,1.61 2.89,2.78l0 0c0,0.01 0,0.01 0.01,0.01 0,0 0,0 0,0.01 0,0 0,0.01 0,0.02 0.01,0 0.01,0 0.01,0 0,0 0,0 0,0 0,0 0,0 0,0.01 0,0 0,0.01 0.01,0.01 0,0.01 0,0.01 0,0.01 0,0 0,0 0,0.01 0,0 0,0 0,0 0.01,0 0.01,0.01 0.01,0.02 0,0 0,0 0,0 0,0 0,0.01 0,0.01 0,0 0,0 0,0 0.01,0.01 0.01,0.01 0.01,0.02 0,0 0,0 0,0 0,0.01 0,0.01 0,0.01 0.01,0 0.01,0.01 0.01,0.01 0,0 0,0 0,0.01 0,0 0,0 0,0.01 0,0 0,0 0.01,0 0,0.01 0,0.01 0,0.01 0,0 0,0.01 0,0.01 0,0 0,0.01 0,0.01 0.01,0 0.01,0 0.01,0.01 0,0 0,0 0,0 0,0 0,0.01 0,0.01 0,0.01 0,0.01 0.01,0.01 0,0.01 0,0.01 0,0.01 0,0 0,0 0,0.01 0,0 0,0 0,0 0,0.01 0,0.01 0.01,0.01 0,0.01 0,0.01 0,0.01 0,0 0,0.01 0,0.01 0,0 0,0 0,0 0,0.01 0.01,0.01 0.01,0.02 0,0 0,0 0,0 0,0.01 0,0.01 0,0.01 0,0 0,0.01 0,0.01 0,0 0,0.01 0.01,0.01 0,0 0,0 0,0 0,0.01 0,0.01 0,0.02 0,0 0,0 0,0 0,0.01 0,0.01 0.01,0.02 0.34,1.25 0.49,2.56 0.49,3.88 0,2.73 -0.62,5.49 -1.39,7.8 -0.01,0.01 -0.01,0.02 -0.01,0.02 0,0 0,0 0,0.01 0,0 0,0.01 -0.01,0.01 0,0 0,0.01 0,0.01 0,0.01 0,0.01 0,0.01 0,0 0,0.01 -0.01,0.01 0,0 0,0.01 0,0.01 0,0.01 -0.01,0.02 -0.01,0.03l0 0c-1.07,3.15 -3.09,6.93 -6.94,8.78z"/>
   <path class="fil46" d="M82.89 89.12l0 0zm0 0c0,0 0,0 0,0 0,0 0,0 0,0zm0 0c0,-0.02 0,-0.03 0,-0.04 0,0.01 0,0.03 0,0.04zm0 -0.05c0,0 0,-0.01 0,-0.02 0,0.01 0,0.02 0,0.02zm-0.01 -0.03c0,-0.01 0,-0.01 0,-0.02 0,0.01 0,0.01 0,0.02zm0 -0.03c0,-0.01 0,-0.02 0,-0.02 0,0 0,0.01 0,0.02zm0 -0.03c0,-0.01 0,-0.02 0,-0.03 0,0.01 0,0.02 0,0.03zm0 -0.04c-0.01,-0.01 -0.01,-0.02 -0.01,-0.02 0,0 0,0.01 0.01,0.02zm-0.01 -0.04c0,0 0,-0.01 0,-0.01 0,0 0,0.01 0,0.01zm0 -0.03c0,0 0,-0.01 0,-0.02 0,0.01 0,0.02 0,0.02zm0 -0.03c-0.01,-0.01 -0.01,-0.02 -0.01,-0.02 0,0 0,0.01 0.01,0.02zm-0.01 -0.04c0,0 0,-0.01 0,-0.02 0,0.01 0,0.02 0,0.02zm0 -0.03c0,-0.01 0,-0.01 0,-0.02 0,0.01 0,0.01 0,0.02zm0 -0.03c0,-0.01 -0.01,-0.01 -0.01,-0.02 0,0.01 0.01,0.01 0.01,0.02zm-0.01 -0.03c0,-0.01 0,-0.01 0,-0.02 0,0.01 0,0.01 0,0.02zm0 -0.05c0,0 0,-0.01 0,-0.01 0,0 0,0.01 0,0.01zm-0.01 -0.03c0,0 0,0 0,-0.01 0,0 0,0.01 0,0.01zm0 -0.03c0,0 0,-0.01 0,-0.01 0,0 0,0.01 0,0.01zm0 -0.03c0,0 0,-0.01 0,-0.01 0,0 0,0.01 0,0.01zm-0.01 -0.08c0,0 0,0 0,0 0,0 0,0 0,0zm-0.01 -0.02c0,-0.01 0,-0.01 0,-0.01 0,0 0,0 0,0.01zm0 -0.03c0,-0.01 0,-0.01 0,-0.01 0,0 0,0 0,0.01zm-0.01 -0.08c0,0 0,-0.01 0,-0.01 0,0 0,0.01 0,0.01zm0 -0.03c0,0 0,0 0,-0.01 0,0.01 0,0.01 0,0.01zm-0.01 -0.03c0,0 0,0 0,-0.01 0,0.01 0,0.01 0,0.01zm0 -0.03c0,0 0,0 0,0 0,0 0,0 0,0zm-0.01 -0.07c0,0 0,0 0,-0.01 0,0 0,0.01 0,0.01zm0 -0.03c-0.01,0 -0.01,0 -0.01,-0.01 0,0.01 0,0.01 0.01,0.01zm-0.01 -0.03c0,0 0,0 0,-0.01 0,0.01 0,0.01 0,0.01zm-0.01 -0.08c0,0 0,0 0,0 0,0 0,0 0,0zm0 -0.02c0,-0.01 -0.01,-0.01 -0.01,-0.01 0,0 0.01,0 0.01,0.01zm-0.01 -0.03c0,0 0,0 0,0 0,0 0,0 0,0zm-0.02 -0.11c0,0 0,0 0,0 0,0 0,0 0,0zm0 -0.02c0,0 0,0 0,0 0,0 0,0 0,0zm-0.02 -0.13l0 0 0 0zm-0.02 -0.13c0,0 0,0 0,0 0,0 0,0 0,0zm-0.03 -0.16c0,0 0,0 0,0l0 0z"/>
   <path class="fil10" d="M78.28 94.32c1.51,-6.91 -4.43,-15.63 -7.36,-19.41 2.83,0.99 10.2,4.32 11.75,12.55 0,0 0,0 0,0 0.01,0.05 0.02,0.1 0.03,0.16 0,0 0,0 0,0 0,0.04 0.01,0.08 0.02,0.13l0 0c0.01,0.04 0.01,0.08 0.02,0.13 0,0 0,0 0,0 0,0.01 0,0.01 0,0.02 0,0 0,0 0,0 0.01,0.04 0.01,0.07 0.02,0.11 0,0 0,0 0,0 0,0.01 0,0.02 0,0.02 0,0 0.01,0 0.01,0.01 0,0.01 0,0.01 0,0.02 0,0 0,0 0,0 0,0.03 0.01,0.05 0.01,0.07 0,0.01 0,0.01 0,0.01 0,0.01 0,0.02 0,0.02 0,0.01 0,0.01 0.01,0.01 0,0.01 0,0.02 0,0.02 0,0.01 0,0.01 0,0.01 0,0.02 0.01,0.04 0.01,0.07 0,0 0,0 0,0 0,0.01 0,0.02 0,0.02 0,0.01 0,0.01 0,0.01 0,0.01 0,0.02 0.01,0.02 0,0.01 0,0.01 0,0.01 0,0.01 0,0.02 0,0.02 0,0 0,0.01 0,0.01 0,0.02 0.01,0.05 0.01,0.07 0,0 0,0 0,0.01 0,0 0,0.01 0,0.02 0,0 0,0 0,0.01 0,0 0.01,0.01 0.01,0.02 0,0 0,0 0,0 0,0.03 0,0.05 0.01,0.07 0,0 0,0.01 0,0.01 0,0.01 0,0.01 0,0.02 0,0 0,0.01 0,0.01 0,0.01 0,0.01 0,0.02 0,0.01 0,0.01 0,0.01 0,0.01 0.01,0.02 0.01,0.02 0,0 0,0.01 0,0.01 0,0.01 0,0.02 0,0.03 0,0.01 0,0.01 0,0.02 0,0 0,0.01 0,0.01 0,0.01 0.01,0.01 0.01,0.02 0,0 0,0.01 0,0.01 0,0.01 0,0.01 0,0.02 0,0 0,0.01 0,0.01 0,0.01 0,0.02 0,0.02 0,0 0,0.01 0,0.02 0,0 0,0.01 0.01,0.02 0,0.01 0,0.01 0,0.01 0,0.01 0,0.02 0,0.02 0,0.01 0,0.01 0,0.02 0,0 0,0.01 0,0.01 0,0.01 0,0.01 0,0.02 0,0 0,0.01 0.01,0.02 0,0 0,0.01 0,0.01 0,0.01 0,0.02 0,0.03 0,0 0,0.01 0,0.01 0,0 0,0.01 0,0.02 0,0 0,0.01 0,0.01 0,0.01 0,0.01 0,0.02 0,0 0,0.01 0.01,0.01 0,0.01 0,0.02 0,0.02 0,0.01 0,0.01 0,0.01 0,0.01 0,0.02 0,0.04l0 0c0,0 0,0 0,0 0,0 0,0 0,0 0,0 0,0 0,0l0 0c-0.04,0.08 -1.36,2.61 -4.61,5.2z"/>
  </g>
 </g>
</svg>
