<?xml version="1.0" encoding="UTF-8"?>
<!DOCTYPE svg PUBLIC "-//W3C//DTD SVG 1.1//EN" "http://www.w3.org/Graphics/SVG/1.1/DTD/svg11.dtd">
<!-- Creator: CorelDRAW 2020 (64-Bit) -->
<svg xmlns="http://www.w3.org/2000/svg" xml:space="preserve" width="128px" height="128px" version="1.1" style="shape-rendering:geometricPrecision; text-rendering:geometricPrecision; image-rendering:optimizeQuality; fill-rule:evenodd; clip-rule:evenodd"
viewBox="0 0 128 128"
 xmlns:xlink="http://www.w3.org/1999/xlink"
 xmlns:xodm="http://www.corel.com/coreldraw/odm/2003">
 <defs>
  <style type="text/css">
   <![CDATA[
    .fil19 {fill:#F7A5A2;fill-rule:nonzero}
    .fil27 {fill:#F05968;fill-rule:nonzero}
    .fil25 {fill:#EF4E36;fill-rule:nonzero}
    .fil10 {fill:#F8D9C9;fill-rule:nonzero}
    .fil9 {fill:#F7CAB3;fill-rule:nonzero}
    .fil6 {fill:#F9D779;fill-rule:nonzero}
    .fil32 {fill:#F9D060;fill-rule:nonzero}
    .fil7 {fill:#F6C845;fill-rule:nonzero}
    .fil8 {fill:#F4BF2F;fill-rule:nonzero}
    .fil1 {fill:#EAC869;fill-rule:nonzero}
    .fil4 {fill:#D6DCE0;fill-rule:nonzero}
    .fil29 {fill:#D2D4D4;fill-rule:nonzero}
    .fil35 {fill:#D0CFCF;fill-rule:nonzero}
    .fil12 {fill:#C55C57;fill-rule:nonzero}
    .fil11 {fill:#BB4A3F;fill-rule:nonzero}
    .fil14 {fill:#C7A291;fill-rule:nonzero}
    .fil33 {fill:#BCBFBF;fill-rule:nonzero}
    .fil17 {fill:#BB9843;fill-rule:nonzero}
    .fil16 {fill:#944A47;fill-rule:nonzero}
    .fil15 {fill:#A4883E;fill-rule:nonzero}
    .fil18 {fill:#756137;fill-rule:nonzero}
    .fil24 {fill:#79CDD4;fill-rule:nonzero}
    .fil28 {fill:#84C44C;fill-rule:nonzero}
    .fil36 {fill:#768492;fill-rule:nonzero}
    .fil21 {fill:#565757;fill-rule:nonzero}
    .fil22 {fill:#535353;fill-rule:nonzero}
    .fil30 {fill:#4E4E4E;fill-rule:nonzero}
    .fil20 {fill:#4B4B4B;fill-rule:nonzero}
    .fil23 {fill:#494848;fill-rule:nonzero}
    .fil39 {fill:#474746;fill-rule:nonzero}
    .fil31 {fill:#434343;fill-rule:nonzero}
    .fil38 {fill:#34BA9C;fill-rule:nonzero}
    .fil26 {fill:#456EB4;fill-rule:nonzero}
    .fil3 {fill:#435366;fill-rule:nonzero}
    .fil37 {fill:#38414D;fill-rule:nonzero}
    .fil34 {fill:#36485A;fill-rule:nonzero}
    .fil13 {fill:#2D2E42;fill-rule:nonzero}
    .fil5 {fill:#383B6F;fill-rule:nonzero}
    .fil2 {fill:url(#id0)}
    .fil0 {fill:url(#id1)}
   ]]>
  </style>
  <linearGradient id="id0" gradientUnits="userSpaceOnUse" x1="93.42" y1="113.41" x2="38.46" y2="24.13">
   <stop offset="0" style="stop-opacity:1; stop-color:#E6E6E6"/>
   <stop offset="0.180392" style="stop-opacity:1; stop-color:#C7C7C7"/>
   <stop offset="1" style="stop-opacity:1; stop-color:#E6E6E6"/>
  </linearGradient>
  <linearGradient id="id1" gradientUnits="userSpaceOnUse" x1="28.18" y1="19.46" x2="107.09" y2="102.28">
   <stop offset="0" style="stop-opacity:1; stop-color:#E6E6E6"/>
   <stop offset="0.568627" style="stop-opacity:1; stop-color:#999999"/>
   <stop offset="1" style="stop-opacity:1; stop-color:#E6E6E6"/>
  </linearGradient>
 </defs>
 <g id="Capa_x0020_1">
  <metadata id="CorelCorpID_0Corel-Layer"/>
  <circle class="fil0" cx="64" cy="64" r="49.21"/>
  <path class="fil1" d="M64 0c17.67,0 33.67,7.16 45.25,18.75 11.59,11.58 18.75,27.58 18.75,45.25 0,17.67 -7.16,33.67 -18.75,45.25 -11.58,11.59 -27.58,18.75 -45.25,18.75 -17.67,0 -33.67,-7.16 -45.25,-18.75 -11.59,-11.58 -18.75,-27.58 -18.75,-45.25 0,-17.67 7.16,-33.67 18.75,-45.25 11.58,-11.59 27.58,-18.75 45.25,-18.75zm43.62 20.38c-11.17,-11.16 -26.59,-18.06 -43.62,-18.06 -17.03,0 -32.45,6.9 -43.62,18.06 -11.16,11.17 -18.06,26.59 -18.06,43.62 0,17.03 6.9,32.45 18.06,43.62 11.17,11.16 26.59,18.06 43.62,18.06 17.03,0 32.45,-6.9 43.62,-18.06 11.16,-11.17 18.06,-26.59 18.06,-43.62 0,-17.03 -6.9,-32.45 -18.06,-43.62z"/>
  <circle class="fil2" cx="64" cy="64" r="47.34"/>
  <path class="fil3" d="M80.16 72.63c0,2.28 -0.3,2.15 -2.58,2.15l-26.61 0c-2.28,0 -2.49,-0.21 -2.49,-2.5l0 -17.82c0,-2.28 0.47,-2.41 2.75,-2.41l25.57 -0.02c2.28,0 3.34,-0.46 3.34,1.82l0.02 18.78z"/>
  <path class="fil4" d="M76.46 73.42c-0.14,0 -0.3,0 -0.47,0l-23.42 0c-0.15,0 -0.28,0 -0.41,-0.01 0.48,-0.7 0.96,-1.38 1.3,-1.88 0.22,0.1 0.45,0.15 0.7,0.15 0.95,0 1.72,-0.77 1.72,-1.72l0 -12.83c0,-0.95 -0.77,-1.72 -1.72,-1.72 -0.95,0 -1.72,0.77 -1.72,1.72l0 11.42c-0.55,0.08 -1.04,0.32 -1.04,0.32l-1.03 1.18 0 -14.52c0,-2.01 0.42,-2.12 2.43,-2.12l22.51 -0.02c0.57,0 1.06,-0.04 1.46,-0.04 1,0 1.47,0.21 1.47,1.64l0.02 15.08 -1.03 -1.18c0,0 -0.1,-0.05 -0.26,-0.12l0 -0.23 -0.77 0c-0.14,-0.03 -0.28,-0.04 -0.42,-0.04 -0.12,0 -0.24,0.01 -0.36,0.04l-3.96 0 0 2.49 3.35 0c0.31,0.44 0.97,1.39 1.65,2.39z"/>
  <path class="fil5" d="M55.88 69.96c0,0.95 -0.77,1.72 -1.72,1.72 -0.95,0 -1.72,-0.77 -1.72,-1.72l0 -12.83c0,-0.95 0.77,-1.72 1.72,-1.72 0.95,0 1.72,0.77 1.72,1.72l0 12.83z"/>
  <polygon class="fil6" points="58.12,70.99 70.34,70.99 70.34,56.1 58.12,56.1 "/>
  <path class="fil7" d="M76.59 58.34l-4.78 0 0 -1.98 4.78 0 0 1.98zm-5.13 -2.24l0 2.5 5.51 0 0 -2.5 -5.51 0z"/>
  <polygon class="fil8" points="71.46,62.96 76.97,62.96 76.97,60.46 71.46,60.46 "/>
  <polygon class="fil8" points="71.46,67.49 76.97,67.49 76.97,64.99 71.46,64.99 "/>
  <polygon class="fil8" points="71.46,71.03 76.97,71.03 76.97,68.54 71.46,68.54 "/>
  <path class="fil9" d="M38.84 82.22l1.63 -7.41c0,0 0.09,-1.2 2.24,-3.36 2.15,-2.15 5.77,-6.84 5.77,-6.84l0 6.46 -1.64 3.01 4.56 -5.21c0,0 3.1,-1.56 2.61,1.89 0,0 -3.9,5.52 -3.98,5.95 -0.09,0.43 -0.18,2.66 -1.9,5.08 -1.72,2.4 -1.8,3.18 -1.8,3.18l-0.35 0.52 -7.14 -3.27z"/>
  <path class="fil5" d="M37.8 81.87l9.56 3.62c0,0 -5.12,15.7 -6.66,19.73 -3.3,-1.87 -6.36,-4.13 -9.11,-6.71l6.21 -16.64z"/>
  <path class="fil6" d="M47.36 85.49l-9.56 -3.62 -0.85 2.15 9.86 3.7c0.36,-1.31 0.55,-2.23 0.55,-2.23z"/>
  <path class="fil10" d="M53.59 71.07l-2.36 -1.73c0.63,-0.34 1.09,-0.47 1.44,-0.47 1.42,0 0.92,2.2 0.92,2.2z"/>
  <path class="fil11" d="M45.26 92.45c0,0 0,0 0,0 0,0 0,0 0,0zm0 -0.01c0,0 0,0 0.01,0 -0.01,0 -0.01,0 -0.01,0zm0.01 -0.01c0,0 0,0 0,0 0,0 0,0 0,0zm0.01 -0.02c0,0 0,0 0,0 0,0 0,0 0,0zm0 -0.01c0,0 0,0 0,0 0,0 0,0 0,0zm0 0c0.01,-0.01 0.01,-0.01 0.01,-0.01 0,0 0,0 -0.01,0.01zm0.01 -0.02c0,0 0,0 0,-0.01l0 0c0,0.01 0,0.01 0,0.01zm0.02 -0.04c0,0 0,0 0,0 0,0 0,0 0,0zm0 -0.01c0,-0.01 0,-0.01 0.01,-0.01 -0.01,0 -0.01,0 -0.01,0.01zm0.01 -0.02c0,0 0,-0.01 0,-0.01 0,0 0,0.01 0,0.01zm0.01 -0.02c0,0 0,-0.01 0,-0.01 0,0 0,0.01 0,0.01zm0 -0.02c0.01,0 0.01,0 0.01,-0.01 0,0.01 0,0.01 -0.01,0.01zm0.01 -0.02c0,0 0,0 0,0 0,0 0,0 0,0zm0.01 -0.01c0,-0.01 0,-0.01 0,-0.01 0,0 0,0 0,0.01zm0.01 -0.02c0,-0.01 0,-0.01 0,-0.01 0,0 0,0 0,0.01zm0 -0.02c0,0 0.01,-0.01 0.01,-0.01 0,0 -0.01,0.01 -0.01,0.01zm0.01 -0.02c0,0 0,-0.01 0,-0.01 0,0 0,0.01 0,0.01zm0.01 -0.01c0,-0.01 0,-0.01 0,-0.02 0,0.01 0,0.01 0,0.02zm0 -0.02c0.01,-0.01 0.01,-0.01 0.01,-0.02 0,0.01 0,0.01 -0.01,0.02zm0.01 -0.02c0,-0.01 0.01,-0.01 0.01,-0.02 0,0.01 -0.01,0.01 -0.01,0.02zm0.01 -0.02c0,-0.01 0,-0.01 0,-0.02 0,0.01 0,0.01 0,0.02zm0.01 -0.02c0,0 0,-0.01 0,-0.01 0,0 0,0.01 0,0.01zm0 -0.02c0.01,-0.01 0.01,-0.02 0.02,-0.04 -0.01,0.02 -0.01,0.03 -0.02,0.04zm0.02 -0.04c0.3,-0.77 0.57,-1.57 0.81,-2.33l0 0c-0.24,0.76 -0.51,1.56 -0.81,2.33z"/>
  <path class="fil12" d="M46.24 89.7l0 0c0.22,-0.71 0.41,-1.38 0.57,-1.98l0 0c-0.16,0.6 -0.35,1.27 -0.57,1.98zm0.7 -2.44c0.04,-0.18 0.08,-0.35 0.13,-0.51 0,0 0,0 0,0 0,-0.01 0,-0.01 0,-0.01 0.04,-0.19 0.09,-0.37 0.12,-0.52 -0.06,0.28 -0.15,0.64 -0.25,1.04zm0.41 -1.76c0.01,0 0.01,-0.01 0.01,-0.01l0 0c0,0 0,0 0,0l0 0c0,0 0,0 -0.01,0.01z"/>
  <path class="fil13" d="M35.82 102.05l5.88 -16.25 5.11 1.92c-0.16,0.6 -0.35,1.27 -0.57,1.98 -0.24,0.76 -5.22,14.72 -5.53,15.52 -1.7,-0.96 -3.33,-2.02 -4.89,-3.17zm11.25 -15.3c0,0 0,0 0,0 0,0 0,0 0,0zm0 -0.01c0.07,-0.3 0.13,-0.56 0.18,-0.76 -0.02,0.07 -0.04,0.15 -0.06,0.24 -0.03,0.15 -0.08,0.33 -0.12,0.52zm0.28 -1.24c0.01,0 0.01,-0.01 0.01,-0.01 0,0 0,0.01 -0.01,0.01l0 0zm0.01 -0.01c0,0 0,0 0,0l0 0c0,0 0,0 0,0z"/>
  <path class="fil7" d="M46.81 87.72l0 0 -5.11 -1.92 0.79 -2.15 4.87 1.84c0,0 0,0 0,0l0 0c0,0 0,0.01 -0.01,0.01 0,0.01 0,0.01 0,0.01 -0.01,0.05 -0.04,0.22 -0.1,0.47 -0.05,0.2 -0.11,0.46 -0.18,0.76 0,0 0,0 0,0.01 0,0 0,0 0,0 -0.05,0.16 -0.09,0.33 -0.13,0.51 -0.04,0.15 -0.08,0.3 -0.13,0.46z"/>
  <path class="fil9" d="M89.8 82.24l-1.63 -7.41c0,0 -0.09,-1.2 -2.24,-3.35 -2.16,-2.16 -5.77,-6.85 -5.77,-6.85l0 6.46 1.63 3.01 -4.56 -5.21c0,0 -3.16,-1.68 -2.6,1.89 0,0 3.89,5.52 3.98,5.95 0.08,0.43 0.17,2.67 1.89,5.08 1.72,2.41 1.81,3.18 1.81,3.18l0.34 0.52 7.15 -3.27z"/>
  <path class="fil13" d="M90.83 81.89l-9.55 3.62c0,0 3.93,15.39 5.5,20 3.42,-1.88 6.58,-4.17 9.41,-6.8l-5.36 -16.82z"/>
  <path class="fil7" d="M81.28 85.51l9.55 -3.62 0.85 2.15 -9.86 3.71c-0.35,-1.32 -0.54,-2.24 -0.54,-2.24z"/>
  <path class="fil10" d="M75.05 71.09c0,0 -0.51,-2.2 0.91,-2.2 0.35,0 0.82,0.13 1.44,0.47l-2.35 1.73z"/>
  <path class="fil11" d="M84.25 93.42c0,0 0,0 0,0 0,0 0,0 0,0zm-0.01 -0.01c0,0 0,0 0,0 0,0 0,0 0,0zm-0.01 -0.01c0,0 0,0 0,0 0,0 0,0 0,0zm-0.02 -0.01c0,0 0,0 0,0 0,0 0,0 0,0zm-0.01 -0.01c0,0 0,0 0,0 0,0 0,0 0,0zm-0.01 0c0,-0.01 0,-0.01 -0.01,-0.01 0.01,0 0.01,0 0.01,0.01zm-0.01 -0.01c-0.01,-0.01 -0.02,-0.01 -0.02,-0.02 0,0.01 0.01,0.01 0.02,0.02zm-0.03 -0.02c0,0 0,0 -0.01,-0.01 0.01,0.01 0.01,0.01 0.01,0.01zm-0.01 -0.01c-0.25,-0.18 -0.46,-0.38 -0.61,-0.61 0.15,0.23 0.36,0.43 0.61,0.61zm-0.62 -0.61c-0.01,-0.01 -0.01,-0.02 -0.02,-0.03 0.01,0.01 0.01,0.02 0.02,0.03zm-0.02 -0.03c0,-0.01 0,-0.01 -0.01,-0.01 0.01,0 0.01,0 0.01,0.01zm-0.01 -0.02c0,0 0,0 0,0 0,0 0,0 0,0zm0 -0.01c-0.01,0 -0.01,-0.01 -0.02,-0.02 0.01,0.01 0.01,0.02 0.02,0.02zm-0.02 -0.02c0,0 0,-0.01 0,-0.01 0,0 0,0.01 0,0.01zm0 -0.01c-0.01,0 -0.01,-0.01 -0.01,-0.01 0,0 0,0.01 0.01,0.01zm-0.01 -0.01c0,0 0,-0.01 -0.01,-0.01 0.01,0 0.01,0.01 0.01,0.01zm-0.01 -0.01c0,-0.01 0,-0.01 0,-0.01 0,0 0,0 0,0.01zm-0.01 -0.02c0,0 0,0 0,0 0,0 0,0 0,0zm0 -0.01c0,0 -0.01,0 -0.01,0 0,0 0.01,0 0.01,0zm-0.01 -0.01c0,0 0,0 0,-0.01 0,0.01 0,0.01 0,0.01zm0 -0.01c-0.01,0 -0.01,0 -0.01,-0.01 0,0.01 0,0.01 0.01,0.01zm-0.01 -0.01c0,0 0,-0.01 0,-0.01 0,0 0,0.01 0,0.01zm-0.01 -0.01c0,0 0,-0.01 0,-0.01 0,0 0,0.01 0,0.01zm0 -0.01c0,-0.01 0,-0.01 -0.01,-0.01 0.01,0 0.01,0 0.01,0.01zm-0.01 -0.02c0,0 0,0 0,0 0,0 0,0 0,0zm0 -0.01c0,0 -0.01,0 -0.01,0 0,0 0.01,0 0.01,0zm-0.01 -0.01c0,0 0,0 -0.01,-0.01 0.01,0.01 0.01,0.01 0.01,0.01zm-0.01 -0.01c0,0 0,-0.01 0,-0.01 0,0 0,0.01 0,0.01zm0 -0.01c0,-0.01 -0.01,-0.01 -0.01,-0.01 0,0 0.01,0 0.01,0.01zm-0.01 -0.02c0,0 0,0 0,0 0,0 0,0 0,0zm0 -0.01c0,0 -0.01,0 -0.01,-0.01 0,0.01 0.01,0.01 0.01,0.01zm-0.01 -0.01c0,0 0,0 0,-0.01 0,0.01 0,0.01 0,0.01zm0 -0.01c0,0 -0.01,-0.01 -0.01,-0.01 0,0 0.01,0.01 0.01,0.01zm-0.01 -0.01c0,-0.01 0,-0.01 0,-0.01 0,0 0,0 0,0.01zm0 -0.01c0,-0.01 -0.01,-0.01 -0.01,-0.01l0 0c0,0 0.01,0 0.01,0.01zm-0.02 -0.05c0,0 0,0 0,0 0,0 0,0 0,0zm-0.01 -0.02c0,0 0,0 0,0 0,0 0,0 0,0zm-0.01 -0.01c0,0 0,-0.01 0,-0.01 0,0 0,0.01 0,0.01zm0 -0.02c0,0 0,0 -0.01,-0.01 0.01,0.01 0.01,0.01 0.01,0.01zm-0.01 -0.02c0,0 0,0 0,-0.01 0,0.01 0,0.01 0,0.01zm-0.01 -0.01c0,-0.01 0,-0.01 0,-0.01 0,0 0,0 0,0.01zm0 -0.02c0,-0.01 0,-0.01 -0.01,-0.01 0.01,0 0.01,0 0.01,0.01zm-0.01 -0.02c0,0 0,-0.01 0,-0.01 0,0 0,0.01 0,0.01zm-0.01 -0.02c0,0 0,-0.01 0,-0.01 0,0 0,0.01 0,0.01zm0 -0.02c0,0 -0.01,0 -0.01,-0.01 0,0.01 0.01,0.01 0.01,0.01zm-0.01 -0.02c0,0 -0.01,0 -0.01,0 0,0 0.01,0 0.01,0zm-0.01 -0.01c0,-0.01 0,-0.01 0,-0.01 0,0 0,0 0,0.01zm0 -0.02c-0.01,-0.01 -0.01,-0.01 -0.01,-0.01 0,0 0,0 0.01,0.01zm-0.01 -0.02c-0.01,0 -0.01,-0.01 -0.01,-0.01 0,0 0,0.01 0.01,0.01zm-0.01 -0.02c0,0 0,-0.01 -0.01,-0.01 0.01,0 0.01,0.01 0.01,0.01zm-0.01 -0.02c-0.48,-1.22 -0.88,-2.49 -1.19,-3.59l0 0c0.31,1.1 0.72,2.37 1.19,3.59z"/>
  <path class="fil12" d="M82.03 88.5c-0.45,-1.58 -0.71,-2.8 -0.75,-2.97 0,-0.01 0,-0.02 0,-0.02 0,0.03 0.1,0.51 0.29,1.25 0,0 0,0 0,0.01 0,0 0,0 0,0 0.07,0.29 0.16,0.62 0.25,0.98l0 0c0.07,0.23 0.14,0.48 0.21,0.75l0 0zm-0.75 -2.99l1.1 -0.42 0 0 -1.1 0.42z"/>
  <polygon class="fil14" points="82.38,85.09 82.38,85.09 86.14,83.67 "/>
  <path class="fil5" d="M86.79 105.5c-0.86,-2.7 -4.47,-15.97 -4.76,-17 -0.07,-0.27 -0.14,-0.52 -0.21,-0.76l5.12 -1.91 5.02 16.37c-1.64,1.21 -3.37,2.31 -5.17,3.3zm-5.22 -18.73c0,0 0,0 0,0 0,0 0,0 0,0zm0 -0.01c-0.19,-0.74 -0.29,-1.22 -0.29,-1.25l0 0c0,0.03 0.1,0.51 0.29,1.25z"/>
  <path class="fil6" d="M81.82 87.75c-0.09,-0.36 -0.18,-0.69 -0.25,-0.98 0,0 0,0 0,0 0,-0.01 0,-0.01 0,-0.01 -0.19,-0.74 -0.29,-1.22 -0.29,-1.25 0,0 0,0 0,0l0 0 4.86 -1.84 0.8 2.16 -5.12 1.92z"/>
  <path class="fil15" d="M38.52 42.51c0,0 0.01,-0.01 0.01,-0.01l5.06 -6.17c0.19,-0.24 0.16,-0.59 -0.08,-0.79l-0.65 -0.53c-0.24,-0.2 -0.59,-0.16 -0.79,0.08l-5.05 6.17c-0.01,0 -0.01,0.01 -0.02,0.02 -1.16,-0.43 -2.51,-0.11 -3.33,0.9 -0.8,0.97 -0.88,2.29 -0.32,3.33l1.94 -2.36c0.19,-0.24 0.54,-0.27 0.78,-0.08l0.87 0.71c0.24,0.2 0.27,0.55 0.08,0.79l-1.93 2.35c1.12,0.35 2.4,0.02 3.19,-0.95 0.83,-1.01 0.88,-2.4 0.24,-3.46z"/>
  <path class="fil16" d="M33.17 45.09c0,0 0,-0.01 0,-0.01l0 0c0,0 0,0.01 0,0.01z"/>
  <path class="fil17" d="M35.63 47.04c-0.19,-0.02 -0.37,-0.06 -0.54,-0.12l0 0 1.93 -2.35c0.08,-0.11 0.12,-0.23 0.12,-0.36 0,-0.16 -0.07,-0.32 -0.2,-0.43l-0.87 -0.71c-0.1,-0.08 -0.23,-0.12 -0.35,-0.12 -0.16,0 -0.32,0.06 -0.43,0.2l-1.94 2.36 0 0c-0.07,-0.14 -0.13,-0.28 -0.18,-0.42 0,0 0,-0.01 0,-0.01l2.12 -2.59c0.11,-0.13 0.27,-0.2 0.43,-0.2 0.13,0 0.25,0.04 0.36,0.12l1.56 1.28c0.24,0.2 0.28,0.55 0.08,0.79l-2.09 2.56z"/>
  <path class="fil17" d="M37.88 42.26c-0.12,0 -0.23,-0.04 -0.33,-0.11 -0.23,-0.2 -0.25,-0.58 -0.02,-0.85l5.21 -6.36c0.04,0.02 0.08,0.04 0.12,0.07l0.65 0.53c0.03,0.03 0.07,0.07 0.09,0.1l-5.21 6.37c-0.13,0.16 -0.32,0.25 -0.51,0.25zm4.76 -6.75c-0.13,0 -0.27,0.06 -0.36,0.17 -0.16,0.19 -0.13,0.48 0.07,0.64 0.08,0.07 0.19,0.11 0.29,0.11 0.13,0 0.26,-0.06 0.36,-0.17 0.16,-0.2 0.13,-0.49 -0.07,-0.65 -0.08,-0.07 -0.19,-0.1 -0.29,-0.1z"/>
  <path class="fil18" d="M42.64 36.43c-0.1,0 -0.21,-0.04 -0.29,-0.11 -0.2,-0.16 -0.23,-0.45 -0.07,-0.64 0.09,-0.11 0.23,-0.17 0.36,-0.17 0.1,0 0.21,0.03 0.29,0.1 0.2,0.16 0.23,0.45 0.07,0.65 -0.1,0.11 -0.23,0.17 -0.36,0.17z"/>
  <path class="fil5" d="M43.38 41.54c0,0.01 -0.01,0.01 -0.02,0.02l-4.89 6.29c-0.19,0.25 -0.15,0.6 0.1,0.79l0.66 0.51c0.24,0.19 0.59,0.15 0.79,-0.1l4.89 -6.29c0,0 0.01,-0.01 0.01,-0.02 1.17,0.4 2.52,0.04 3.32,-0.99 0.77,-0.99 0.82,-2.31 0.22,-3.33l-1.87 2.4c-0.19,0.25 -0.54,0.29 -0.78,0.1l-0.88 -0.69c-0.25,-0.18 -0.29,-0.54 -0.1,-0.78l1.87 -2.4c-1.14,-0.33 -2.4,0.05 -3.17,1.03 -0.8,1.04 -0.82,2.43 -0.15,3.46z"/>
  <g>
   <path class="fil16" d="M48.66 38.84c-0.05,-0.15 -0.12,-0.28 -0.2,-0.42 0.08,0.14 0.15,0.27 0.2,0.42l0 0 0 0zm-1.98 -1.8c0,0 0,0 0,0 0,0 0,0 0,0zm-0.01 0c0,0 -0.01,0 -0.01,0 0,0 0.01,0 0.01,0zm-0.02 -0.01c0,0 0,0 -0.01,0 0.01,0 0.01,0 0.01,0zm-0.01 0c-0.01,0 -0.01,0 -0.01,0 0,0 0,0 0.01,0zm-0.02 0c0,-0.01 0,-0.01 -0.01,-0.01 0.01,0 0.01,0 0.01,0.01zm-0.02 -0.01l0 0 0 0zm-0.02 0c0,0 0,0 0,0 0,0 0,0 0,0z"/>
  </g>
  <path class="fil13" d="M46.16 41.7c-0.12,0 -0.24,-0.04 -0.34,-0.12l-1.59 -1.24c-0.25,-0.19 -0.29,-0.54 -0.1,-0.79l2.03 -2.6c0.14,0.01 0.28,0.03 0.42,0.07 0,0 0,0 0,0 0.01,0 0.01,0 0.02,0l0 0c0,0 0.01,0 0.01,0 0.01,0 0.01,0 0.01,0.01 0,0 0,0 0.01,0 0,0 0,0 0.01,0 0,0 0,0 0,0 0.01,0 0.01,0 0.01,0 0.01,0.01 0.01,0.01 0.01,0.01 0,0 0.01,0 0.01,0 0,0 0.01,0 0.01,0 0,0 0,0 0,0 0.01,0 0.01,0.01 0.02,0.01l-1.87 2.4c-0.08,0.1 -0.12,0.22 -0.12,0.35 0,0.16 0.08,0.33 0.22,0.43l0.88 0.69c0.1,0.08 0.22,0.12 0.34,0.12 0.17,0 0.33,-0.07 0.44,-0.22l1.87 -2.4 0 0c0.08,0.14 0.15,0.27 0.2,0.42l-2.05 2.64c-0.11,0.14 -0.28,0.22 -0.45,0.22z"/>
  <path class="fil19" d="M39.23 49.15l0 0 -0.66 -0.51c0,0 -0.01,-0.01 -0.01,-0.01 0,0 0.01,0.01 0.01,0.01l0.66 0.51 0 0zm-0.67 -0.52c0,0 0,0 0,0 0,0 0,0 0,0z"/>
  <path class="fil13" d="M39.35 49.22c-0.04,-0.01 -0.08,-0.04 -0.12,-0.07l0 0 -0.66 -0.51c0,0 -0.01,-0.01 -0.01,-0.01 0,0 0,0 0,0 0,0 0,0 0,0 -0.04,-0.03 -0.07,-0.06 -0.09,-0.09l5.05 -6.49c0.13,-0.18 0.33,-0.27 0.52,-0.27 0.11,0 0.22,0.03 0.31,0.1 0.25,0.19 0.27,0.57 0.05,0.85l-5.05 6.49zm0.08 -1.49c-0.14,0 -0.28,0.06 -0.37,0.18 -0.16,0.2 -0.12,0.49 0.08,0.64 0.09,0.07 0.19,0.1 0.28,0.1 0.14,0 0.28,-0.06 0.37,-0.18 0.16,-0.2 0.12,-0.49 -0.08,-0.64 -0.09,-0.07 -0.19,-0.1 -0.28,-0.1z"/>
  <path class="fil5" d="M39.42 48.65c-0.09,0 -0.19,-0.03 -0.28,-0.1 -0.2,-0.15 -0.24,-0.44 -0.08,-0.64 0.09,-0.12 0.23,-0.18 0.37,-0.18 0.09,0 0.19,0.03 0.28,0.1 0.2,0.15 0.24,0.44 0.08,0.64 -0.09,0.12 -0.23,0.18 -0.37,0.18z"/>
  <path class="fil20" d="M60.55 38.85c0,0 0.38,-1.95 0.49,-1.95 0.1,0 0.48,0.05 2.06,0.45 1.57,0.41 2.91,0.75 2.91,0.75 0,0 0.58,0.17 0.72,-0.23 0.14,-0.39 0.07,-0.39 0.86,-0.18 0.79,0.2 1.99,0.55 1.99,0.55 0,0 0.38,0.13 0.38,0.41 0,0.27 0,0.48 0,0.48l1.24 0.31c0,0 0.48,0.1 0.24,0.92 -0.24,0.83 -2.96,10.3 -2.96,10.3l-7.93 -11.81z"/>
  <path class="fil15" d="M60.35 38.65c0,0 0.38,-1.96 0.48,-1.96 0.1,0 0.48,0.06 2.06,0.46 1.58,0.4 2.91,0.74 2.91,0.74 0,0 0.59,0.17 0.73,-0.22 0.13,-0.4 0.06,-0.4 0.85,-0.19 0.79,0.21 1.99,0.55 1.99,0.55 0,0 0.38,0.14 0.38,0.41 0,0.28 0,0.48 0,0.48l1.24 0.31c0,0 0.48,0.1 0.24,0.93 -0.24,0.82 -2.95,10.29 -2.95,10.29l-7.93 -11.8z"/>
  <path class="fil21" d="M68.69 49.95l-1.96 -9.24c0,0 0.11,-0.42 -0.55,-0.65 -0.65,-0.25 -1.03,-0.28 -1.03,-0.28 0,0 0.12,-0.69 -0.59,-0.89 -0.71,-0.21 -2.81,-0.86 -2.81,-0.86l-0.3 0.21 0 0.23 -4.09 -1.26 -0.4 0.14 2.39 8.75 9.13 4.56 0.21 -0.71z"/>
  <path class="fil6" d="M68.48 50.66l-2.06 -9.75c0,0 0.11,-0.41 -0.54,-0.65 -0.66,-0.24 -1.04,-0.27 -1.04,-0.27 0,0 0.12,-0.69 -0.59,-0.9 -0.71,-0.2 -2.8,-0.85 -2.8,-0.85l-0.31 0.44 -4.09 -1.27c0,0 -0.2,-0.34 0,0.65 0.21,1 2,8.24 2,8.24l9.43 4.36z"/>
  <path class="fil22" d="M90.39 45.24c0,0.38 -0.31,0.69 -0.69,0.69l-7.99 0c-0.39,0 -0.69,-0.31 -0.69,-0.69l0 -9.96c0,-0.38 0.3,-0.69 0.69,-0.69l7.99 0c0.38,0 0.69,0.31 0.69,0.69l0 9.96z"/>
  <path class="fil23" d="M85.7 37.6l-4.68 0 0 -2.32c0,-0.38 0.3,-0.69 0.69,-0.69l7.99 0c0.38,0 0.69,0.31 0.69,0.69l0 0c0,-0.38 -0.34,-0.69 -0.77,-0.69l-3.92 0 0 0.89 -3.89 0 0 1.52 3.89 0 0 0.6z"/>
  <polygon class="fil5" points="81.81,37 89.6,37 89.6,35.48 81.81,35.48 "/>
  <path class="fil5" d="M83.16 38.42c0,0.17 -0.14,0.31 -0.32,0.31l-0.49 0c-0.17,0 -0.31,-0.14 -0.31,-0.31 0,-0.17 0.14,-0.31 0.31,-0.31l0.49 0c0.18,0 0.32,0.14 0.32,0.31z"/>
  <path class="fil5" d="M84.58 38.44c0,0.17 -0.15,0.31 -0.32,0.31l-0.49 0c-0.17,0 -0.31,-0.14 -0.31,-0.31 0,-0.17 0.14,-0.31 0.31,-0.31l0.49 0c0.17,0 0.32,0.14 0.32,0.31z"/>
  <path class="fil5" d="M86.03 38.44c0,0.17 -0.14,0.31 -0.32,0.31l-0.49 0c-0.17,0 -0.3,-0.14 -0.3,-0.31 0,-0.17 0.13,-0.31 0.3,-0.31l0.49 0c0.18,0 0.32,0.14 0.32,0.31z"/>
  <path class="fil5" d="M88.43 40.13c0,0.28 -0.23,0.51 -0.51,0.51l-0.8 0c-0.29,0 -0.51,-0.23 -0.51,-0.51 0,-0.29 0.22,-0.51 0.51,-0.51l0.8 0c0.28,0 0.51,0.22 0.51,0.51z"/>
  <path class="fil5" d="M88.43 41.74c0,0.28 -0.23,0.51 -0.51,0.51l-0.8 0c-0.29,0 -0.51,-0.23 -0.51,-0.51 0,-0.28 0.22,-0.51 0.51,-0.51l0.8 0c0.28,0 0.51,0.23 0.51,0.51z"/>
  <path class="fil5" d="M88.43 43.32c0,0.28 -0.23,0.51 -0.51,0.51l-0.8 0c-0.29,0 -0.51,-0.23 -0.51,-0.51 0,-0.28 0.22,-0.51 0.51,-0.51l0.8 0c0.28,0 0.51,0.23 0.51,0.51z"/>
  <path class="fil5" d="M88.43 44.89c0,0.29 -0.23,0.51 -0.51,0.51l-0.8 0c-0.29,0 -0.51,-0.22 -0.51,-0.51 0,-0.28 0.22,-0.51 0.51,-0.51l0.8 0c0.28,0 0.51,0.23 0.51,0.51z"/>
  <path class="fil24" d="M87.46 38.42c0,0.17 -0.14,0.31 -0.31,0.31l-0.49 0c-0.18,0 -0.31,-0.14 -0.31,-0.31 0,-0.17 0.13,-0.31 0.31,-0.31l0.49 0c0.17,0 0.31,0.14 0.31,0.31z"/>
  <path class="fil13" d="M89.79 40.13c0,0.17 -0.14,0.31 -0.31,0.31l-0.49 0c-0.18,0 -0.32,-0.14 -0.32,-0.31 0,-0.18 0.14,-0.31 0.32,-0.31l0.49 0c0.17,0 0.31,0.13 0.31,0.31z"/>
  <path class="fil13" d="M89.74 41.77c0,0.17 -0.14,0.31 -0.31,0.31l-0.49 0c-0.17,0 -0.31,-0.14 -0.31,-0.31 0,-0.18 0.14,-0.32 0.31,-0.32l0.49 0c0.17,0 0.31,0.14 0.31,0.32z"/>
  <path class="fil13" d="M89.79 43.32c0,0.17 -0.14,0.31 -0.31,0.31l-0.49 0c-0.18,0 -0.32,-0.14 -0.32,-0.31 0,-0.17 0.14,-0.31 0.32,-0.31l0.49 0c0.17,0 0.31,0.14 0.31,0.31z"/>
  <path class="fil25" d="M89.79 44.89c0,0.18 -0.14,0.31 -0.31,0.31l-0.49 0c-0.18,0 -0.32,-0.13 -0.32,-0.31 0,-0.17 0.14,-0.31 0.32,-0.31l0.49 0c0.17,0 0.31,0.14 0.31,0.31z"/>
  <path class="fil26" d="M88.37 38.27c0,0.09 -0.07,0.17 -0.16,0.17l-0.27 0c-0.09,0 -0.16,-0.08 -0.16,-0.17 0,-0.09 0.07,-0.16 0.16,-0.16l0.27 0c0.09,0 0.16,0.07 0.16,0.16z"/>
  <path class="fil27" d="M89.18 38.27c0,0.09 -0.07,0.17 -0.16,0.17l-0.26 0c-0.1,0 -0.17,-0.08 -0.17,-0.17 0,-0.09 0.07,-0.16 0.17,-0.16l0.26 0c0.09,0 0.16,0.07 0.16,0.16z"/>
  <path class="fil28" d="M89.96 38.27c0,0.09 -0.08,0.17 -0.17,0.17l-0.26 0c-0.09,0 -0.17,-0.08 -0.17,-0.17 0,-0.09 0.08,-0.16 0.17,-0.16l0.26 0c0.09,0 0.17,0.07 0.17,0.16z"/>
  <path class="fil29" d="M82.87 40.13c0,0.26 -0.22,0.48 -0.49,0.48 -0.26,0 -0.48,-0.22 -0.48,-0.48 0,-0.27 0.22,-0.49 0.48,-0.49 0.27,0 0.49,0.22 0.49,0.49z"/>
  <path class="fil29" d="M82.87 41.77c0,0.26 -0.22,0.48 -0.49,0.48 -0.26,0 -0.48,-0.22 -0.48,-0.48 0,-0.27 0.22,-0.49 0.48,-0.49 0.27,0 0.49,0.22 0.49,0.49z"/>
  <path class="fil29" d="M82.87 43.32c0,0.26 -0.22,0.48 -0.49,0.48 -0.26,0 -0.48,-0.22 -0.48,-0.48 0,-0.27 0.22,-0.48 0.48,-0.48 0.27,0 0.49,0.21 0.49,0.48z"/>
  <path class="fil29" d="M82.87 44.92c0,0.26 -0.22,0.48 -0.49,0.48 -0.26,0 -0.48,-0.22 -0.48,-0.48 0,-0.27 0.22,-0.48 0.48,-0.48 0.27,0 0.49,0.21 0.49,0.48z"/>
  <path class="fil29" d="M84.44 41.77c0,0.26 -0.22,0.48 -0.48,0.48 -0.27,0 -0.48,-0.22 -0.48,-0.48 0,-0.27 0.21,-0.49 0.48,-0.49 0.26,0 0.48,0.22 0.48,0.49z"/>
  <path class="fil29" d="M84.44 43.32c0,0.26 -0.22,0.48 -0.48,0.48 -0.27,0 -0.48,-0.22 -0.48,-0.48 0,-0.27 0.21,-0.48 0.48,-0.48 0.26,0 0.48,0.21 0.48,0.48z"/>
  <path class="fil29" d="M84.44 44.92c0,0.26 -0.22,0.48 -0.48,0.48 -0.27,0 -0.48,-0.22 -0.48,-0.48 0,-0.27 0.21,-0.48 0.48,-0.48 0.26,0 0.48,0.21 0.48,0.48z"/>
  <path class="fil29" d="M86.03 41.74c0,0.27 -0.22,0.48 -0.48,0.48 -0.27,0 -0.49,-0.21 -0.49,-0.48 0,-0.27 0.22,-0.48 0.49,-0.48 0.26,0 0.48,0.21 0.48,0.48z"/>
  <path class="fil29" d="M86.03 43.29c0,0.27 -0.22,0.48 -0.48,0.48 -0.27,0 -0.49,-0.21 -0.49,-0.48 0,-0.26 0.22,-0.48 0.49,-0.48 0.26,0 0.48,0.22 0.48,0.48z"/>
  <path class="fil29" d="M86.03 44.89c0,0.27 -0.22,0.49 -0.48,0.49 -0.27,0 -0.49,-0.22 -0.49,-0.49 0,-0.26 0.22,-0.48 0.49,-0.48 0.26,0 0.48,0.22 0.48,0.48z"/>
  <path class="fil29" d="M84.44 40.13c0,0.26 -0.22,0.48 -0.48,0.48 -0.27,0 -0.48,-0.22 -0.48,-0.48 0,-0.27 0.21,-0.49 0.48,-0.49 0.26,0 0.48,0.22 0.48,0.49z"/>
  <path class="fil29" d="M86.03 40.13c0,0.26 -0.22,0.48 -0.48,0.48 -0.27,0 -0.49,-0.22 -0.49,-0.48 0,-0.27 0.22,-0.49 0.49,-0.49 0.26,0 0.48,0.22 0.48,0.49z"/>
  <path class="fil30" d="M89.62 45.93l-3.92 0 0 -0.58c0.19,-0.06 0.33,-0.24 0.33,-0.46 0,-0.21 -0.14,-0.39 -0.33,-0.45l0 -0.69c0.19,-0.07 0.33,-0.25 0.33,-0.46 0,-0.21 -0.14,-0.39 -0.33,-0.45l0 -0.64c0.19,-0.07 0.33,-0.25 0.33,-0.46 0,-0.21 -0.14,-0.39 -0.33,-0.46l0 -0.7c0.19,-0.06 0.33,-0.24 0.33,-0.45 0,-0.22 -0.14,-0.39 -0.33,-0.46l0 -0.92 0.01 0c0.18,0 0.32,-0.14 0.32,-0.31 0,-0.17 -0.14,-0.31 -0.32,-0.31l-0.01 0 0 -0.53 4.69 0 0 7.64c0,0.38 -0.34,0.69 -0.77,0.69zm-2.5 -1.55c-0.29,0 -0.51,0.23 -0.51,0.51 0,0.29 0.22,0.51 0.51,0.51l0.8 0c0.28,0 0.51,-0.22 0.51,-0.51 0,-0.28 -0.23,-0.51 -0.51,-0.51l-0.8 0zm1.87 0.2c-0.18,0 -0.32,0.14 -0.32,0.31 0,0.18 0.14,0.31 0.32,0.31l0.49 0c0.17,0 0.31,-0.13 0.31,-0.31 0,-0.17 -0.14,-0.31 -0.31,-0.31l-0.49 0zm-1.87 -1.77c-0.29,0 -0.51,0.23 -0.51,0.51 0,0.28 0.22,0.51 0.51,0.51l0.8 0c0.28,0 0.51,-0.23 0.51,-0.51 0,-0.28 -0.23,-0.51 -0.51,-0.51l-0.8 0zm1.87 0.2c-0.18,0 -0.32,0.14 -0.32,0.31 0,0.17 0.14,0.31 0.32,0.31l0.49 0c0.17,0 0.31,-0.14 0.31,-0.31 0,-0.17 -0.14,-0.31 -0.31,-0.31l-0.49 0zm-1.87 -1.78c-0.29,0 -0.51,0.23 -0.51,0.51 0,0.28 0.22,0.51 0.51,0.51l0.8 0c0.28,0 0.51,-0.23 0.51,-0.51 0,-0.28 -0.23,-0.51 -0.51,-0.51l-0.8 0zm1.82 0.22c-0.17,0 -0.31,0.14 -0.31,0.32 0,0.17 0.14,0.31 0.31,0.31l0.49 0c0.17,0 0.31,-0.14 0.31,-0.31 0,-0.18 -0.14,-0.32 -0.31,-0.32l-0.49 0zm-1.82 -1.83c-0.29,0 -0.51,0.22 -0.51,0.51 0,0.28 0.22,0.51 0.51,0.51l0.8 0c0.28,0 0.51,-0.23 0.51,-0.51 0,-0.29 -0.23,-0.51 -0.51,-0.51l-0.8 0zm1.87 0.2c-0.18,0 -0.32,0.13 -0.32,0.31 0,0.17 0.14,0.31 0.32,0.31l0.49 0c0.17,0 0.31,-0.14 0.31,-0.31 0,-0.18 -0.14,-0.31 -0.31,-0.31l-0.49 0zm-2.33 -1.71c-0.18,0 -0.31,0.14 -0.31,0.31 0,0.17 0.13,0.31 0.31,0.31l0.49 0c0.17,0 0.31,-0.14 0.31,-0.31 0,-0.17 -0.14,-0.31 -0.31,-0.31l-0.49 0zm2.87 0c-0.09,0 -0.17,0.07 -0.17,0.16 0,0.09 0.08,0.17 0.17,0.17l0.26 0c0.09,0 0.17,-0.08 0.17,-0.17 0,-0.09 -0.08,-0.16 -0.17,-0.16l-0.26 0zm-0.77 0c-0.1,0 -0.17,0.07 -0.17,0.16 0,0.09 0.07,0.17 0.17,0.17l0.26 0c0.09,0 0.16,-0.08 0.16,-0.17 0,-0.09 -0.07,-0.16 -0.16,-0.16l-0.26 0zm-0.82 0c-0.09,0 -0.16,0.07 -0.16,0.16 0,0.09 0.07,0.17 0.16,0.17l0.27 0c0.09,0 0.16,-0.08 0.16,-0.17 0,-0.09 -0.07,-0.16 -0.16,-0.16l-0.27 0z"/>
  <path class="fil31" d="M90.39 37.6l-4.69 0 0 -0.6 3.9 0 0 -1.52 -3.9 0 0 -0.89 3.92 0c0.43,0 0.77,0.31 0.77,0.69l0 2.32z"/>
  <polygon class="fil13" points="85.7,37 89.6,37 89.6,35.48 85.7,35.48 "/>
  <path class="fil13" d="M85.71 38.75l-0.01 0 0 -0.62 0.01 0c0.18,0 0.32,0.14 0.32,0.31 0,0.17 -0.14,0.31 -0.32,0.31z"/>
  <path class="fil5" d="M87.92 40.64l-0.8 0c-0.29,0 -0.51,-0.23 -0.51,-0.51 0,-0.29 0.22,-0.51 0.51,-0.51l0.8 0c0.28,0 0.51,0.22 0.51,0.51 0,0.28 -0.23,0.51 -0.51,0.51z"/>
  <path class="fil5" d="M87.92 42.25l-0.8 0c-0.29,0 -0.51,-0.23 -0.51,-0.51 0,-0.28 0.22,-0.51 0.51,-0.51l0.8 0c0.28,0 0.51,0.23 0.51,0.51 0,0.28 -0.23,0.51 -0.51,0.51z"/>
  <path class="fil5" d="M87.92 43.83l-0.8 0c-0.29,0 -0.51,-0.23 -0.51,-0.51 0,-0.28 0.22,-0.51 0.51,-0.51l0.8 0c0.28,0 0.51,0.23 0.51,0.51 0,0.28 -0.23,0.51 -0.51,0.51z"/>
  <path class="fil5" d="M87.92 45.4l-0.8 0c-0.29,0 -0.51,-0.22 -0.51,-0.51 0,-0.28 0.22,-0.51 0.51,-0.51l0.8 0c0.28,0 0.51,0.23 0.51,0.51 0,0.29 -0.23,0.51 -0.51,0.51z"/>
  <path class="fil13" d="M87.15 38.73l-0.49 0c-0.18,0 -0.31,-0.14 -0.31,-0.31 0,-0.17 0.13,-0.31 0.31,-0.31l0.49 0c0.17,0 0.31,0.14 0.31,0.31 0,0.17 -0.14,0.31 -0.31,0.31z"/>
  <path class="fil13" d="M89.48 40.44l-0.49 0c-0.18,0 -0.32,-0.14 -0.32,-0.31 0,-0.18 0.14,-0.31 0.32,-0.31l0.49 0c0.17,0 0.31,0.13 0.31,0.31 0,0.17 -0.14,0.31 -0.31,0.31z"/>
  <path class="fil13" d="M89.43 42.08l-0.49 0c-0.17,0 -0.31,-0.14 -0.31,-0.31 0,-0.18 0.14,-0.32 0.31,-0.32l0.49 0c0.17,0 0.31,0.14 0.31,0.32 0,0.17 -0.14,0.31 -0.31,0.31z"/>
  <path class="fil13" d="M89.48 43.63l-0.49 0c-0.18,0 -0.32,-0.14 -0.32,-0.31 0,-0.17 0.14,-0.31 0.32,-0.31l0.49 0c0.17,0 0.31,0.14 0.31,0.31 0,0.17 -0.14,0.31 -0.31,0.31z"/>
  <path class="fil6" d="M89.48 45.2l-0.49 0c-0.18,0 -0.32,-0.13 -0.32,-0.31 0,-0.17 0.14,-0.31 0.32,-0.31l0.49 0c0.17,0 0.31,0.14 0.31,0.31 0,0.18 -0.14,0.31 -0.31,0.31z"/>
  <path class="fil32" d="M88.21 38.44l-0.27 0c-0.09,0 -0.16,-0.08 -0.16,-0.17 0,-0.09 0.07,-0.16 0.16,-0.16l0.27 0c0.09,0 0.16,0.07 0.16,0.16 0,0.09 -0.07,0.17 -0.16,0.17z"/>
  <path class="fil7" d="M89.02 38.44l-0.26 0c-0.1,0 -0.17,-0.08 -0.17,-0.17 0,-0.09 0.07,-0.16 0.17,-0.16l0.26 0c0.09,0 0.16,0.07 0.16,0.16 0,0.09 -0.07,0.17 -0.16,0.17z"/>
  <path class="fil8" d="M89.79 38.44l-0.26 0c-0.09,0 -0.17,-0.08 -0.17,-0.17 0,-0.09 0.08,-0.16 0.17,-0.16l0.26 0c0.09,0 0.17,0.07 0.17,0.16 0,0.09 -0.08,0.17 -0.17,0.17z"/>
  <path class="fil33" d="M85.7 42.2l0 -0.92c0.19,0.07 0.33,0.25 0.33,0.46 0,0.21 -0.14,0.39 -0.33,0.46z"/>
  <path class="fil33" d="M85.7 43.75l0 -0.91c0.19,0.06 0.33,0.24 0.33,0.45 0,0.21 -0.14,0.39 -0.33,0.46z"/>
  <path class="fil33" d="M85.7 45.35l0 -0.91c0.19,0.06 0.33,0.24 0.33,0.45 0,0.22 -0.14,0.4 -0.33,0.46z"/>
  <path class="fil33" d="M85.7 40.58l0 -0.91c0.19,0.07 0.33,0.24 0.33,0.46 0,0.21 -0.14,0.39 -0.33,0.45z"/>
  <path class="fil34" d="M39.76 57.01c0,0.06 -0.05,0.11 -0.11,0.11 -0.06,0 -0.11,-0.05 -0.11,-0.11l0 -0.7c0,-0.06 0.05,-0.1 0.11,-0.1 0.06,0 0.11,0.04 0.11,0.1l0 0.7z"/>
  <path class="fil34" d="M39.76 58.18c0,0.06 -0.05,0.11 -0.11,0.11 -0.06,0 -0.11,-0.05 -0.11,-0.11l0 -0.69c0,-0.06 0.05,-0.11 0.11,-0.11 0.06,0 0.11,0.05 0.11,0.11l0 0.69z"/>
  <path class="fil34" d="M45.75 58.05c0,0.06 -0.05,0.11 -0.11,0.11 -0.06,0 -0.1,-0.05 -0.1,-0.11l0 -0.69c0,-0.06 0.04,-0.11 0.1,-0.11 0.06,0 0.11,0.05 0.11,0.11l0 0.69z"/>
  <path class="fil3" d="M45.65 64.83c0,0.32 -0.26,0.58 -0.58,0.58l-4.82 0c-0.31,0 -0.57,-0.26 -0.57,-0.58l0 -8.74c0,-0.32 0.26,-0.58 0.57,-0.58l4.82 0c0.32,0 0.58,0.26 0.58,0.58l0 8.74z"/>
  <polygon class="fil35" points="40.27,64.01 45.06,64.01 45.06,56.34 40.27,56.34 "/>
  <path class="fil36" d="M43.09 65.12l-0.86 0c-0.25,0 -0.45,-0.2 -0.45,-0.45 0,-0.24 0.2,-0.44 0.45,-0.44l0.86 0c0.25,0 0.45,0.2 0.45,0.44 0,0.25 -0.2,0.45 -0.45,0.45z"/>
  <path class="fil37" d="M42.77 55.96l-1.02 0c-0.04,0 -0.08,-0.03 -0.08,-0.07 0,-0.04 0.04,-0.08 0.08,-0.08l1.02 0c0.04,0 0.07,0.04 0.07,0.08 0,0.04 -0.03,0.07 -0.07,0.07z"/>
  <path class="fil37" d="M43.11 55.96l-0.07 0c-0.04,0 -0.07,-0.03 -0.07,-0.07 0,-0.04 0.03,-0.08 0.07,-0.08l0.07 0c0.04,0 0.07,0.04 0.07,0.08 0,0.04 -0.03,0.07 -0.07,0.07z"/>
  <path class="fil38" d="M42.91 59.02l0.33 0.32 -1.06 1.06 -0.33 -0.33c-0.18,0.22 -0.24,0.47 -0.12,0.59l0.08 0.08c0.13,0.13 0.42,0.06 0.65,-0.17l0.95 -0.95c0.23,-0.23 0.3,-0.51 0.17,-0.64l-0.08 -0.08c-0.12,-0.13 -0.37,-0.07 -0.59,0.12z"/>
  <path class="fil39" d="M41.59 61.76c0.01,0.01 0.03,0.01 0.05,0.01 0.05,0 0.09,-0.02 0.09,-0.08 0,-0.05 -0.04,-0.07 -0.09,-0.07l-0.05 0 0 0.14zm0 -0.18l0.05 0c0.05,0 0.08,-0.03 0.08,-0.07 0,-0.04 -0.03,-0.06 -0.08,-0.06 -0.02,0 -0.04,0 -0.05,0l0 0.13zm-0.05 -0.16c0.03,-0.01 0.06,-0.01 0.1,-0.01 0.05,0 0.08,0.01 0.1,0.03 0.02,0.01 0.03,0.04 0.03,0.07 0,0.03 -0.02,0.07 -0.06,0.08l0 0c0.04,0.01 0.08,0.04 0.08,0.1 0,0.03 -0.02,0.06 -0.04,0.08 -0.02,0.02 -0.06,0.03 -0.13,0.03 -0.03,0 -0.06,0 -0.08,0l0 -0.38z"/>
  <path class="fil39" d="M42.09 61.73c0,0.02 0,0.05 0,0.07l-0.05 0 0 -0.05 0 0c-0.01,0.03 -0.04,0.06 -0.09,0.06 -0.05,0 -0.1,-0.03 -0.1,-0.12l0 -0.17 0.05 0 0 0.16c0,0.05 0.02,0.09 0.07,0.09 0.03,0 0.05,-0.03 0.06,-0.05 0,-0.01 0.01,-0.02 0.01,-0.03l0 -0.17 0.05 0 0 0.21z"/>
  <path class="fil39" d="M42.16 61.75c0.02,0.01 0.04,0.02 0.07,0.02 0.04,0 0.05,-0.02 0.05,-0.04 0,-0.03 -0.01,-0.04 -0.05,-0.05 -0.05,-0.02 -0.07,-0.05 -0.07,-0.08 0,-0.05 0.04,-0.08 0.1,-0.08 0.02,0 0.05,0 0.06,0.01l-0.01 0.04c-0.01,-0.01 -0.03,-0.02 -0.06,-0.02 -0.03,0 -0.04,0.02 -0.04,0.04 0,0.03 0.01,0.03 0.05,0.05 0.05,0.02 0.07,0.04 0.07,0.08 0,0.05 -0.03,0.09 -0.1,0.09 -0.03,0 -0.06,-0.01 -0.08,-0.02l0.01 -0.04z"/>
  <path class="fil39" d="M42.4 61.8l0 -0.28 0.05 0 0 0.28 -0.05 0zm0.05 -0.35c0.01,0.01 -0.01,0.03 -0.03,0.03 -0.02,0 -0.03,-0.02 -0.03,-0.03 0,-0.02 0.02,-0.04 0.03,-0.04 0.02,0 0.03,0.02 0.03,0.04z"/>
  <path class="fil39" d="M42.53 61.6c0,-0.03 0,-0.05 0,-0.08l0.04 0 0.01 0.05 0 0c0.01,-0.03 0.05,-0.05 0.09,-0.05 0.04,0 0.1,0.02 0.1,0.12l0 0.16 -0.05 0 0 -0.16c0,-0.04 -0.02,-0.08 -0.07,-0.08 -0.03,0 -0.06,0.02 -0.06,0.05 -0.01,0.01 -0.01,0.01 -0.01,0.02l0 0.17 -0.05 0 0 -0.2z"/>
  <path class="fil39" d="M42.85 61.6c0,-0.03 0,-0.05 0,-0.08l0.04 0 0.01 0.05 0 0c0.01,-0.03 0.04,-0.05 0.09,-0.05 0.04,0 0.1,0.02 0.1,0.12l0 0.16 -0.05 0 0 -0.16c0,-0.04 -0.02,-0.08 -0.07,-0.08 -0.03,0 -0.06,0.02 -0.06,0.05 -0.01,0.01 -0.01,0.01 -0.01,0.02l0 0.17 -0.05 0 0 -0.2z"/>
  <path class="fil39" d="M43.35 61.64c0,-0.04 -0.02,-0.09 -0.07,-0.09 -0.05,0 -0.08,0.05 -0.08,0.09l0.15 0zm-0.15 0.03c0,0.07 0.04,0.1 0.09,0.1 0.04,0 0.06,-0.01 0.08,-0.02l0.01 0.04c-0.02,0.01 -0.05,0.02 -0.09,0.02 -0.09,0 -0.14,-0.06 -0.14,-0.14 0,-0.09 0.05,-0.15 0.13,-0.15 0.09,0 0.12,0.08 0.12,0.13 0,0.01 -0.01,0.02 -0.01,0.02l-0.19 0z"/>
  <path class="fil39" d="M43.45 61.75c0.02,0.01 0.04,0.02 0.07,0.02 0.03,0 0.05,-0.02 0.05,-0.04 0,-0.03 -0.01,-0.04 -0.05,-0.05 -0.05,-0.02 -0.07,-0.05 -0.07,-0.08 0,-0.05 0.03,-0.08 0.09,-0.08 0.03,0 0.06,0 0.07,0.01l-0.01 0.04c-0.01,-0.01 -0.03,-0.02 -0.06,-0.02 -0.03,0 -0.04,0.02 -0.04,0.04 0,0.03 0.01,0.03 0.05,0.05 0.05,0.02 0.07,0.04 0.07,0.08 0,0.05 -0.04,0.09 -0.1,0.09 -0.03,0 -0.06,-0.01 -0.08,-0.02l0.01 -0.04z"/>
  <polygon class="fil39" points="41.54,62.49 41.59,62.49 41.59,62.1 41.54,62.1 "/>
  <path class="fil39" d="M41.69 62.29c0,-0.03 0,-0.05 -0.01,-0.08l0.05 0 0 0.05 0 0c0.02,-0.03 0.05,-0.05 0.09,-0.05 0.04,0 0.1,0.02 0.1,0.11l0 0.17 -0.05 0 0 -0.16c0,-0.04 -0.01,-0.08 -0.06,-0.08 -0.04,0 -0.06,0.02 -0.07,0.05 0,0.01 0,0.01 0,0.02l0 0.17 -0.05 0 0 -0.2z"/>
  <path class="fil39" d="M42.2 62.48c-0.01,0.01 -0.04,0.02 -0.08,0.02 -0.08,0 -0.14,-0.06 -0.14,-0.15 0,-0.08 0.06,-0.14 0.15,-0.14 0.03,0 0.06,0 0.07,0.01l-0.01 0.04c-0.01,-0.01 -0.03,-0.01 -0.06,-0.01 -0.06,0 -0.1,0.04 -0.1,0.1 0,0.07 0.05,0.11 0.1,0.11 0.03,0 0.05,-0.01 0.06,-0.02l0.01 0.04z"/>
  <path class="fil39" d="M42.29 62.35c0,0.06 0.04,0.11 0.08,0.11 0.05,0 0.09,-0.05 0.09,-0.11 0,-0.05 -0.02,-0.11 -0.09,-0.11 -0.05,0 -0.08,0.06 -0.08,0.11zm0.22 0c0,0.1 -0.07,0.15 -0.14,0.15 -0.07,0 -0.13,-0.06 -0.13,-0.15 0,-0.09 0.06,-0.14 0.14,-0.14 0.08,0 0.13,0.05 0.13,0.14z"/>
  <path class="fil39" d="M42.57 62.29c0,-0.03 0,-0.05 0,-0.08l0.05 0 0 0.05 0 0c0.02,-0.03 0.04,-0.05 0.09,-0.05 0.03,0 0.06,0.02 0.08,0.05l0 0c0.01,-0.01 0.02,-0.03 0.03,-0.03 0.02,-0.02 0.03,-0.02 0.06,-0.02 0.04,0 0.09,0.02 0.09,0.12l0 0.16 -0.05 0 0 -0.16c0,-0.05 -0.02,-0.08 -0.06,-0.08 -0.03,0 -0.05,0.02 -0.06,0.04 0,0.01 0,0.02 0,0.03l0 0.17 -0.05 0 0 -0.17c0,-0.04 -0.02,-0.07 -0.06,-0.07 -0.03,0 -0.05,0.02 -0.06,0.05 0,0.01 -0.01,0.01 -0.01,0.02l0 0.17 -0.05 0 0 -0.2z"/>
  <path class="fil39" d="M43.05 62.49l0 -0.28 0.05 0 0 0.28 -0.05 0zm0.06 -0.35c0,0.01 -0.01,0.03 -0.03,0.03 -0.02,0 -0.03,-0.02 -0.03,-0.03 0,-0.02 0.01,-0.04 0.03,-0.04 0.02,0 0.03,0.02 0.03,0.04z"/>
  <path class="fil39" d="M43.19 62.29c0,-0.03 0,-0.05 0,-0.08l0.04 0 0 0.05 0 0c0.02,-0.03 0.05,-0.05 0.1,-0.05 0.03,0 0.09,0.02 0.09,0.11l0 0.17 -0.05 0 0 -0.16c0,-0.04 -0.01,-0.08 -0.06,-0.08 -0.03,0 -0.06,0.02 -0.07,0.05 0,0.01 0,0.01 0,0.02l0 0.17 -0.05 0 0 -0.2z"/>
  <path class="fil39" d="M43.69 62.32c0,-0.01 0,-0.01 0,-0.02 -0.01,-0.03 -0.03,-0.05 -0.07,-0.05 -0.05,0 -0.08,0.04 -0.08,0.1 0,0.06 0.03,0.1 0.08,0.1 0.03,0 0.06,-0.02 0.07,-0.05 0,-0.01 0,-0.02 0,-0.03l0 -0.05zm0.06 -0.11c0,0.02 -0.01,0.05 -0.01,0.08l0 0.16c0,0.06 -0.01,0.1 -0.04,0.13 -0.02,0.02 -0.06,0.03 -0.1,0.03 -0.03,0 -0.07,-0.01 -0.09,-0.02l0.01 -0.04c0.02,0.01 0.05,0.02 0.08,0.02 0.06,0 0.09,-0.03 0.09,-0.1l0 -0.03 0 0c-0.01,0.03 -0.04,0.05 -0.09,0.05 -0.06,0 -0.11,-0.06 -0.11,-0.14 0,-0.09 0.06,-0.14 0.12,-0.14 0.05,0 0.08,0.02 0.09,0.04l0 0 0 -0.04 0.05 0z"/>
  <path class="fil39" d="M41.82 63.17c-0.02,0.01 -0.06,0.02 -0.11,0.02 -0.11,0 -0.19,-0.07 -0.19,-0.2 0,-0.12 0.08,-0.2 0.2,-0.2 0.05,0 0.08,0.01 0.1,0.01l-0.02 0.04c-0.02,0 -0.04,-0.01 -0.07,-0.01 -0.1,0 -0.16,0.06 -0.16,0.16 0,0.09 0.06,0.15 0.15,0.15 0.03,0 0.06,0 0.08,-0.01l0.02 0.04z"/>
  <path class="fil39" d="M42.07 63.02l-0.04 -0.11c-0.01,-0.03 -0.01,-0.05 -0.02,-0.07l0 0c-0.01,0.02 -0.01,0.04 -0.02,0.07l-0.04 0.11 0.12 0zm-0.13 0.04l-0.04 0.12 -0.05 0 0.13 -0.39 0.06 0 0.14 0.39 -0.06 0 -0.04 -0.12 -0.14 0z"/>
  <polygon class="fil39" points="42.23,62.79 42.28,62.79 42.28,63.14 42.45,63.14 42.45,63.18 42.23,63.18 "/>
  <polygon class="fil39" points="42.5,62.79 42.55,62.79 42.55,63.14 42.72,63.14 42.72,63.18 42.5,63.18 "/>
  <path class="fil39" d="M42.88 63.15c0,-0.02 0.02,-0.04 0.04,-0.04 0.02,0 0.03,0.02 0.03,0.04 0,0.02 -0.01,0.04 -0.03,0.04 -0.02,0 -0.04,-0.02 -0.04,-0.04z"/>
  <path class="fil39" d="M43 63.15c0,-0.02 0.02,-0.04 0.04,-0.04 0.02,0 0.03,0.02 0.03,0.04 0,0.02 -0.01,0.04 -0.03,0.04 -0.02,0 -0.04,-0.02 -0.04,-0.04z"/>
  <path class="fil39" d="M43.12 63.15c0,-0.02 0.01,-0.04 0.03,-0.04 0.02,0 0.04,0.02 0.04,0.04 0,0.02 -0.02,0.04 -0.04,0.04 -0.02,0 -0.03,-0.02 -0.03,-0.04z"/>
 </g>
</svg>
