<?xml version="1.0" encoding="UTF-8"?>
<!DOCTYPE svg PUBLIC "-//W3C//DTD SVG 1.1//EN" "http://www.w3.org/Graphics/SVG/1.1/DTD/svg11.dtd">
<!-- Creator: CorelDRAW 2020 (64-Bit) -->
<svg xmlns="http://www.w3.org/2000/svg" xml:space="preserve" width="128px" height="128px" version="1.1" style="shape-rendering:geometricPrecision; text-rendering:geometricPrecision; image-rendering:optimizeQuality; fill-rule:evenodd; clip-rule:evenodd"
viewBox="0 0 128 128"
 xmlns:xlink="http://www.w3.org/1999/xlink"
 xmlns:xodm="http://www.corel.com/coreldraw/odm/2003">
 <defs>
  <style type="text/css">
   <![CDATA[
    .fil42 {fill:#E6E7E8}
    .fil20 {fill:#383B6F}
    .fil4 {fill:#606062;fill-rule:nonzero}
    .fil27 {fill:#373435;fill-rule:nonzero}
    .fil29 {fill:#F1685B;fill-rule:nonzero}
    .fil33 {fill:#F49A37;fill-rule:nonzero}
    .fil32 {fill:#F9D779;fill-rule:nonzero}
    .fil17 {fill:#F9D060;fill-rule:nonzero}
    .fil18 {fill:#F6C845;fill-rule:nonzero}
    .fil19 {fill:#F4BF2F;fill-rule:nonzero}
    .fil12 {fill:#F1B032;fill-rule:nonzero}
    .fil3 {fill:#EEEFF0;fill-rule:nonzero}
    .fil28 {fill:#EDF1F1;fill-rule:nonzero}
    .fil41 {fill:#ECEDEE;fill-rule:nonzero}
    .fil1 {fill:#EAC869;fill-rule:nonzero}
    .fil13 {fill:#DE4D38;fill-rule:nonzero}
    .fil9 {fill:#E2E3E3;fill-rule:nonzero}
    .fil16 {fill:#E2E1E0;fill-rule:nonzero}
    .fil24 {fill:#DBA03A;fill-rule:nonzero}
    .fil36 {fill:#D4D8D9;fill-rule:nonzero}
    .fil34 {fill:#C84E39;fill-rule:nonzero}
    .fil21 {fill:#CFD5D9;fill-rule:nonzero}
    .fil7 {fill:#CECDCC;fill-rule:nonzero}
    .fil37 {fill:#CCCBCA;fill-rule:nonzero}
    .fil39 {fill:#B54838;fill-rule:nonzero}
    .fil14 {fill:#BEDFDE;fill-rule:nonzero}
    .fil6 {fill:#C1C0C1;fill-rule:nonzero}
    .fil22 {fill:#BAC0C5;fill-rule:nonzero}
    .fil38 {fill:#BB9843;fill-rule:nonzero}
    .fil26 {fill:#AAC8C8;fill-rule:nonzero}
    .fil10 {fill:#A4883E;fill-rule:nonzero}
    .fil11 {fill:#AFC750;fill-rule:nonzero}
    .fil5 {fill:#A6A7A7;fill-rule:nonzero}
    .fil25 {fill:#A0B64A;fill-rule:nonzero}
    .fil23 {fill:#756137;fill-rule:nonzero}
    .fil30 {fill:#93CB72;fill-rule:nonzero}
    .fil35 {fill:#71B6CF;fill-rule:nonzero}
    .fil40 {fill:#66A6BB;fill-rule:nonzero}
    .fil31 {fill:#7267AC;fill-rule:nonzero}
    .fil15 {fill:#2D2E42;fill-rule:nonzero}
    .fil8 {fill:#383B6F;fill-rule:nonzero}
    .fil2 {fill:url(#id0)}
    .fil0 {fill:url(#id1)}
   ]]>
  </style>
  <linearGradient id="id0" gradientUnits="userSpaceOnUse" x1="93.42" y1="113.41" x2="38.46" y2="24.13">
   <stop offset="0" style="stop-opacity:1; stop-color:#E6E6E6"/>
   <stop offset="0.180392" style="stop-opacity:1; stop-color:#C7C7C7"/>
   <stop offset="1" style="stop-opacity:1; stop-color:#E6E6E6"/>
  </linearGradient>
  <linearGradient id="id1" gradientUnits="userSpaceOnUse" x1="28.18" y1="19.46" x2="107.09" y2="102.28">
   <stop offset="0" style="stop-opacity:1; stop-color:#E6E6E6"/>
   <stop offset="0.568627" style="stop-opacity:1; stop-color:#999999"/>
   <stop offset="1" style="stop-opacity:1; stop-color:#E6E6E6"/>
  </linearGradient>
 </defs>
 <g id="Capa_x0020_1">
  <metadata id="CorelCorpID_0Corel-Layer"/>
  <circle class="fil0" cx="64" cy="64" r="49.21"/>
  <path class="fil1" d="M64 0c17.67,0 33.67,7.16 45.25,18.75 11.59,11.58 18.75,27.58 18.75,45.25 0,17.67 -7.16,33.67 -18.75,45.25 -11.58,11.59 -27.58,18.75 -45.25,18.75 -17.67,0 -33.67,-7.16 -45.25,-18.75 -11.59,-11.58 -18.75,-27.58 -18.75,-45.25 0,-17.67 7.16,-33.67 18.75,-45.25 11.58,-11.59 27.58,-18.75 45.25,-18.75zm43.62 20.38c-11.17,-11.16 -26.59,-18.06 -43.62,-18.06 -17.03,0 -32.45,6.9 -43.62,18.06 -11.16,11.17 -18.06,26.59 -18.06,43.62 0,17.03 6.9,32.45 18.06,43.62 11.17,11.16 26.59,18.06 43.62,18.06 17.03,0 32.45,-6.9 43.62,-18.06 11.16,-11.17 18.06,-26.59 18.06,-43.62 0,-17.03 -6.9,-32.45 -18.06,-43.62z"/>
  <circle class="fil2" cx="64" cy="64" r="47.34"/>
  <g id="_1652023210800">
   <path class="fil3" d="M62.14 42.65l0.3 -0.61c0,0 -0.44,-0.22 -0.89,-0.43 -0.23,-0.1 -0.45,-0.2 -0.63,-0.27 -0.08,-0.04 -0.16,-0.07 -0.21,-0.09 -0.05,-0.02 -0.08,-0.03 -0.08,-0.03l-0.24 0.63c0,0 0.11,0.04 0.27,0.11 0.17,0.07 0.39,0.17 0.61,0.27 0.44,0.2 0.87,0.42 0.87,0.42z"/>
   <path class="fil3" d="M64.65 44.06l0.36 -0.57c0,0 -0.42,-0.26 -0.85,-0.51 -0.42,-0.25 -0.86,-0.49 -0.86,-0.49l-0.32 0.6c0,0 0.42,0.23 0.84,0.47 0.42,0.25 0.83,0.5 0.83,0.5z"/>
   <path class="fil3" d="M67.02 45.71l0.41 -0.54c0,0 -0.09,-0.08 -0.24,-0.19 -0.15,-0.11 -0.35,-0.26 -0.55,-0.4 -0.4,-0.29 -0.82,-0.57 -0.82,-0.57l-0.37 0.57c0,0 0.4,0.27 0.8,0.55 0.19,0.14 0.39,0.28 0.53,0.39 0.15,0.11 0.24,0.19 0.24,0.19z"/>
   <path class="fil3" d="M69.2 47.58l0.48 -0.49c0,0 -0.09,-0.08 -0.23,-0.21 -0.13,-0.13 -0.32,-0.29 -0.5,-0.46 -0.19,-0.16 -0.38,-0.33 -0.52,-0.45 -0.14,-0.12 -0.24,-0.2 -0.24,-0.2l-0.43 0.53c0,0 0.1,0.07 0.23,0.19 0.14,0.12 0.32,0.28 0.51,0.43 0.17,0.17 0.35,0.33 0.49,0.45 0.13,0.13 0.21,0.21 0.21,0.21z"/>
   <path class="fil4" d="M71.14 49.7l0.53 -0.42c0,0 -0.08,-0.1 -0.2,-0.24 -0.12,-0.14 -0.27,-0.34 -0.44,-0.52 -0.16,-0.19 -0.33,-0.38 -0.46,-0.51 -0.12,-0.14 -0.21,-0.23 -0.21,-0.23l-0.49 0.47c0,0 0.08,0.09 0.21,0.22 0.12,0.13 0.28,0.31 0.44,0.49 0.16,0.18 0.31,0.37 0.43,0.51 0.11,0.14 0.19,0.23 0.19,0.23z"/>
   <path class="fil4" d="M72.73 52.08l0.59 -0.34c0,0 -0.24,-0.43 -0.51,-0.85 -0.13,-0.21 -0.27,-0.42 -0.38,-0.57 -0.05,-0.08 -0.09,-0.14 -0.12,-0.19 -0.04,-0.04 -0.06,-0.07 -0.06,-0.07l-0.55 0.4c0,0 0.02,0.02 0.05,0.06 0.03,0.05 0.08,0.11 0.13,0.18 0.09,0.15 0.23,0.35 0.36,0.55 0.26,0.41 0.49,0.83 0.49,0.83z"/>
   <path class="fil4" d="M73.9 54.68l0.64 -0.22c0,0 -0.04,-0.12 -0.1,-0.3 -0.04,-0.08 -0.07,-0.19 -0.11,-0.3 -0.04,-0.11 -0.1,-0.22 -0.14,-0.34 -0.05,-0.11 -0.1,-0.23 -0.14,-0.34 -0.05,-0.1 -0.1,-0.2 -0.14,-0.29 -0.08,-0.17 -0.13,-0.28 -0.13,-0.28l-0.61 0.3c0,0 0.05,0.11 0.13,0.27 0.03,0.08 0.08,0.17 0.13,0.28 0.04,0.1 0.09,0.21 0.13,0.32 0.05,0.11 0.09,0.22 0.13,0.33 0.04,0.1 0.08,0.2 0.11,0.29 0.06,0.16 0.1,0.28 0.1,0.28z"/>
   <path class="fil4" d="M74.55 57.45l0.67 -0.09c0,0 0,-0.03 -0.01,-0.09 0,-0.05 -0.02,-0.13 -0.03,-0.22 -0.04,-0.19 -0.07,-0.44 -0.12,-0.68 -0.06,-0.24 -0.1,-0.49 -0.15,-0.67 -0.05,-0.18 -0.08,-0.3 -0.08,-0.3l-0.66 0.17c0,0 0.03,0.12 0.08,0.29 0.05,0.17 0.09,0.41 0.14,0.64 0.06,0.24 0.08,0.47 0.12,0.65 0.01,0.09 0.02,0.16 0.03,0.22 0.01,0.05 0.01,0.08 0.01,0.08z"/>
   <path class="fil4" d="M74.66 60.29l0.68 0.04c0,0 0,-0.12 0.01,-0.31 0,-0.19 0.02,-0.44 0.01,-0.69 -0.01,-0.25 0,-0.5 -0.02,-0.69 -0.01,-0.18 -0.02,-0.31 -0.02,-0.31l-0.68 0.05c0,0 0.01,0.12 0.02,0.3 0.02,0.18 0.01,0.42 0.02,0.66 0.01,0.24 -0.01,0.47 -0.01,0.65 -0.01,0.18 -0.01,0.3 -0.01,0.3z"/>
   <path class="fil3" d="M74.25 63.12l0.67 0.15c0,0 0.02,-0.12 0.07,-0.3 0.03,-0.19 0.07,-0.43 0.12,-0.68 0.05,-0.24 0.08,-0.49 0.1,-0.68 0.03,-0.18 0.04,-0.31 0.04,-0.31l-0.67 -0.07c0,0 -0.02,0.12 -0.04,0.3 -0.03,0.17 -0.05,0.41 -0.1,0.65 -0.04,0.23 -0.08,0.47 -0.12,0.65 -0.04,0.17 -0.07,0.29 -0.07,0.29z"/>
   <path class="fil3" d="M73.42 65.86l0.64 0.24c0,0 0.04,-0.11 0.11,-0.29 0.07,-0.17 0.14,-0.41 0.22,-0.64 0.07,-0.24 0.16,-0.47 0.2,-0.66 0.05,-0.17 0.09,-0.29 0.09,-0.29l-0.66 -0.18c0,0 -0.03,0.11 -0.08,0.28 -0.04,0.18 -0.12,0.41 -0.2,0.64 -0.07,0.22 -0.14,0.45 -0.21,0.62 -0.07,0.17 -0.11,0.28 -0.11,0.28z"/>
   <path class="fil3" d="M72.25 68.49l0.6 0.31c0,0 0.06,-0.11 0.15,-0.27 0.08,-0.17 0.18,-0.39 0.29,-0.62 0.11,-0.22 0.22,-0.44 0.29,-0.62 0.07,-0.17 0.12,-0.28 0.12,-0.28l-0.63 -0.27c0,0 -0.05,0.11 -0.12,0.28 -0.06,0.17 -0.17,0.39 -0.27,0.6 -0.11,0.22 -0.2,0.44 -0.29,0.6 -0.08,0.17 -0.14,0.27 -0.14,0.27z"/>
   <path class="fil3" d="M70.82 71l0.57 0.36c0,0 0.26,-0.42 0.52,-0.84 0.13,-0.21 0.24,-0.43 0.34,-0.59 0.09,-0.16 0.15,-0.27 0.15,-0.27l-0.59 -0.33c0,0 -0.06,0.11 -0.15,0.26 -0.09,0.16 -0.21,0.38 -0.33,0.58 -0.26,0.41 -0.51,0.83 -0.51,0.83z"/>
   <path class="fil3" d="M69.18 73.38l0.54 0.4c0,0 0.08,-0.1 0.19,-0.24 0.11,-0.15 0.25,-0.36 0.39,-0.56 0.14,-0.2 0.29,-0.4 0.39,-0.55 0.1,-0.16 0.17,-0.26 0.17,-0.26l-0.56 -0.38c0,0 -0.07,0.1 -0.17,0.26 -0.1,0.14 -0.24,0.34 -0.38,0.54 -0.14,0.2 -0.28,0.4 -0.39,0.55 -0.11,0.14 -0.18,0.24 -0.18,0.24z"/>
   <path class="fil3" d="M74.87 43.93l0.19 -0.87c0,0 -0.65,-0.14 -1.3,-0.25 -0.33,-0.06 -0.66,-0.11 -0.91,-0.14 -0.12,-0.02 -0.23,-0.04 -0.3,-0.05 -0.08,-0.01 -0.12,-0.01 -0.12,-0.01l-0.1 0.88c0,0 0.16,0.02 0.39,0.05 0.24,0.03 0.56,0.08 0.88,0.14 0.63,0.11 1.27,0.25 1.27,0.25z"/>
   <path class="fil4" d="M78.61 44.89l0.27 -0.84c0,0 -0.63,-0.2 -1.27,-0.37 -0.64,-0.18 -1.29,-0.33 -1.29,-0.33l-0.21 0.85c0,0 0.63,0.16 1.25,0.33 0.63,0.17 1.25,0.36 1.25,0.36z"/>
   <path class="fil4" d="M82.23 46.19l0.36 -0.82c0,0 -0.16,-0.06 -0.38,-0.15 -0.23,-0.1 -0.54,-0.21 -0.85,-0.33 -0.62,-0.24 -1.25,-0.45 -1.25,-0.45l-0.3 0.84c0,0 0.61,0.2 1.22,0.43 0.3,0.12 0.6,0.23 0.83,0.32 0.22,0.09 0.37,0.16 0.37,0.16z"/>
   <path class="fil4" d="M85.69 47.84l0.45 -0.77c0,0 -0.14,-0.08 -0.36,-0.2 -0.22,-0.12 -0.52,-0.27 -0.81,-0.42 -0.3,-0.14 -0.59,-0.29 -0.82,-0.39 -0.22,-0.11 -0.37,-0.17 -0.37,-0.17l-0.39 0.8c0,0 0.15,0.06 0.37,0.16 0.22,0.11 0.51,0.25 0.8,0.39 0.28,0.15 0.57,0.29 0.78,0.41 0.21,0.11 0.35,0.19 0.35,0.19z"/>
   <path class="fil4" d="M88.91 49.88l0.55 -0.71c0,0 -0.13,-0.1 -0.33,-0.24 -0.2,-0.14 -0.47,-0.33 -0.75,-0.51 -0.28,-0.18 -0.55,-0.37 -0.76,-0.49 -0.21,-0.13 -0.36,-0.22 -0.36,-0.22l-0.48 0.75c0,0 0.14,0.09 0.35,0.21 0.2,0.13 0.47,0.3 0.74,0.48 0.27,0.17 0.52,0.36 0.72,0.5 0.2,0.13 0.32,0.23 0.32,0.23z"/>
   <path class="fil4" d="M91.78 52.35l0.66 -0.61c0,0 -0.46,-0.47 -0.95,-0.92 -0.24,-0.22 -0.5,-0.43 -0.68,-0.59 -0.1,-0.08 -0.18,-0.15 -0.24,-0.19 -0.05,-0.05 -0.08,-0.07 -0.08,-0.07l-0.59 0.67c0,0 0.03,0.03 0.09,0.07 0.05,0.04 0.13,0.11 0.22,0.19 0.18,0.15 0.43,0.36 0.66,0.57 0.47,0.43 0.91,0.88 0.91,0.88z"/>
   <path class="fil4" d="M94.17 55.24l0.76 -0.48c0,0 -0.09,-0.13 -0.24,-0.34 -0.07,-0.1 -0.15,-0.21 -0.24,-0.34 -0.09,-0.12 -0.19,-0.25 -0.29,-0.38 -0.1,-0.13 -0.2,-0.26 -0.3,-0.38 -0.1,-0.12 -0.19,-0.23 -0.27,-0.33 -0.16,-0.18 -0.27,-0.31 -0.27,-0.31l-0.69 0.57c0,0 0.1,0.12 0.26,0.3 0.07,0.1 0.16,0.2 0.26,0.31 0.09,0.12 0.18,0.24 0.28,0.37 0.1,0.12 0.2,0.25 0.28,0.36 0.09,0.13 0.17,0.24 0.24,0.33 0.13,0.2 0.22,0.32 0.22,0.32z"/>
   <path class="fil4" d="M95.95 58.53l0.84 -0.34c0,0 -0.01,-0.04 -0.04,-0.1 -0.03,-0.07 -0.07,-0.16 -0.12,-0.27 -0.11,-0.22 -0.23,-0.53 -0.39,-0.82 -0.15,-0.29 -0.29,-0.58 -0.42,-0.8 -0.12,-0.21 -0.2,-0.35 -0.2,-0.35l-0.79 0.44c0,0 0.07,0.13 0.19,0.34 0.12,0.2 0.26,0.48 0.4,0.76 0.15,0.27 0.27,0.57 0.37,0.78 0.05,0.11 0.09,0.19 0.12,0.26 0.03,0.06 0.04,0.1 0.04,0.1z"/>
   <path class="fil4" d="M97.04 62.08l0.89 -0.18c0,0 -0.03,-0.15 -0.09,-0.39 -0.05,-0.24 -0.12,-0.56 -0.21,-0.87 -0.09,-0.32 -0.17,-0.63 -0.26,-0.86 -0.07,-0.24 -0.13,-0.39 -0.13,-0.39l-0.86 0.28c0,0 0.05,0.15 0.13,0.37 0.08,0.22 0.15,0.52 0.24,0.82 0.09,0.3 0.15,0.61 0.21,0.84 0.05,0.23 0.08,0.38 0.08,0.38z"/>
   <path class="fil4" d="M97.47 65.77l0.91 -0.02c0,0 -0.01,-0.16 -0.01,-0.41 -0.02,-0.24 -0.05,-0.57 -0.07,-0.89 -0.02,-0.32 -0.07,-0.65 -0.09,-0.89 -0.03,-0.24 -0.05,-0.4 -0.05,-0.4l-0.91 0.12c0,0 0.02,0.16 0.05,0.39 0.03,0.23 0.08,0.54 0.09,0.85 0.03,0.32 0.06,0.63 0.07,0.86 0,0.24 0.01,0.39 0.01,0.39z"/>
   <path class="fil4" d="M97.31 69.51l0.91 0.09c0,0 0.01,-0.16 0.04,-0.4 0.03,-0.24 0.05,-0.57 0.07,-0.89 0.02,-0.32 0.05,-0.64 0.05,-0.89 0,-0.24 0.01,-0.4 0.01,-0.4l-0.91 -0.02c0,0 -0.01,0.16 -0.01,0.39 0,0.24 -0.03,0.55 -0.05,0.86 -0.02,0.32 -0.03,0.63 -0.07,0.86 -0.02,0.24 -0.04,0.4 -0.04,0.4z"/>
   <path class="fil4" d="M96.67 73.2l0.89 0.19c0,0 0.04,-0.16 0.09,-0.39 0.06,-0.24 0.12,-0.56 0.18,-0.87 0.06,-0.32 0.13,-0.64 0.16,-0.88 0.04,-0.24 0.06,-0.4 0.06,-0.4l-0.9 -0.13c0,0 -0.02,0.16 -0.06,0.39 -0.03,0.24 -0.1,0.55 -0.15,0.86 -0.07,0.3 -0.12,0.62 -0.18,0.84 -0.05,0.23 -0.09,0.39 -0.09,0.39z"/>
   <path class="fil4" d="M95.66 76.82l0.86 0.28c0,0 0.2,-0.62 0.39,-1.24 0.1,-0.3 0.17,-0.62 0.24,-0.85 0.07,-0.23 0.11,-0.39 0.11,-0.39l-0.88 -0.22c0,0 -0.04,0.15 -0.11,0.38 -0.06,0.23 -0.14,0.54 -0.23,0.84 -0.19,0.6 -0.38,1.2 -0.38,1.2z"/>
   <path class="fil3" d="M94.33 80.36l0.84 0.33c0,0 0.07,-0.15 0.16,-0.37 0.09,-0.22 0.21,-0.52 0.32,-0.82 0.12,-0.31 0.24,-0.61 0.33,-0.83 0.07,-0.23 0.13,-0.38 0.13,-0.38l-0.86 -0.29c0,0 -0.05,0.15 -0.13,0.37 -0.09,0.22 -0.2,0.52 -0.32,0.81 -0.11,0.3 -0.22,0.59 -0.32,0.82 -0.09,0.21 -0.15,0.36 -0.15,0.36z"/>
   <path class="fil3" d="M42.33 74.36l-0.65 0.2c0,0 0.12,0.39 0.25,0.77 0.06,0.19 0.13,0.39 0.18,0.53 0.05,0.15 0.09,0.24 0.09,0.24l0.63 -0.24c0,0 -0.03,-0.09 -0.08,-0.23 -0.05,-0.14 -0.12,-0.32 -0.18,-0.51 -0.13,-0.38 -0.24,-0.76 -0.24,-0.76z"/>
   <path class="fil3" d="M41.7 72.07l-0.66 0.16c0,0 0.02,0.1 0.06,0.25 0.04,0.15 0.09,0.34 0.14,0.54 0.1,0.39 0.21,0.78 0.21,0.78l0.66 -0.19c0,0 -0.11,-0.38 -0.22,-0.77 -0.05,-0.19 -0.1,-0.38 -0.13,-0.53 -0.04,-0.14 -0.06,-0.24 -0.06,-0.24z"/>
   <path class="fil3" d="M41.18 69.75l-0.66 0.13c0,0 0.02,0.1 0.05,0.25 0.03,0.15 0.07,0.35 0.11,0.54 0.04,0.2 0.09,0.4 0.12,0.55 0.03,0.15 0.05,0.24 0.05,0.24l0.66 -0.15c0,0 -0.02,-0.09 -0.05,-0.24 -0.03,-0.15 -0.08,-0.34 -0.12,-0.53 -0.04,-0.2 -0.08,-0.4 -0.11,-0.54 -0.03,-0.15 -0.05,-0.25 -0.05,-0.25z"/>
   <path class="fil4" d="M40.79 67.41l-0.67 0.1c0,0 0.06,0.4 0.12,0.8 0.03,0.19 0.06,0.4 0.09,0.54 0.03,0.15 0.04,0.25 0.04,0.25l0.67 -0.11c0,0 -0.02,-0.1 -0.04,-0.25 -0.03,-0.15 -0.06,-0.34 -0.09,-0.54 -0.06,-0.39 -0.12,-0.79 -0.12,-0.79z"/>
   <path class="fil4" d="M40.53 65.05l-0.68 0.06c0,0 0.01,0.1 0.02,0.25 0.02,0.15 0.04,0.35 0.06,0.56 0.02,0.2 0.04,0.4 0.06,0.55 0.02,0.15 0.03,0.25 0.03,0.25l0.67 -0.08c0,0 -0.01,-0.1 -0.03,-0.25 -0.01,-0.15 -0.04,-0.35 -0.06,-0.54 -0.02,-0.2 -0.04,-0.4 -0.05,-0.55 -0.01,-0.15 -0.02,-0.25 -0.02,-0.25z"/>
   <path class="fil4" d="M40.4 62.69l-0.67 0.01c0,0 0,0.1 0,0.25 0.01,0.15 0.02,0.36 0.02,0.56 0.01,0.2 0.02,0.4 0.03,0.56 0.01,0.15 0.02,0.25 0.02,0.25l0.67 -0.04c0,0 0,-0.1 -0.01,-0.25 -0.01,-0.15 -0.02,-0.35 -0.03,-0.55 -0.01,-0.2 -0.01,-0.4 -0.02,-0.55 0,-0.15 -0.01,-0.24 -0.01,-0.24z"/>
   <path class="fil4" d="M40.44 60.32l-0.68 -0.04c0,0 -0.01,0.11 -0.01,0.26 -0.01,0.15 -0.01,0.35 -0.02,0.55 -0.01,0.21 -0.01,0.41 -0.01,0.56 0,0.15 0,0.26 0,0.26l0.68 0c0,0 0,-0.1 0,-0.25 0,-0.15 0,-0.35 0.01,-0.55 0,-0.2 0.01,-0.4 0.01,-0.54 0.01,-0.15 0.02,-0.25 0.02,-0.25z"/>
   <path class="fil4" d="M40.64 57.96l-0.67 -0.09c0,0 -0.02,0.11 -0.03,0.26 -0.02,0.15 -0.04,0.35 -0.06,0.55 -0.03,0.2 -0.04,0.41 -0.05,0.56 -0.01,0.15 -0.02,0.25 -0.02,0.25l0.67 0.05c0,0 0.01,-0.1 0.03,-0.25 0.01,-0.14 0.02,-0.34 0.04,-0.54 0.02,-0.2 0.05,-0.39 0.06,-0.54 0.02,-0.15 0.03,-0.25 0.03,-0.25z"/>
   <path class="fil4" d="M41.04 55.63l-0.66 -0.14c0,0 -0.08,0.4 -0.16,0.8 -0.07,0.4 -0.14,0.8 -0.14,0.8l0.67 0.1c0,0 0.07,-0.39 0.13,-0.78 0.08,-0.39 0.16,-0.78 0.16,-0.78z"/>
   <path class="fil4" d="M41.65 53.36l-0.64 -0.21c0,0 -0.03,0.1 -0.08,0.24 -0.04,0.15 -0.11,0.34 -0.16,0.54 -0.05,0.19 -0.11,0.39 -0.15,0.54 -0.02,0.07 -0.03,0.13 -0.04,0.18 -0.01,0.04 -0.02,0.06 -0.02,0.06l0.66 0.17c0,0 0,-0.03 0.01,-0.07 0.01,-0.04 0.03,-0.1 0.05,-0.17 0.04,-0.14 0.09,-0.33 0.14,-0.53 0.05,-0.19 0.12,-0.38 0.16,-0.52 0.04,-0.14 0.07,-0.23 0.07,-0.23z"/>
   <path class="fil4" d="M42.5 51.16l-0.62 -0.28c0,0 -0.04,0.1 -0.11,0.24 -0.06,0.13 -0.13,0.32 -0.21,0.51 -0.07,0.19 -0.16,0.38 -0.21,0.52 -0.05,0.15 -0.08,0.24 -0.08,0.24l0.64 0.23c0,0 0.03,-0.09 0.08,-0.23 0.05,-0.14 0.13,-0.32 0.2,-0.5 0.07,-0.19 0.14,-0.37 0.21,-0.51 0.06,-0.13 0.1,-0.22 0.1,-0.22z"/>
   <path class="fil4" d="M43.58 49.07l-0.58 -0.34c0,0 -0.02,0.02 -0.04,0.05 -0.02,0.04 -0.05,0.1 -0.09,0.17 -0.08,0.13 -0.18,0.31 -0.28,0.49 -0.1,0.17 -0.19,0.36 -0.26,0.49 -0.06,0.14 -0.11,0.23 -0.11,0.23l0.61 0.3c0,0 0.04,-0.09 0.11,-0.22 0.06,-0.13 0.15,-0.31 0.25,-0.48 0.1,-0.17 0.19,-0.35 0.26,-0.47 0.04,-0.07 0.07,-0.12 0.09,-0.16 0.03,-0.04 0.04,-0.06 0.04,-0.06z"/>
   <path class="fil4" d="M44.91 47.13l-0.54 -0.41c0,0 -0.06,0.08 -0.15,0.2 -0.09,0.13 -0.22,0.28 -0.34,0.45 -0.23,0.34 -0.46,0.68 -0.46,0.68l0.57 0.37c0,0 0.22,-0.33 0.44,-0.65 0.11,-0.17 0.24,-0.32 0.33,-0.44 0.09,-0.12 0.15,-0.2 0.15,-0.2z"/>
   <path class="fil4" d="M46.46 45.37l-0.48 -0.48c0,0 -0.07,0.08 -0.18,0.18 -0.11,0.11 -0.25,0.27 -0.38,0.42 -0.07,0.07 -0.14,0.15 -0.21,0.22 -0.03,0.03 -0.06,0.07 -0.09,0.1 -0.03,0.03 -0.06,0.06 -0.08,0.09 -0.1,0.12 -0.16,0.2 -0.16,0.2l0.51 0.44c0,0 0.07,-0.08 0.16,-0.19 0.02,-0.03 0.05,-0.06 0.08,-0.1 0.03,-0.03 0.06,-0.06 0.09,-0.09 0.06,-0.07 0.13,-0.14 0.19,-0.22 0.14,-0.14 0.27,-0.29 0.37,-0.39 0.11,-0.11 0.18,-0.18 0.18,-0.18z"/>
   <path class="fil4" d="M48.21 43.81l-0.42 -0.53c0,0 -0.08,0.06 -0.19,0.16 -0.12,0.1 -0.29,0.22 -0.44,0.35 -0.3,0.28 -0.61,0.55 -0.61,0.55l0.46 0.5c0,0 0.3,-0.27 0.59,-0.53 0.15,-0.13 0.31,-0.25 0.42,-0.35 0.12,-0.09 0.19,-0.15 0.19,-0.15z"/>
   <path class="fil4" d="M50.14 42.45l-0.36 -0.57c0,0 -0.34,0.22 -0.68,0.45 -0.09,0.05 -0.18,0.11 -0.25,0.16 -0.08,0.06 -0.15,0.11 -0.22,0.16 -0.12,0.09 -0.2,0.15 -0.2,0.15l0.4 0.54c0,0 0.08,-0.06 0.2,-0.14 0.06,-0.05 0.13,-0.1 0.2,-0.15 0.08,-0.06 0.16,-0.11 0.25,-0.16 0.33,-0.22 0.66,-0.44 0.66,-0.44z"/>
   <path class="fil4" d="M52.2 41.31l-0.31 -0.61c0,0 -0.02,0.01 -0.06,0.03 -0.04,0.02 -0.1,0.04 -0.16,0.08 -0.14,0.07 -0.32,0.17 -0.5,0.26 -0.18,0.1 -0.36,0.19 -0.49,0.27 -0.13,0.08 -0.22,0.13 -0.22,0.13l0.34 0.59c0,0 0.09,-0.05 0.21,-0.13 0.13,-0.07 0.31,-0.16 0.48,-0.26 0.18,-0.09 0.35,-0.18 0.48,-0.25 0.07,-0.04 0.13,-0.06 0.16,-0.08 0.04,-0.02 0.07,-0.03 0.07,-0.03z"/>
   <path class="fil4" d="M54.36 40.36l-0.25 -0.64c0,0 -0.02,0.01 -0.06,0.03 -0.05,0.01 -0.11,0.03 -0.18,0.06 -0.14,0.06 -0.32,0.14 -0.51,0.22 -0.19,0.08 -0.37,0.16 -0.51,0.22 -0.08,0.03 -0.13,0.06 -0.17,0.08 -0.04,0.02 -0.07,0.03 -0.07,0.03l0.29 0.61c0,0 0.02,-0.01 0.06,-0.03 0.04,-0.01 0.09,-0.04 0.16,-0.07 0.14,-0.06 0.32,-0.14 0.5,-0.21 0.19,-0.08 0.37,-0.16 0.51,-0.22 0.06,-0.03 0.12,-0.04 0.16,-0.06 0.04,-0.02 0.07,-0.02 0.07,-0.02z"/>
   <path class="fil4" d="M56.59 39.58l-0.19 -0.65c0,0 -0.03,0.01 -0.07,0.02 -0.04,0.02 -0.1,0.04 -0.18,0.06 -0.14,0.05 -0.33,0.11 -0.53,0.17 -0.19,0.06 -0.38,0.13 -0.53,0.18 -0.14,0.05 -0.23,0.09 -0.23,0.09l0.22 0.63c0,0 0.1,-0.03 0.24,-0.08 0.14,-0.05 0.33,-0.11 0.52,-0.17 0.19,-0.07 0.37,-0.13 0.52,-0.17 0.07,-0.03 0.13,-0.05 0.17,-0.06 0.04,-0.01 0.06,-0.02 0.06,-0.02z"/>
   <path class="fil3" d="M58.88 38.97l-0.15 -0.66c0,0 -0.39,0.1 -0.79,0.2 -0.1,0.02 -0.19,0.04 -0.29,0.07 -0.09,0.02 -0.17,0.05 -0.25,0.07 -0.14,0.04 -0.24,0.07 -0.24,0.07l0.18 0.65c0,0 0.1,-0.03 0.24,-0.07 0.07,-0.02 0.16,-0.05 0.25,-0.07 0.09,-0.02 0.18,-0.04 0.28,-0.07 0.39,-0.09 0.77,-0.19 0.77,-0.19z"/>
   <path class="fil3" d="M61.21 38.51l-0.12 -0.67c0,0 -0.09,0.02 -0.24,0.05 -0.15,0.02 -0.35,0.05 -0.55,0.09 -0.4,0.08 -0.8,0.17 -0.8,0.17l0.14 0.66c0,0 0.39,-0.08 0.78,-0.16 0.2,-0.04 0.4,-0.07 0.54,-0.1 0.15,-0.02 0.25,-0.04 0.25,-0.04z"/>
   <path class="fil5" d="M76.62 91.23c-1.86,-1.64 -1.02,-5.48 -1.02,-5.48l-5.54 0c0,0 0.84,3.84 -1.02,5.48 -1.86,1.64 -4.03,1.64 -4.03,1.64l0 0.93 15.64 0 0 -0.93c0,0 -2.17,0 -4.03,-1.64z"/>
   <polygon class="fil6" points="80.65,93.8 65.01,93.8 65.01,92.87 80.65,92.87 "/>
   <path class="fil7" d="M93.5 83.29c0,1.36 -1.1,2.46 -2.46,2.46l-36.42 0c-1.36,0 -2.46,-1.1 -2.46,-2.46l0 -20.12c0,-1.36 1.1,-2.47 2.46,-2.47l36.42 0c1.36,0 2.46,1.11 2.46,2.47l0 20.12z"/>
   <path class="fil8" d="M52.16 63.17l0 20.12c0,0.48 0.14,0.92 0.37,1.3l40.6 0c0.23,-0.38 0.37,-0.82 0.37,-1.3l0 -20.12c0,-0.64 -0.24,-1.22 -0.64,-1.66l-40.06 0c-0.4,0.44 -0.64,1.02 -0.64,1.66z"/>
   <polygon class="fil9" points="53.94,83.74 91.72,83.74 91.72,62.35 53.94,62.35 "/>
   <polygon class="fil10" points="56.22,72.64 62.16,72.64 62.16,67.15 56.22,67.15 "/>
   <polygon class="fil10" points="70.49,72.64 76.43,72.64 76.43,67.15 70.49,67.15 "/>
   <polygon class="fil10" points="83.16,72.64 89.09,72.64 89.09,67.15 83.16,67.15 "/>
   <polygon class="fil11" points="56.22,74.19 65.73,74.19 65.73,73.79 56.22,73.79 "/>
   <polygon class="fil12" points="56.22,75.39 65.73,75.39 65.73,74.99 56.22,74.99 "/>
   <polygon class="fil13" points="56.22,76.5 65.73,76.5 65.73,76.1 56.22,76.1 "/>
   <polygon class="fil12" points="65.59,79.03 73.39,79.03 73.39,78.63 65.59,78.63 "/>
   <polygon class="fil11" points="57.42,79.03 64.62,79.03 64.62,78.63 57.42,78.63 "/>
   <polygon class="fil12" points="57.42,80.14 64.62,80.14 64.62,79.74 57.42,79.74 "/>
   <polygon class="fil11" points="65.59,80.14 69.25,80.14 69.25,79.74 65.59,79.74 "/>
   <polygon class="fil11" points="57.42,82.29 64.62,82.29 64.62,81.89 57.42,81.89 "/>
   <polygon class="fil12" points="65.59,82.29 69.25,82.29 69.25,81.89 65.59,81.89 "/>
   <polygon class="fil12" points="73.47,81.21 76.09,81.21 76.09,80.81 73.47,80.81 "/>
   <polygon class="fil14" points="57.42,77.74 72.98,77.74 72.98,77.34 57.42,77.34 "/>
   <polygon class="fil14" points="57.42,81.21 72.98,81.21 72.98,80.81 57.42,80.81 "/>
   <polygon class="fil11" points="73.47,83.56 76.09,83.56 76.09,83.16 73.47,83.16 "/>
   <polygon class="fil11" points="57.42,83.56 72.98,83.56 72.98,83.16 57.42,83.16 "/>
   <polygon class="fil12" points="83.94,79.17 90.25,79.17 90.25,78.77 83.94,78.77 "/>
   <polygon class="fil11" points="77.33,79.17 83.16,79.17 83.16,78.77 77.33,78.77 "/>
   <polygon class="fil12" points="77.33,80.28 83.16,80.28 83.16,79.88 77.33,79.88 "/>
   <polygon class="fil11" points="83.94,80.28 86.9,80.28 86.9,79.88 83.94,79.88 "/>
   <polygon class="fil11" points="77.33,82.43 83.16,82.43 83.16,82.03 77.33,82.03 "/>
   <polygon class="fil12" points="83.94,82.43 86.9,82.43 86.9,82.03 83.94,82.03 "/>
   <polygon class="fil14" points="77.33,77.88 89.92,77.88 89.92,77.48 77.33,77.48 "/>
   <polygon class="fil14" points="77.33,81.35 89.92,81.35 89.92,80.95 77.33,80.95 "/>
   <polygon class="fil11" points="77.33,83.7 89.92,83.7 89.92,83.3 77.33,83.3 "/>
   <polygon class="fil15" points="53.95,66.08 91.75,66.08 91.75,62.33 53.95,62.33 "/>
   <path class="fil16" d="M73.46 63.93c0,0.46 -0.37,0.84 -0.83,0.84l-16.28 0c-0.46,0 -0.83,-0.38 -0.83,-0.84 0,-0.46 0.37,-0.83 0.83,-0.83l16.28 0c0.46,0 0.83,0.37 0.83,0.83z"/>
   <path class="fil17" d="M86.66 63.64c0,0.29 -0.24,0.53 -0.53,0.53 -0.3,0 -0.53,-0.24 -0.53,-0.53 0,-0.3 0.23,-0.54 0.53,-0.54 0.29,0 0.53,0.24 0.53,0.54z"/>
   <path class="fil18" d="M88.43 63.64c0,0.29 -0.24,0.53 -0.53,0.53 -0.3,0 -0.54,-0.24 -0.54,-0.53 0,-0.3 0.24,-0.54 0.54,-0.54 0.29,0 0.53,0.24 0.53,0.54z"/>
   <path class="fil19" d="M90.27 63.64c0,0.29 -0.24,0.53 -0.53,0.53 -0.3,0 -0.54,-0.24 -0.54,-0.53 0,-0.3 0.24,-0.54 0.54,-0.54 0.29,0 0.53,0.24 0.53,0.54z"/>
   <path class="fil20" d="M96.5 92.32c0,0.37 -0.3,0.67 -0.67,0.67l-9.96 0c-0.37,0 -0.67,-0.3 -0.67,-0.67l0 -18.32c0,-0.36 0.3,-0.66 0.67,-0.66l9.96 0c0.37,0 0.67,0.3 0.67,0.66l0 18.32z"/>
   <polygon class="fil21" points="86.24,89.1 86.24,75.67 86.25,75.67 86.25,77.29 94.15,77.29 93.82,77.76 93.37,77.76 93.37,78.4 90.68,82.24 87.09,82.24 87.09,82.41 90.56,82.41 90.28,82.81 89.08,82.81 89.08,82.98 90.16,82.98 89.94,83.29 89.08,83.29 89.08,83.47 89.82,83.47 89.61,83.76 87.09,83.76 87.09,83.94 89.49,83.94 89.28,84.24 89.08,84.24 89.08,84.41 89.15,84.41 88.88,84.79 87.09,84.79 87.09,84.97 88.76,84.97 86.24,88.56 "/>
   <polygon class="fil10" points="86.8,80.17 88.25,80.17 88.25,77.76 86.8,77.76 "/>
   <polygon class="fil10" points="90.28,80.17 91.72,80.17 91.72,77.76 90.28,77.76 "/>
   <polygon class="fil10" points="93.37,80.17 94.81,80.17 94.81,77.76 93.37,77.76 "/>
   <polygon class="fil11" points="86.8,80.85 89.12,80.85 89.12,80.68 86.8,80.68 "/>
   <polygon class="fil12" points="86.8,81.38 89.12,81.38 89.12,81.21 86.8,81.21 "/>
   <polygon class="fil13" points="86.8,81.87 89.12,81.87 89.12,81.69 86.8,81.69 "/>
   <polygon class="fil12" points="89.08,82.98 90.98,82.98 90.98,82.81 89.08,82.81 "/>
   <polygon class="fil11" points="87.09,82.98 88.85,82.98 88.85,82.81 87.09,82.81 "/>
   <polygon class="fil12" points="87.09,83.47 88.85,83.47 88.85,83.29 87.09,83.29 "/>
   <polygon class="fil11" points="89.08,83.47 89.98,83.47 89.98,83.29 89.08,83.29 "/>
   <polygon class="fil11" points="87.09,84.41 88.85,84.41 88.85,84.24 87.09,84.24 "/>
   <polygon class="fil12" points="89.08,84.41 89.98,84.41 89.98,84.24 89.08,84.24 "/>
   <polygon class="fil12" points="91.01,83.94 91.64,83.94 91.64,83.76 91.01,83.76 "/>
   <polygon class="fil14" points="87.09,82.41 90.88,82.41 90.88,82.24 87.09,82.24 "/>
   <polygon class="fil14" points="87.09,83.94 90.88,83.94 90.88,83.76 87.09,83.76 "/>
   <polygon class="fil11" points="91.01,84.97 91.64,84.97 91.64,84.79 91.01,84.79 "/>
   <polygon class="fil11" points="87.09,84.97 90.88,84.97 90.88,84.79 87.09,84.79 "/>
   <polygon class="fil12" points="93.56,83.04 95.09,83.04 95.09,82.87 93.56,82.87 "/>
   <polygon class="fil11" points="91.95,83.04 93.37,83.04 93.37,82.87 91.95,82.87 "/>
   <polygon class="fil12" points="91.95,83.53 93.37,83.53 93.37,83.35 91.95,83.35 "/>
   <polygon class="fil11" points="93.56,83.53 94.28,83.53 94.28,83.35 93.56,83.35 "/>
   <polygon class="fil11" points="91.95,84.47 93.37,84.47 93.37,84.3 91.95,84.3 "/>
   <polygon class="fil12" points="93.56,84.47 94.28,84.47 94.28,84.3 93.56,84.3 "/>
   <polygon class="fil14" points="91.95,82.48 95.01,82.48 95.01,82.3 91.95,82.3 "/>
   <polygon class="fil14" points="91.95,84 95.01,84 95.01,83.82 91.95,83.82 "/>
   <polygon class="fil11" points="91.95,85.03 95.01,85.03 95.01,84.86 91.95,84.86 "/>
   <polygon class="fil15" points="86.25,77.29 95.46,77.29 95.46,75.64 86.25,75.64 "/>
   <path class="fil17" d="M94.22 76.12c0,0.08 -0.06,0.15 -0.13,0.15 -0.07,0 -0.13,-0.07 -0.13,-0.15 0,-0.07 0.06,-0.14 0.13,-0.14 0.07,0 0.13,0.07 0.13,0.14z"/>
   <path class="fil18" d="M94.65 76.12c0,0.07 -0.06,0.13 -0.13,0.13 -0.07,0 -0.13,-0.06 -0.13,-0.13 0,-0.08 0.06,-0.14 0.13,-0.14 0.07,0 0.13,0.06 0.13,0.14z"/>
   <path class="fil18" d="M95.1 76.11c0,0.07 -0.06,0.13 -0.13,0.13 -0.07,0 -0.13,-0.06 -0.13,-0.13 0,-0.07 0.06,-0.13 0.13,-0.13 0.07,0 0.13,0.06 0.13,0.13z"/>
   <path class="fil22" d="M95.46 89.1l-9.22 0 0 -0.54 2.52 -3.59 2.12 0 0 -0.18 -2 0 0.27 -0.38 0.83 0 0 -0.17 -0.7 0 0.21 -0.3 1.39 0 0 -0.18 -1.27 0 0.21 -0.29 0.16 0 0 -0.18 -0.04 0 0.22 -0.31 0.82 0 0 -0.17 -0.7 0 0.28 -0.4 0.32 0 0 -0.17 -0.2 0 2.69 -3.84 0 1.77 1.44 0 0 -2.41 -0.99 0 0.33 -0.47 1.31 0 0 11.81zm-3.51 -4.24l0 0.17 3.06 0 0 -0.17 -3.06 0zm-0.94 -0.07l0 0.18 0.63 0 0 -0.18 -0.63 0zm2.55 -0.49l0 0.17 0.72 0 0 -0.17 -0.72 0zm-1.61 0l0 0.17 1.42 0 0 -0.17 -1.42 0zm0 -0.48l0 0.18 3.06 0 0 -0.18 -3.06 0zm-0.94 -0.06l0 0.18 0.63 0 0 -0.18 -0.63 0zm2.55 -0.41l0 0.18 0.72 0 0 -0.18 -0.72 0zm-1.61 0l0 0.18 1.42 0 0 -0.18 -1.42 0zm1.61 -0.48l0 0.17 1.53 0 0 -0.17 -1.53 0zm-1.61 0l0 0.17 1.42 0 0 -0.17 -1.42 0zm0 -0.57l0 0.18 3.06 0 0 -0.18 -3.06 0z"/>
   <polygon class="fil23" points="94.81,80.17 93.37,80.17 93.37,78.4 93.82,77.76 94.81,77.76 "/>
   <polygon class="fil24" points="90.98,82.98 90.16,82.98 90.28,82.81 90.98,82.81 "/>
   <polygon class="fil25" points="89.98,83.47 89.82,83.47 89.94,83.29 89.98,83.29 "/>
   <polygon class="fil24" points="89.98,84.41 89.15,84.41 89.28,84.24 89.98,84.24 "/>
   <polygon class="fil24" points="91.01,83.94 91.64,83.94 91.64,83.76 91.01,83.76 "/>
   <polygon class="fil26" points="90.88,82.41 90.56,82.41 90.68,82.24 90.88,82.24 "/>
   <polygon class="fil26" points="90.88,83.94 89.49,83.94 89.61,83.76 90.88,83.76 "/>
   <polygon class="fil25" points="91.01,84.97 91.64,84.97 91.64,84.79 91.01,84.79 "/>
   <polygon class="fil25" points="90.88,84.97 88.76,84.97 88.88,84.79 90.88,84.79 "/>
   <polygon class="fil24" points="93.56,83.04 95.09,83.04 95.09,82.87 93.56,82.87 "/>
   <polygon class="fil25" points="91.95,83.04 93.37,83.04 93.37,82.87 91.95,82.87 "/>
   <polygon class="fil24" points="91.95,83.53 93.37,83.53 93.37,83.35 91.95,83.35 "/>
   <polygon class="fil25" points="93.56,83.53 94.28,83.53 94.28,83.35 93.56,83.35 "/>
   <polygon class="fil25" points="91.95,84.47 93.37,84.47 93.37,84.3 91.95,84.3 "/>
   <polygon class="fil24" points="93.56,84.47 94.28,84.47 94.28,84.3 93.56,84.3 "/>
   <polygon class="fil26" points="91.95,82.48 95.01,82.48 95.01,82.3 91.95,82.3 "/>
   <polygon class="fil26" points="91.95,84 95.01,84 95.01,83.82 91.95,83.82 "/>
   <polygon class="fil25" points="91.95,85.03 95.01,85.03 95.01,84.86 91.95,84.86 "/>
   <polygon class="fil27" points="95.46,77.29 94.15,77.29 94.85,76.3 94.9,76.22 95.04,76.02 95.28,75.67 95.46,75.67 "/>
   <path class="fil23" d="M94.97 76.24c-0.03,0 -0.08,-0.01 -0.07,-0.02l0.14 -0.22c0.04,0.02 0.06,0.06 0.06,0.11 0,0.07 -0.06,0.13 -0.13,0.13z"/>
   <path class="fil28" d="M75.06 47.94c0,0.59 -0.32,1.06 -0.72,1.06l-17.5 0c-0.41,0 -0.73,-0.47 -0.73,-1.06l0 -18.81c0,-0.58 0.32,-1.06 0.73,-1.06l17.5 0c0.4,0 0.72,0.48 0.72,1.06l0 18.81z"/>
   <path class="fil8" d="M74.34 24.77l-17.5 0c-0.41,0 -0.73,0.43 -0.73,0.96l0 3.72 18.95 0 0 -3.72c0,-0.53 -0.32,-0.96 -0.72,-0.96z"/>
   <path class="fil29" d="M72.06 25.53c0,0.22 -0.17,0.4 -0.37,0.4 -0.2,0 -0.36,-0.18 -0.36,-0.4 0,-0.21 0.16,-0.39 0.36,-0.39 0.2,0 0.37,0.18 0.37,0.39z"/>
   <path class="fil30" d="M73.26 25.53c0,0.22 -0.17,0.4 -0.37,0.4 -0.2,0 -0.36,-0.18 -0.36,-0.4 0,-0.21 0.16,-0.39 0.36,-0.39 0.2,0 0.37,0.18 0.37,0.39z"/>
   <path class="fil31" d="M74.51 25.53c0,0.22 -0.17,0.4 -0.37,0.4 -0.2,0 -0.36,-0.18 -0.36,-0.4 0,-0.21 0.16,-0.39 0.36,-0.39 0.2,0 0.37,0.18 0.37,0.39z"/>
   <path class="fil16" d="M69.26 26.02c0,0.34 -0.26,0.62 -0.57,0.62l-11.07 0c-0.31,0 -0.57,-0.28 -0.57,-0.62 0,-0.34 0.26,-0.61 0.57,-0.61l11.07 0c0.31,0 0.57,0.27 0.57,0.61z"/>
   <polygon class="fil32" points="57.55,35.11 61.59,35.11 61.59,31.07 57.55,31.07 "/>
   <polygon class="fil18" points="63.57,35.11 67.6,35.11 67.6,31.07 63.57,31.07 "/>
   <polygon class="fil33" points="69.31,35.11 73.34,35.11 73.34,31.07 69.31,31.07 "/>
   <polygon class="fil11" points="57.8,36.76 62.4,36.76 62.4,36.53 57.8,36.53 "/>
   <polygon class="fil12" points="57.8,37.44 62.4,37.44 62.4,37.22 57.8,37.22 "/>
   <polygon class="fil13" points="57.8,38.08 62.4,38.08 62.4,37.85 57.8,37.85 "/>
   <polygon class="fil11" points="57.8,43.99 62.4,43.99 62.4,43.76 57.8,43.76 "/>
   <polygon class="fil11" points="57.8,43.24 62.4,43.24 62.4,43.01 57.8,43.01 "/>
   <polygon class="fil11" points="57.8,44.77 62.4,44.77 62.4,44.54 57.8,44.54 "/>
   <polygon class="fil12" points="63.29,39.53 67.89,39.53 67.89,39.3 63.29,39.3 "/>
   <polygon class="fil11" points="58.43,39.53 63.04,39.53 63.04,39.3 58.43,39.3 "/>
   <polygon class="fil12" points="58.43,40.17 63.04,40.17 63.04,39.94 58.43,39.94 "/>
   <polygon class="fil11" points="63.29,40.17 65.45,40.17 65.45,39.94 63.29,39.94 "/>
   <polygon class="fil11" points="58.43,41.4 63.04,41.4 63.04,41.17 58.43,41.17 "/>
   <polygon class="fil12" points="63.29,41.4 65.45,41.4 65.45,41.17 63.29,41.17 "/>
   <polygon class="fil12" points="68.78,40.78 70.95,40.78 70.95,40.55 68.78,40.55 "/>
   <polygon class="fil14" points="58.43,38.79 68.38,38.79 68.38,38.56 58.43,38.56 "/>
   <polygon class="fil14" points="58.43,40.78 68.38,40.78 68.38,40.55 58.43,40.55 "/>
   <polygon class="fil11" points="68.78,42.13 70.95,42.13 70.95,41.9 68.78,41.9 "/>
   <polygon class="fil11" points="58.43,42.13 68.38,42.13 68.38,41.9 58.43,41.9 "/>
   <polygon class="fil34" points="68.15,45.41 70.31,45.41 70.31,45.18 68.15,45.18 "/>
   <polygon class="fil35" points="57.8,45.41 67.74,45.41 67.74,45.18 57.8,45.18 "/>
   <path class="fil36" d="M74.34 49l-8.75 0 0 -3.59 2.15 0 0 -0.23 -2.15 0 0 -3.05 2.79 0 0 -0.23 -2.79 0 0 -1.12 2.79 0 0 -0.23 -2.79 0 0 -1.02 2.3 0 0 -0.23 -2.3 0 0 -0.51 2.79 0 0 -0.23 -2.79 0 0 -3.45 2.01 0 0 -4.04 -2.01 0 0 -1.62 9.47 0 0 18.49c0,0.59 -0.32,1.06 -0.72,1.06zm-6.19 -3.82l0 0.23 2.16 0 0 -0.23 -2.16 0zm0.63 -3.28l0 0.23 2.17 0 0 -0.23 -2.17 0zm0 -1.35l0 0.23 2.17 0 0 -0.23 -2.17 0zm0.53 -9.48l0 4.04 4.03 0 0 -4.04 -4.03 0z"/>
   <path class="fil15" d="M75.06 29.45l-9.47 0 0 -2.81 3.1 0c0.31,0 0.57,-0.28 0.57,-0.62 0,-0.34 -0.26,-0.61 -0.57,-0.61l-3.1 0 0 -0.64 8.75 0c0.4,0 0.72,0.43 0.72,0.96l0 3.72zm-0.92 -4.31c-0.2,0 -0.36,0.18 -0.36,0.39 0,0.22 0.16,0.4 0.36,0.4 0.2,0 0.37,-0.18 0.37,-0.4 0,-0.21 -0.17,-0.39 -0.37,-0.39zm-1.25 0c-0.2,0 -0.36,0.18 -0.36,0.39 0,0.22 0.16,0.4 0.36,0.4 0.2,0 0.37,-0.18 0.37,-0.4 0,-0.21 -0.17,-0.39 -0.37,-0.39zm-1.2 0c-0.2,0 -0.36,0.18 -0.36,0.39 0,0.22 0.16,0.4 0.36,0.4 0.2,0 0.37,-0.18 0.37,-0.4 0,-0.21 -0.17,-0.39 -0.37,-0.39z"/>
   <path class="fil17" d="M71.69 25.93c-0.2,0 -0.36,-0.18 -0.36,-0.4 0,-0.21 0.16,-0.39 0.36,-0.39 0.2,0 0.37,0.18 0.37,0.39 0,0.22 -0.17,0.4 -0.37,0.4z"/>
   <path class="fil18" d="M72.89 25.93c-0.2,0 -0.36,-0.18 -0.36,-0.4 0,-0.21 0.16,-0.39 0.36,-0.39 0.2,0 0.37,0.18 0.37,0.39 0,0.22 -0.17,0.4 -0.37,0.4z"/>
   <path class="fil19" d="M74.14 25.93c-0.2,0 -0.36,-0.18 -0.36,-0.4 0,-0.21 0.16,-0.39 0.36,-0.39 0.2,0 0.37,0.18 0.37,0.39 0,0.22 -0.17,0.4 -0.37,0.4z"/>
   <path class="fil37" d="M68.69 26.64l-3.1 0 0 -1.23 3.1 0c0.31,0 0.57,0.27 0.57,0.61 0,0.34 -0.26,0.62 -0.57,0.62z"/>
   <polygon class="fil19" points="65.59,35.11 67.6,35.11 67.6,31.07 65.59,31.07 "/>
   <polygon class="fil38" points="69.31,35.11 73.34,35.11 73.34,31.07 69.31,31.07 "/>
   <polygon class="fil24" points="65.59,39.53 67.89,39.53 67.89,39.3 65.59,39.3 "/>
   <polygon class="fil24" points="68.78,40.78 70.95,40.78 70.95,40.55 68.78,40.55 "/>
   <polygon class="fil26" points="65.59,38.79 68.38,38.79 68.38,38.56 65.59,38.56 "/>
   <polygon class="fil26" points="65.59,40.78 68.38,40.78 68.38,40.55 65.59,40.55 "/>
   <polygon class="fil25" points="68.78,42.13 70.95,42.13 70.95,41.9 68.78,41.9 "/>
   <polygon class="fil25" points="65.59,42.13 68.38,42.13 68.38,41.9 65.59,41.9 "/>
   <polygon class="fil39" points="68.15,45.41 70.31,45.41 70.31,45.18 68.15,45.18 "/>
   <polygon class="fil40" points="65.59,45.41 67.74,45.41 67.74,45.18 65.59,45.18 "/>
   <path class="fil8" d="M59.56 88.26c0,2.24 -0.29,2.12 -2.54,2.12l-26.15 0c-2.25,0 -2.46,-0.21 -2.46,-2.46l0 -17.52c0,-2.25 0.47,-2.37 2.71,-2.37l25.14 -0.03c2.25,0 3.28,-0.44 3.28,1.8l0.02 18.46z"/>
   <polygon class="fil41" points="30.35,88.23 57.63,88.23 57.63,70.11 30.35,70.11 "/>
   <polygon class="fil10" points="31.99,78.15 36.27,78.15 36.27,73.87 31.99,73.87 "/>
   <polygon class="fil10" points="42.29,78.15 46.57,78.15 46.57,73.87 42.29,73.87 "/>
   <polygon class="fil10" points="51.44,78.15 55.72,78.15 55.72,73.87 51.44,73.87 "/>
   <polygon class="fil11" points="31.99,79.36 38.86,79.36 38.86,79.05 31.99,79.05 "/>
   <polygon class="fil12" points="31.99,80.3 38.86,80.3 38.86,79.99 31.99,79.99 "/>
   <polygon class="fil13" points="31.99,81.17 38.86,81.17 38.86,80.85 31.99,80.85 "/>
   <polygon class="fil12" points="38.75,83.14 44.38,83.14 44.38,82.83 38.75,82.83 "/>
   <polygon class="fil11" points="32.85,83.14 38.05,83.14 38.05,82.83 32.85,82.83 "/>
   <polygon class="fil12" points="32.85,84.01 38.05,84.01 38.05,83.7 32.85,83.7 "/>
   <polygon class="fil11" points="38.75,84.01 41.39,84.01 41.39,83.7 38.75,83.7 "/>
   <polygon class="fil11" points="32.85,85.69 38.05,85.69 38.05,85.37 32.85,85.37 "/>
   <polygon class="fil12" points="38.75,85.69 41.39,85.69 41.39,85.37 38.75,85.37 "/>
   <polygon class="fil12" points="44.44,84.84 46.33,84.84 46.33,84.53 44.44,84.53 "/>
   <polygon class="fil14" points="32.85,82.14 44.09,82.14 44.09,81.82 32.85,81.82 "/>
   <polygon class="fil14" points="32.85,84.84 44.09,84.84 44.09,84.53 32.85,84.53 "/>
   <polygon class="fil11" points="44.44,86.68 46.33,86.68 46.33,86.37 44.44,86.37 "/>
   <polygon class="fil11" points="32.85,86.68 44.09,86.68 44.09,86.37 32.85,86.37 "/>
   <polygon class="fil12" points="52,83.25 56.55,83.25 56.55,82.94 52,82.94 "/>
   <polygon class="fil11" points="47.23,83.25 51.43,83.25 51.43,82.94 47.23,82.94 "/>
   <polygon class="fil12" points="47.23,84.12 51.43,84.12 51.43,83.8 47.23,83.8 "/>
   <polygon class="fil11" points="52,84.12 54.14,84.12 54.14,83.8 52,83.8 "/>
   <polygon class="fil11" points="47.23,85.79 51.43,85.79 51.43,85.48 47.23,85.48 "/>
   <polygon class="fil12" points="52,85.79 54.14,85.79 54.14,85.48 52,85.48 "/>
   <polygon class="fil14" points="47.23,82.24 56.31,82.24 56.31,81.93 47.23,81.93 "/>
   <polygon class="fil14" points="47.23,84.95 56.31,84.95 56.31,84.64 47.23,84.64 "/>
   <polygon class="fil11" points="47.23,86.79 56.31,86.79 56.31,86.47 47.23,86.47 "/>
   <polygon class="fil15" points="30.35,73.03 57.63,73.03 57.63,70.11 30.35,70.11 "/>
   <path class="fil16" d="M44.43 71.36c0,0.36 -0.26,0.65 -0.59,0.65l-11.76 0c-0.33,0 -0.6,-0.29 -0.6,-0.65 0,-0.36 0.27,-0.65 0.6,-0.65l11.76 0c0.33,0 0.59,0.29 0.59,0.65z"/>
   <path class="fil17" d="M53.96 71.13c0,0.23 -0.17,0.42 -0.38,0.42 -0.21,0 -0.39,-0.19 -0.39,-0.42 0,-0.23 0.18,-0.42 0.39,-0.42 0.21,0 0.38,0.19 0.38,0.42z"/>
   <path class="fil18" d="M55.24 71.13c0,0.23 -0.17,0.42 -0.39,0.42 -0.21,0 -0.38,-0.19 -0.38,-0.42 0,-0.23 0.17,-0.42 0.38,-0.42 0.22,0 0.39,0.19 0.39,0.42z"/>
   <path class="fil19" d="M56.57 71.13c0,0.23 -0.18,0.42 -0.39,0.42 -0.21,0 -0.39,-0.19 -0.39,-0.42 0,-0.23 0.18,-0.42 0.39,-0.42 0.21,0 0.39,0.19 0.39,0.42z"/>
   <rect class="fil42" x="86.83" y="75.98" width="3.97" height="0.73" rx="0.37" ry="0.37"/>
  </g>
 </g>
</svg>
