<?xml version="1.0" encoding="UTF-8"?>
<!DOCTYPE svg PUBLIC "-//W3C//DTD SVG 1.1//EN" "http://www.w3.org/Graphics/SVG/1.1/DTD/svg11.dtd">
<!-- Creator: CorelDRAW 2020 (64-Bit) -->
<svg xmlns="http://www.w3.org/2000/svg" xml:space="preserve" width="128px" height="128px" version="1.1" style="shape-rendering:geometricPrecision; text-rendering:geometricPrecision; image-rendering:optimizeQuality; fill-rule:evenodd; clip-rule:evenodd"
viewBox="0 0 128 128"
 xmlns:xlink="http://www.w3.org/1999/xlink"
 xmlns:xodm="http://www.corel.com/coreldraw/odm/2003">
 <defs>
  <style type="text/css">
   <![CDATA[
    .fil29 {fill:#D2D3D5}
    .fil36 {fill:#606062}
    .fil30 {fill:#4B4B4D}
    .fil35 {fill:#414242}
    .fil26 {fill:#435366}
    .fil25 {fill:#294242}
    .fil32 {fill:#373435;fill-rule:nonzero}
    .fil5 {fill:#F9D779;fill-rule:nonzero}
    .fil4 {fill:#F9D060;fill-rule:nonzero}
    .fil34 {fill:#ECEDEF;fill-rule:nonzero}
    .fil1 {fill:#EAC869;fill-rule:nonzero}
    .fil17 {fill:#E4AF36;fill-rule:nonzero}
    .fil7 {fill:#DBDBDB;fill-rule:nonzero}
    .fil28 {fill:#D6DCE0;fill-rule:nonzero}
    .fil20 {fill:#A4883E;fill-rule:nonzero}
    .fil21 {fill:#6B3E2D;fill-rule:nonzero}
    .fil31 {fill:#A8ABAA;fill-rule:nonzero}
    .fil23 {fill:#623A2C;fill-rule:nonzero}
    .fil33 {fill:#9CA5B1;fill-rule:nonzero}
    .fil3 {fill:#756137;fill-rule:nonzero}
    .fil15 {fill:#6D5934;fill-rule:nonzero}
    .fil18 {fill:#635132;fill-rule:nonzero}
    .fil22 {fill:#40322C;fill-rule:nonzero}
    .fil24 {fill:#3D312C;fill-rule:nonzero}
    .fil16 {fill:#413A2E;fill-rule:nonzero}
    .fil19 {fill:#3E382E;fill-rule:nonzero}
    .fil6 {fill:#4B4B4B;fill-rule:nonzero}
    .fil11 {fill:#37BBA1;fill-rule:nonzero}
    .fil14 {fill:#2C2D2F;fill-rule:nonzero}
    .fil10 {fill:#2C2D30;fill-rule:nonzero}
    .fil27 {fill:#323840;fill-rule:nonzero}
    .fil13 {fill:#2D3039;fill-rule:nonzero}
    .fil9 {fill:#2D303B;fill-rule:nonzero}
    .fil8 {fill:#36446D;fill-rule:nonzero}
    .fil12 {fill:#334063;fill-rule:nonzero}
    .fil2 {fill:url(#id0)}
    .fil0 {fill:url(#id1)}
   ]]>
  </style>
  <linearGradient id="id0" gradientUnits="userSpaceOnUse" x1="93.42" y1="113.41" x2="38.46" y2="24.13">
   <stop offset="0" style="stop-opacity:1; stop-color:#E6E6E6"/>
   <stop offset="0.180392" style="stop-opacity:1; stop-color:#C7C7C7"/>
   <stop offset="1" style="stop-opacity:1; stop-color:#E6E6E6"/>
  </linearGradient>
  <linearGradient id="id1" gradientUnits="userSpaceOnUse" x1="28.18" y1="19.46" x2="107.09" y2="102.28">
   <stop offset="0" style="stop-opacity:1; stop-color:#E6E6E6"/>
   <stop offset="0.568627" style="stop-opacity:1; stop-color:#999999"/>
   <stop offset="1" style="stop-opacity:1; stop-color:#E6E6E6"/>
  </linearGradient>
 </defs>
 <g id="Capa_x0020_1">
  <metadata id="CorelCorpID_0Corel-Layer"/>
  <circle class="fil0" cx="64" cy="64" r="49.21"/>
  <path class="fil1" d="M64 0c17.67,0 33.67,7.16 45.25,18.75 11.59,11.58 18.75,27.58 18.75,45.25 0,17.67 -7.16,33.67 -18.75,45.25 -11.58,11.59 -27.58,18.75 -45.25,18.75 -17.67,0 -33.67,-7.16 -45.25,-18.75 -11.59,-11.58 -18.75,-27.58 -18.75,-45.25 0,-17.67 7.16,-33.67 18.75,-45.25 11.58,-11.59 27.58,-18.75 45.25,-18.75zm43.62 20.38c-11.17,-11.16 -26.59,-18.06 -43.62,-18.06 -17.03,0 -32.45,6.9 -43.62,18.06 -11.16,11.17 -18.06,26.59 -18.06,43.62 0,17.03 6.9,32.45 18.06,43.62 11.17,11.16 26.59,18.06 43.62,18.06 17.03,0 32.45,-6.9 43.62,-18.06 11.16,-11.17 18.06,-26.59 18.06,-43.62 0,-17.03 -6.9,-32.45 -18.06,-43.62z"/>
  <circle class="fil2" cx="64" cy="64" r="47.34"/>
  <g id="_1652051465168">
   <path class="fil3" d="M66.67 24.62l-14.61 6.31 0 15.65c0,0 0.86,10.9 14.61,16.96 13.75,-6.06 14.62,-16.96 14.62,-16.96l0 -15.65 -14.62 -6.31z"/>
   <path class="fil4" d="M66.67 28.59l-11.63 5.03 0 12.45c0,0 0.69,8.67 11.63,13.49 10.94,-4.82 11.63,-13.49 11.63,-13.49l0 -12.45 -11.63 -5.03z"/>
   <path class="fil5" d="M66.67 59.56l0 -0.6 0.22 -0.22 -0.22 -0.22 0 -29.93 9.9 4.28c-1.03,0.74 -1.7,1.94 -1.7,3.31 0,0.19 0.01,0.38 0.04,0.56 -1.27,0.41 -2.18,1.6 -2.18,3 0,1.75 1.42,3.17 3.16,3.17l2.41 0 0 3.16c0,0 -0.56,7.03 -8.65,11.95l-0.63 0 0 0.36c-0.72,0.41 -1.5,0.81 -2.35,1.18z"/>
   <polygon class="fil3" points="66.61,47.63 75.79,39.79 74.41,38.17 66.81,44.68 63.65,41.12 62.06,42.53 66.59,47.63 66.6,47.64 66.6,47.64 "/>
   <polygon class="fil6" points="35.27,84.78 34.74,84.49 49.12,58.53 61.13,58.53 61.13,59.13 49.48,59.13 "/>
   <polygon class="fil6" points="61.58,86.53 60.99,86.53 60.99,63.79 66.46,58.32 66.89,58.74 61.58,64.04 "/>
   <polygon class="fil6" points="94.25,85.95 84.18,58.62 69.02,58.62 69.02,58.02 84.6,58.02 94.81,85.74 "/>
   <path class="fil6" d="M62.25 58.78c0,0.54 -0.43,0.98 -0.98,0.98 -0.54,0 -0.98,-0.44 -0.98,-0.98 0,-0.54 0.44,-0.98 0.98,-0.98 0.55,0 0.98,0.44 0.98,0.98z"/>
   <path class="fil6" d="M67.5 58.53c0,0.54 -0.44,0.98 -0.98,0.98 -0.55,0 -0.99,-0.44 -0.99,-0.98 0,-0.55 0.44,-0.99 0.99,-0.99 0.54,0 0.98,0.44 0.98,0.99z"/>
   <path class="fil6" d="M70.36 58.32c0,0.54 -0.44,0.98 -0.98,0.98 -0.54,0 -0.98,-0.44 -0.98,-0.98 0,-0.55 0.44,-0.99 0.98,-0.99 0.54,0 0.98,0.44 0.98,0.99z"/>
   <path class="fil7" d="M45.62 65.07l0.44 0 0 -0.66c0,-0.18 -0.15,-0.33 -0.33,-0.33l-1.81 0c-0.18,0 -0.33,0.15 -0.33,0.33l0 2.71c0,0.18 0.15,0.33 0.33,0.33l0.1 0 0 -3.02 1.6 0 0 0.64z"/>
   <path class="fil8" d="M46.44 69.12c0,0.18 -0.15,0.33 -0.34,0.33l-2.55 0c-0.18,0 -0.33,-0.15 -0.33,-0.33l0 -2.83c0,-0.18 0.15,-0.33 0.33,-0.33l2.55 0c0.19,0 0.34,0.15 0.34,0.33l0 2.83z"/>
   <path class="fil9" d="M44.69 67.91l0 -0.28c-0.09,-0.05 -0.15,-0.15 -0.15,-0.25 0,-0.16 0.13,-0.29 0.29,-0.29 0.16,0 0.28,0.13 0.28,0.29 0,0 0,0.01 0,0.02l-0.18 0.21 0 -0.03c0.08,-0.04 0.12,-0.11 0.12,-0.2 0,-0.12 -0.1,-0.23 -0.22,-0.23 -0.13,0 -0.23,0.11 -0.23,0.23 0,0.09 0.05,0.16 0.12,0.2l0 0.29 -0.03 0.04z"/>
   <path class="fil10" d="M44.72 67.87l0 -0.29c-0.07,-0.04 -0.12,-0.11 -0.12,-0.2 0,-0.12 0.1,-0.23 0.23,-0.23 0.12,0 0.22,0.11 0.22,0.23 0,0.09 -0.04,0.16 -0.12,0.2l0 0.03 -0.21 0.26z"/>
   <path class="fil11" d="M46.44 66.29c0,0 0,0 0,0 0,0 0,0 0,0zm-0.01 -0.01c0,0 0,0 0,0 0,0 0,0 0,0zm0 -0.01c0,0 0,0 0,0 0,0 0,0 0,0zm0 0c0,0 0,0 0,0 0,0 0,0 0,0z"/>
   <path class="fil12" d="M46.1 69.45l-2.55 0c0,0 0,0 0,0 -0.04,0 -0.08,-0.01 -0.12,-0.03l1.26 -1.51 0 0.41 0.27 0 0 -0.69c0.09,-0.05 0.15,-0.14 0.15,-0.23l1.16 -1.39c0.09,0.05 0.15,0.14 0.16,0.26 0,0 0,0 0,0 0,0 0,0 0,0 0,0 0,0 0,0 0,0.01 0,0.01 0,0.01 0,0 0,0 0,0 0.01,0.01 0.01,0.01 0.01,0.01 0,0 0,0 0,0 0,0 0,0 0,0l0 2.83c0,0.18 -0.15,0.33 -0.34,0.33z"/>
   <path class="fil13" d="M44.96 68.32l-0.27 0 0 -0.41 0.03 -0.04 0 0.39 0.21 0 0 -0.14 0 0 0 -0.51 0.18 -0.21c0,0.09 -0.06,0.18 -0.15,0.23l0 0.69z"/>
   <polygon class="fil14" points="44.93,68.26 44.72,68.26 44.72,67.87 44.93,67.61 44.93,68.12 44.93,68.12 "/>
   <path class="fil7" d="M61.8 66l0.44 0 0 -0.65c0,-0.18 -0.15,-0.33 -0.34,-0.33l-1.8 0c-0.18,0 -0.33,0.15 -0.33,0.33l0 2.71c0,0.18 0.15,0.33 0.33,0.33l0.1 0 0 -3.02 1.6 0 0 0.63z"/>
   <path class="fil4" d="M62.61 70.05c0,0.19 -0.15,0.34 -0.33,0.34l-2.55 0c-0.18,0 -0.33,-0.15 -0.33,-0.34l0 -2.82c0,-0.18 0.15,-0.33 0.33,-0.33l2.55 0c0.18,0 0.33,0.15 0.33,0.33l0 2.82z"/>
   <path class="fil15" d="M60.87 68.84l0 -0.28c-0.09,-0.04 -0.15,-0.14 -0.15,-0.25 0,-0.15 0.13,-0.28 0.28,-0.28 0.16,0 0.29,0.13 0.29,0.28 0,0.01 0,0.02 0,0.02l-0.18 0.22 0 -0.03c0.07,-0.04 0.12,-0.12 0.12,-0.2 0,-0.13 -0.1,-0.23 -0.23,-0.23 -0.12,0 -0.22,0.1 -0.22,0.23 0,0.08 0.05,0.16 0.12,0.2l0 0.29 -0.03 0.03z"/>
   <path class="fil16" d="M60.9 68.81l0 -0.29c-0.07,-0.04 -0.12,-0.12 -0.12,-0.2 0,-0.13 0.1,-0.23 0.22,-0.23 0.13,0 0.23,0.1 0.23,0.23 0,0.08 -0.05,0.16 -0.12,0.2l0 0.03 -0.21 0.26z"/>
   <path class="fil11" d="M60.99 70.39l-1.26 0c0,0 0,0 0,0 0,0 0,0 0,0l1.26 0z"/>
   <path class="fil11" d="M62.61 67.23c0,0 0,0 0,0 0,0 0,0 0,0zm0 -0.01c0,0 0,0 0,0 0,0 0,0 0,0zm0 -0.01c0,0 0,0 0,0 0,0 0,0 0,0zm0 -0.01c0,0 0,0 0,0 0,0 0,0 0,0zm0 -0.01l0 0 0 0zm0 0l0 0 0 0zm0 -0.02l0 0 0 0z"/>
   <path class="fil17" d="M62.28 70.39l-2.55 0c0,0 0,0 0,0 -0.05,0 -0.09,-0.01 -0.12,-0.03l1.26 -1.52 0 0.41 0.27 0 0 -0.69c0.09,-0.04 0.14,-0.13 0.15,-0.23l1.16 -1.39c0.08,0.05 0.14,0.14 0.16,0.23l0 0c0,0.01 0,0.01 0,0.02l0 0c0,0 0,0 0,0l0 0c0,0 0,0.01 0,0.01 0,0 0,0 0,0 0,0.01 0,0.01 0,0.01 0,0 0,0 0,0 0,0 0,0.01 0,0.01 0,0 0,0 0,0 0,0 0,0 0,0.01 0,0 0,0 0,0 0,0 0,0 0,0l0 2.82c0,0.19 -0.15,0.34 -0.33,0.34z"/>
   <path class="fil18" d="M61.14 69.25l-0.27 0 0 -0.41 0.03 -0.03 0 0.39 0.21 0 0 -0.65 0.18 -0.22c-0.01,0.1 -0.06,0.19 -0.15,0.23l0 0.69z"/>
   <polygon class="fil19" points="61.11,69.2 60.9,69.2 60.9,68.81 61.11,68.55 "/>
   <path class="fil7" d="M89.14 66.39l0.44 0 0 -0.65c0,-0.19 -0.15,-0.33 -0.33,-0.33l-1.81 0c-0.18,0 -0.33,0.14 -0.33,0.33l0 2.71c0,0.18 0.15,0.33 0.33,0.33l0.1 0 0 -3.02 1.6 0 0 0.63z"/>
   <path class="fil20" d="M89.95 70.45c0,0.18 -0.14,0.33 -0.33,0.33l-2.55 0c-0.18,0 -0.33,-0.15 -0.33,-0.33l0 -2.83c0,-0.18 0.15,-0.33 0.33,-0.33l2.55 0c0.19,0 0.33,0.15 0.33,0.33l0 2.83z"/>
   <path class="fil21" d="M88.21 69.23l0 -0.28c-0.09,-0.04 -0.15,-0.14 -0.15,-0.25 0,-0.15 0.13,-0.28 0.29,-0.28 0.15,0 0.28,0.13 0.28,0.28 0,0.01 0,0.02 0,0.02l-0.18 0.22 0 -0.03c0.07,-0.04 0.12,-0.11 0.12,-0.2 0,-0.13 -0.1,-0.23 -0.22,-0.23 -0.13,0 -0.23,0.1 -0.23,0.23 0,0.09 0.05,0.16 0.12,0.2l0 0.29 -0.03 0.03z"/>
   <path class="fil22" d="M88.24 69.2l0 -0.29c-0.07,-0.04 -0.12,-0.11 -0.12,-0.2 0,-0.13 0.1,-0.23 0.23,-0.23 0.12,0 0.22,0.1 0.22,0.23 0,0.09 -0.05,0.16 -0.12,0.2l0 0.03 -0.21 0.26z"/>
   <path class="fil11" d="M89.95 67.62c0,0 0,-0.01 0,-0.01 0,0 0,0.01 0,0.01zm0 -0.01c0,0 0,0 0,0 0,0 0,0 0,0zm0 -0.01l0 0 0 0zm0 0c0,0 0,0 0,0 0,0 0,0 0,0zm0 -0.01l0 0 0 0zm0 -0.01c0,0 0,0 0,0 0,0 0,0 0,0z"/>
   <path class="fil3" d="M89.62 70.78l-2.55 0 0 0c-0.04,0 -0.08,-0.01 -0.12,-0.03l1.26 -1.52 0 0.41 0.27 0 0 -0.69c0.09,-0.04 0.15,-0.13 0.15,-0.23l1.16 -1.38c0.08,0.05 0.15,0.13 0.16,0.24 0,0 0,0 0,0 0,0.01 0,0.01 0,0.01l0 0c0,0.01 0,0.01 0,0.01 0,0 0,0 0,0 0,0 0,0 0,0l0 0c0,0.01 0,0.01 0,0.01 0,0 0,0 0,0 0,0 0,0 0,0 0,0 0,0.01 0,0.01 0,0 0,0 0,0l0 2.83c0,0.18 -0.14,0.33 -0.33,0.33z"/>
   <path class="fil23" d="M88.48 69.64l-0.27 0 0 -0.41 0.03 -0.03 0 0.39 0.21 0 0 -0.14 0 0 0 -0.51 0.18 -0.22c0,0.1 -0.06,0.19 -0.15,0.23l0 0.69z"/>
   <polygon class="fil24" points="88.45,69.59 88.24,69.59 88.24,69.2 88.45,68.94 88.45,69.45 88.45,69.45 "/>
   <polygon class="fil25" points="29.68,82.52 40.06,82.52 40.06,82.04 29.68,82.04 "/>
   <path class="fil26" d="M26.77 76.62c0.01,-0.01 0.03,-0.01 0.04,-0.01 -0.01,0 -0.03,0 -0.04,0.01zm-0.07 0.01c0.01,0 0.02,0 0.03,-0.01 -0.01,0.01 -0.02,0.01 -0.03,0.01zm-0.07 0.02c0.01,0 0.02,-0.01 0.03,-0.01 -0.01,0 -0.02,0.01 -0.03,0.01zm-0.06 0.02c0.01,0 0.01,0 0.02,0 -0.01,0 -0.01,0 -0.02,0zm-0.06 0.03l0.02 -0.01 -0.02 0.01zm-0.05 0.04l0.01 -0.01 -0.01 0.01zm-0.05 0.03l0 0 0 0zm0.43 -0.16c0.02,0 0.05,-0.01 0.07,-0.01 -0.02,0 -0.05,0.01 -0.07,0.01zm-0.64 0.42c0,0 -0.01,0.01 -0.01,0.02 0,-0.01 0.01,-0.02 0.01,-0.02zm0.02 -0.05l-0.01 0.01 0.01 -0.01zm-0.03 0.1c-0.01,0.01 -0.01,0.02 -0.01,0.03 0,-0.01 0,-0.02 0.01,-0.03zm16.4 -0.91l-15.61 0c-0.72,0 -0.94,0.45 -0.8,0.98 0,0 0,-0.01 0,-0.02 0,0.04 0,0.08 0.01,0.11l1.13 4.27c0.17,0.64 0.32,0.67 1.17,0.67l13.05 0c0.67,0 1.01,0 1.14,-0.65l0.88 -4.29c0,-0.01 0,-0.03 0,-0.04l0.01 0 0.04 -0.36c0.06,-0.53 -0.63,-0.67 -1.02,-0.67z"/>
   <path class="fil27" d="M43.57 77.2l0 0c-0.06,-0.27 -0.4,-0.6 -0.73,-0.6l-15.93 0 0 0c-0.05,0 -0.09,0.01 -0.14,0.02 0,0 0,0 0,0 0,0 0,0 0,0 -0.11,0.01 -0.21,0.05 -0.31,0.11l0.01 0 -0.01 0c-0.16,0.1 -0.28,0.25 -0.28,0.42 -0.03,-0.09 -0.04,-0.19 -0.04,-0.28 0,-0.4 0.25,-0.7 0.84,-0.7l15.61 0c0.38,0 1.02,0.13 1.02,0.6 0,0.02 0,0.04 0,0.07l-0.04 0.36z"/>
   <polygon class="fil28" points="27.97,81.86 26.97,76.91 33.32,76.9 29.82,81.86 32.16,81.85 36.67,76.9 38.33,76.89 33.97,81.85 34.44,81.85 39.93,76.89 42.86,76.89 42.01,81.85 "/>
   <path class="fil29" d="M27.75 82.32l14.33 0c0.24,0 0.43,0.2 0.43,0.43l0 7.9c0,0.24 -0.19,0.44 -0.43,0.44l-14.33 0c-0.23,0 -0.43,-0.2 -0.43,-0.44l0 -7.9c0,-0.23 0.2,-0.43 0.43,-0.43z"/>
   <polygon class="fil30" points="32.89,90.54 36.95,90.54 36.95,88.41 32.89,88.41 "/>
   <polygon class="fil31" points="28.08,88.04 41.76,88.04 41.76,83.06 28.08,83.06 "/>
   <path class="fil32" d="M36.37 90.41l-3.01 0c-0.11,0 -0.19,-0.41 -0.19,-0.92 0,-0.5 0.08,-0.91 0.19,-0.91l3.01 0c0.11,0 0.2,0.41 0.2,0.91 0,0.51 -0.09,0.92 -0.2,0.92z"/>
   <polygon class="fil33" points="33.32,76.9 33.33,76.89 36.67,76.89 36.67,76.9 "/>
   <polygon class="fil34" points="29.82,81.86 33.32,76.9 36.67,76.9 32.16,81.85 "/>
   <polygon class="fil33" points="38.33,76.89 38.33,76.89 39.94,76.89 39.93,76.89 "/>
   <polygon class="fil34" points="34.44,81.85 33.97,81.85 38.33,76.89 39.93,76.89 "/>
   <path class="fil35" d="M28.37 83.35l0.64 0c0.03,0 0.06,0.04 0.06,0.09l0 0.69c0,0.05 -0.03,0.09 -0.06,0.09l-0.64 0c-0.04,0 -0.07,-0.04 -0.07,-0.09l0 -0.69c0,-0.05 0.03,-0.09 0.07,-0.09z"/>
   <path class="fil35" d="M29.4 83.35l0.64 0c0.03,0 0.07,0.04 0.07,0.09l0 0.69c0,0.05 -0.04,0.09 -0.07,0.09l-0.64 0c-0.04,0 -0.07,-0.04 -0.07,-0.09l0 -0.69c0,-0.05 0.03,-0.09 0.07,-0.09z"/>
   <path class="fil35" d="M30.43 83.35l0.64 0c0.04,0 0.07,0.04 0.07,0.09l0 0.69c0,0.05 -0.03,0.09 -0.07,0.09l-0.64 0c-0.03,0 -0.06,-0.04 -0.06,-0.09l0 -0.69c0,-0.05 0.03,-0.09 0.06,-0.09z"/>
   <path class="fil35" d="M31.46 83.35l0.64 0c0.04,0 0.07,0.04 0.07,0.09l0 0.69c0,0.05 -0.03,0.09 -0.07,0.09l-0.64 0c-0.03,0 -0.06,-0.04 -0.06,-0.09l0 -0.69c0,-0.05 0.03,-0.09 0.06,-0.09z"/>
   <path class="fil35" d="M32.5 83.35l0.63 0c0.04,0 0.07,0.04 0.07,0.09l0 0.69c0,0.05 -0.03,0.09 -0.07,0.09l-0.63 0c-0.04,0 -0.07,-0.04 -0.07,-0.09l0 -0.69c0,-0.05 0.03,-0.09 0.07,-0.09z"/>
   <path class="fil35" d="M33.53 83.35l0.63 0c0.04,0 0.07,0.04 0.07,0.09l0 0.69c0,0.05 -0.03,0.09 -0.07,0.09l-0.63 0c-0.04,0 -0.07,-0.04 -0.07,-0.09l0 -0.69c0,-0.05 0.03,-0.09 0.07,-0.09z"/>
   <path class="fil35" d="M34.56 83.35l0.63 0c0.04,0 0.07,0.04 0.07,0.09l0 0.69c0,0.05 -0.03,0.09 -0.07,0.09l-0.63 0c-0.04,0 -0.07,-0.04 -0.07,-0.09l0 -0.69c0,-0.05 0.03,-0.09 0.07,-0.09z"/>
   <path class="fil35" d="M35.59 83.35l0.63 0c0.04,0 0.07,0.04 0.07,0.09l0 0.69c0,0.05 -0.03,0.09 -0.07,0.09l-0.63 0c-0.04,0 -0.07,-0.04 -0.07,-0.09l0 -0.69c0,-0.05 0.03,-0.09 0.07,-0.09z"/>
   <path class="fil35" d="M36.62 83.35l0.64 0c0.03,0 0.06,0.04 0.06,0.09l0 0.69c0,0.05 -0.03,0.09 -0.06,0.09l-0.64 0c-0.04,0 -0.07,-0.04 -0.07,-0.09l0 -0.69c0,-0.05 0.03,-0.09 0.07,-0.09z"/>
   <path class="fil35" d="M37.65 83.35l0.64 0c0.04,0 0.06,0.04 0.06,0.09l0 0.69c0,0.05 -0.02,0.09 -0.06,0.09l-0.64 0c-0.03,0 -0.07,-0.04 -0.07,-0.09l0 -0.69c0,-0.05 0.04,-0.09 0.07,-0.09z"/>
   <path class="fil35" d="M38.68 83.35l0.64 0c0.04,0 0.07,0.04 0.07,0.09l0 0.69c0,0.05 -0.03,0.09 -0.07,0.09l-0.64 0c-0.03,0 -0.07,-0.04 -0.07,-0.09l0 -0.69c0,-0.05 0.04,-0.09 0.07,-0.09z"/>
   <path class="fil35" d="M29.92 84.55l0.63 0c0.04,0 0.07,0.04 0.07,0.09l0 0.68c0,0.05 -0.03,0.09 -0.07,0.09l-0.63 0c-0.04,0 -0.07,-0.04 -0.07,-0.09l0 -0.68c0,-0.05 0.03,-0.09 0.07,-0.09z"/>
   <path class="fil35" d="M30.95 84.55l0.64 0c0.03,0 0.07,0.04 0.07,0.09l0 0.68c0,0.05 -0.04,0.09 -0.07,0.09l-0.64 0c-0.04,0 -0.07,-0.04 -0.07,-0.09l0 -0.68c0,-0.05 0.03,-0.09 0.07,-0.09z"/>
   <path class="fil35" d="M31.98 84.55l0.64 0c0.03,0 0.07,0.04 0.07,0.09l0 0.68c0,0.05 -0.04,0.09 -0.07,0.09l-0.64 0c-0.04,0 -0.07,-0.04 -0.07,-0.09l0 -0.68c0,-0.05 0.03,-0.09 0.07,-0.09z"/>
   <path class="fil35" d="M33.01 84.55l0.64 0c0.04,0 0.06,0.04 0.06,0.09l0 0.68c0,0.05 -0.02,0.09 -0.06,0.09l-0.64 0c-0.03,0 -0.07,-0.04 -0.07,-0.09l0 -0.68c0,-0.05 0.04,-0.09 0.07,-0.09z"/>
   <path class="fil35" d="M34.04 84.55l0.64 0c0.04,0 0.07,0.04 0.07,0.09l0 0.68c0,0.05 -0.03,0.09 -0.07,0.09l-0.64 0c-0.03,0 -0.07,-0.04 -0.07,-0.09l0 -0.68c0,-0.05 0.04,-0.09 0.07,-0.09z"/>
   <path class="fil35" d="M35.07 84.55l0.64 0c0.04,0 0.07,0.04 0.07,0.09l0 0.68c0,0.05 -0.03,0.09 -0.07,0.09l-0.64 0c-0.03,0 -0.06,-0.04 -0.06,-0.09l0 -0.68c0,-0.05 0.03,-0.09 0.06,-0.09z"/>
   <path class="fil35" d="M36.11 84.55l0.63 0c0.04,0 0.07,0.04 0.07,0.09l0 0.68c0,0.05 -0.03,0.09 -0.07,0.09l-0.63 0c-0.04,0 -0.07,-0.04 -0.07,-0.09l0 -0.68c0,-0.05 0.03,-0.09 0.07,-0.09z"/>
   <path class="fil35" d="M37.14 84.55l0.63 0c0.04,0 0.07,0.04 0.07,0.09l0 0.68c0,0.05 -0.03,0.09 -0.07,0.09l-0.63 0c-0.04,0 -0.07,-0.04 -0.07,-0.09l0 -0.68c0,-0.05 0.03,-0.09 0.07,-0.09z"/>
   <path class="fil35" d="M38.17 84.55l0.63 0c0.04,0 0.07,0.04 0.07,0.09l0 0.68c0,0.05 -0.03,0.09 -0.07,0.09l-0.63 0c-0.04,0 -0.07,-0.04 -0.07,-0.09l0 -0.68c0,-0.05 0.03,-0.09 0.07,-0.09z"/>
   <path class="fil35" d="M39.2 84.55l0.63 0c0.04,0 0.07,0.04 0.07,0.09l0 0.68c0,0.05 -0.03,0.09 -0.07,0.09l-0.63 0c-0.04,0 -0.07,-0.04 -0.07,-0.09l0 -0.68c0,-0.05 0.03,-0.09 0.07,-0.09z"/>
   <path class="fil35" d="M39.72 83.35l0.63 0c0.04,0 0.07,0.04 0.07,0.09l0 0.69c0,0.05 -0.03,0.09 -0.07,0.09l-0.63 0c-0.04,0 -0.07,-0.04 -0.07,-0.09l0 -0.69c0,-0.05 0.03,-0.09 0.07,-0.09z"/>
   <path class="fil35" d="M40.74 83.35l0.64 0c0.04,0 0.07,0.04 0.07,0.09l0 0.69c0,0.05 -0.03,0.09 -0.07,0.09l-0.64 0c-0.03,0 -0.06,-0.04 -0.06,-0.09l0 -0.69c0,-0.05 0.03,-0.09 0.06,-0.09z"/>
   <path class="fil35" d="M40.25 84.55l1.13 0c0.04,0 0.07,0.04 0.07,0.09l0 0.68c0,0.05 -0.03,0.09 -0.07,0.09l-1.13 0c-0.04,0 -0.07,-0.04 -0.07,-0.09l0 -0.68c0,-0.05 0.03,-0.09 0.07,-0.09z"/>
   <path class="fil35" d="M28.38 84.55l1.18 0c0.03,0 0.07,0.04 0.07,0.09l0 0.68c0,0.05 -0.04,0.09 -0.07,0.09l-1.18 0c-0.04,0 -0.07,-0.04 -0.07,-0.09l0 -0.68c0,-0.05 0.03,-0.09 0.07,-0.09z"/>
   <path class="fil35" d="M28.38 85.75l1.4 0c0.04,0 0.07,0.03 0.07,0.08l0 0.69c0,0.05 -0.03,0.09 -0.07,0.09l-1.4 0c-0.04,0 -0.07,-0.04 -0.07,-0.09l0 -0.69c0,-0.05 0.03,-0.08 0.07,-0.08z"/>
   <path class="fil35" d="M28.38 86.94l0.63 0c0.04,0 0.07,0.04 0.07,0.09l0 0.68c0,0.05 -0.03,0.09 -0.07,0.09l-0.63 0c-0.04,0 -0.07,-0.04 -0.07,-0.09l0 -0.68c0,-0.05 0.03,-0.09 0.07,-0.09z"/>
   <path class="fil35" d="M29.41 86.94l0.63 0c0.04,0 0.07,0.04 0.07,0.09l0 0.68c0,0.05 -0.03,0.09 -0.07,0.09l-0.63 0c-0.04,0 -0.07,-0.04 -0.07,-0.09l0 -0.68c0,-0.05 0.03,-0.09 0.07,-0.09z"/>
   <path class="fil35" d="M30.44 86.94l0.63 0c0.04,0 0.07,0.04 0.07,0.09l0 0.68c0,0.05 -0.03,0.09 -0.07,0.09l-0.63 0c-0.04,0 -0.07,-0.04 -0.07,-0.09l0 -0.68c0,-0.05 0.03,-0.09 0.07,-0.09z"/>
   <path class="fil35" d="M31.47 86.94l6.59 0c0.04,0 0.07,0.04 0.07,0.09l0 0.68c0,0.05 -0.03,0.09 -0.07,0.09l-6.59 0c-0.04,0 -0.07,-0.04 -0.07,-0.09l0 -0.68c0,-0.05 0.03,-0.09 0.07,-0.09z"/>
   <path class="fil35" d="M30.17 85.76l0.63 0c0.04,0 0.07,0.04 0.07,0.08l0 0.69c0,0.05 -0.03,0.09 -0.07,0.09l-0.63 0c-0.04,0 -0.07,-0.04 -0.07,-0.09l0 -0.69c0,-0.04 0.03,-0.08 0.07,-0.08z"/>
   <path class="fil35" d="M31.2 85.76l0.63 0c0.04,0 0.07,0.04 0.07,0.08l0 0.69c0,0.05 -0.03,0.09 -0.07,0.09l-0.63 0c-0.04,0 -0.07,-0.04 -0.07,-0.09l0 -0.69c0,-0.04 0.03,-0.08 0.07,-0.08z"/>
   <path class="fil35" d="M32.23 85.76l0.63 0c0.04,0 0.07,0.04 0.07,0.08l0 0.69c0,0.05 -0.03,0.09 -0.07,0.09l-0.63 0c-0.04,0 -0.07,-0.04 -0.07,-0.09l0 -0.69c0,-0.04 0.03,-0.08 0.07,-0.08z"/>
   <path class="fil35" d="M33.26 85.76l0.63 0c0.04,0 0.07,0.04 0.07,0.08l0 0.69c0,0.05 -0.03,0.09 -0.07,0.09l-0.63 0c-0.04,0 -0.07,-0.04 -0.07,-0.09l0 -0.69c0,-0.04 0.03,-0.08 0.07,-0.08z"/>
   <path class="fil35" d="M34.29 85.76l0.64 0c0.03,0 0.06,0.04 0.06,0.08l0 0.69c0,0.05 -0.03,0.09 -0.06,0.09l-0.64 0c-0.04,0 -0.07,-0.04 -0.07,-0.09l0 -0.69c0,-0.04 0.03,-0.08 0.07,-0.08z"/>
   <path class="fil35" d="M35.32 85.76l0.64 0c0.03,0 0.07,0.04 0.07,0.08l0 0.69c0,0.05 -0.04,0.09 -0.07,0.09l-0.64 0c-0.04,0 -0.07,-0.04 -0.07,-0.09l0 -0.69c0,-0.04 0.03,-0.08 0.07,-0.08z"/>
   <path class="fil35" d="M36.35 85.76l0.64 0c0.03,0 0.07,0.04 0.07,0.08l0 0.69c0,0.05 -0.04,0.09 -0.07,0.09l-0.64 0c-0.03,0 -0.06,-0.04 -0.06,-0.09l0 -0.69c0,-0.04 0.03,-0.08 0.06,-0.08z"/>
   <path class="fil35" d="M37.38 85.76l0.64 0c0.04,0 0.07,0.04 0.07,0.08l0 0.69c0,0.05 -0.03,0.09 -0.07,0.09l-0.64 0c-0.03,0 -0.06,-0.04 -0.06,-0.09l0 -0.69c0,-0.04 0.03,-0.08 0.06,-0.08z"/>
   <path class="fil35" d="M38.41 85.76l1.19 0c0.03,0 0.06,0.04 0.06,0.08l0 0.69c0,0.05 -0.03,0.09 -0.06,0.09l-1.19 0c-0.03,0 -0.06,-0.04 -0.06,-0.09l0 -0.69c0,-0.04 0.03,-0.08 0.06,-0.08z"/>
   <path class="fil35" d="M39.97 85.75l1.4 0c0.04,0 0.07,0.03 0.07,0.08l0 0.69c0,0.05 -0.03,0.09 -0.07,0.09l-1.4 0c-0.04,0 -0.07,-0.04 -0.07,-0.09l0 -0.69c0,-0.05 0.03,-0.08 0.07,-0.08z"/>
   <path class="fil35" d="M40.1 86.94l0.52 0c0.02,0 0.03,0.01 0.03,0.03l0 0.24c0,0.01 -0.01,0.03 -0.03,0.03l-0.52 0c-0.02,0 -0.03,-0.02 -0.03,-0.03l0 -0.24c0,-0.02 0.01,-0.03 0.03,-0.03z"/>
   <path class="fil35" d="M40.1 87.45l0.52 0c0.02,0 0.03,0.02 0.03,0.04l0 0.23c0,0.02 -0.01,0.03 -0.03,0.03l-0.52 0c-0.02,0 -0.03,-0.01 -0.03,-0.03l0 -0.23c0,-0.02 0.01,-0.04 0.03,-0.04z"/>
   <path class="fil35" d="M39.31 87.45l0.53 0c0.01,0 0.02,0.02 0.02,0.04l0 0.23c0,0.02 -0.01,0.03 -0.02,0.03l-0.53 0c-0.01,0 -0.02,-0.01 -0.02,-0.03l0 -0.23c0,-0.02 0.01,-0.04 0.02,-0.04z"/>
   <path class="fil35" d="M40.88 87.45l0.53 0c0.01,0 0.02,0.02 0.02,0.04l0 0.23c0,0.02 -0.01,0.03 -0.02,0.03l-0.53 0c-0.01,0 -0.03,-0.01 -0.03,-0.03l0 -0.23c0,-0.02 0.02,-0.04 0.03,-0.04z"/>
   <path class="fil35" d="M38.39 86.94l0.64 0c0.03,0 0.06,0.04 0.06,0.09l0 0.68c0,0.05 -0.03,0.09 -0.06,0.09l-0.64 0c-0.04,0 -0.07,-0.04 -0.07,-0.09l0 -0.68c0,-0.05 0.03,-0.09 0.07,-0.09z"/>
   <polygon class="fil25" points="59.42,82.52 69.8,82.52 69.8,82.04 59.42,82.04 "/>
   <path class="fil26" d="M56.51 76.62c0.01,-0.01 0.02,-0.01 0.04,-0.01 -0.02,0 -0.03,0 -0.04,0.01zm-0.07 0.01c0.01,0 0.02,0 0.03,-0.01 -0.01,0.01 -0.02,0.01 -0.03,0.01zm-0.07 0.02c0.01,0 0.02,-0.01 0.03,-0.01 -0.01,0 -0.02,0.01 -0.03,0.01zm-0.06 0.02c0,0 0.01,0 0.02,0 -0.01,0 -0.02,0 -0.02,0zm-0.06 0.03l0.01 -0.01 -0.01 0.01zm-0.06 0.04l0.01 -0.01 -0.01 0.01zm-0.05 0.03l0.01 0 -0.01 0zm0.44 -0.16c0.02,0 0.04,-0.01 0.07,-0.01 -0.03,0 -0.05,0.01 -0.07,0.01zm-0.64 0.42c0,0 -0.01,0.01 -0.01,0.02 0,-0.01 0.01,-0.02 0.01,-0.02zm0.02 -0.05l-0.01 0.01 0.01 -0.01zm-0.04 0.1c0,0.01 0,0.02 0,0.03 0,-0.01 0,-0.02 0,-0.03zm16.4 -0.91l-15.61 0c-0.71,0 -0.93,0.45 -0.79,0.98 0,0 0,-0.01 0,-0.02 0,0.04 0,0.08 0.01,0.11l1.13 4.27c0.17,0.64 0.32,0.67 1.16,0.67l13.05 0c0.68,0 1.01,0 1.15,-0.65l0.88 -4.29c0,-0.01 0,-0.03 0,-0.04l0 0 0.04 -0.36c0.07,-0.53 -0.62,-0.67 -1.02,-0.67z"/>
   <path class="fil27" d="M73.3 77.2l0 0c-0.06,-0.27 -0.39,-0.6 -0.72,-0.6l-15.93 0 0 0c-0.05,0 -0.09,0.01 -0.14,0.02 0,0 0,0 0,0 0,0 0,0 0,0 -0.11,0.01 -0.22,0.05 -0.31,0.11l0 0 0 0c-0.02,0.01 -0.04,0.02 -0.05,0.04l0 0c-0.14,0.1 -0.24,0.23 -0.23,0.38 -0.03,-0.09 -0.04,-0.19 -0.04,-0.28 0,-0.4 0.25,-0.7 0.83,-0.7l15.61 0c0.38,0 1.03,0.13 1.03,0.6 0,0.02 0,0.04 -0.01,0.07l-0.04 0.36z"/>
   <polygon class="fil28" points="57.71,81.86 56.71,76.91 63.06,76.9 59.55,81.86 61.9,81.85 66.4,76.9 68.07,76.89 63.7,81.85 64.17,81.85 69.67,76.89 72.6,76.89 71.74,81.85 "/>
   <path class="fil29" d="M57.49 82.32l14.33 0c0.24,0 0.43,0.2 0.43,0.43l0 7.9c0,0.24 -0.19,0.44 -0.43,0.44l-14.33 0c-0.24,0 -0.43,-0.2 -0.43,-0.44l0 -7.9c0,-0.23 0.19,-0.43 0.43,-0.43z"/>
   <polygon class="fil30" points="62.63,90.54 66.68,90.54 66.68,88.41 62.63,88.41 "/>
   <polygon class="fil31" points="57.81,88.04 71.5,88.04 71.5,83.06 57.81,83.06 "/>
   <path class="fil32" d="M66.11 90.41l-3.01 0c-0.11,0 -0.2,-0.41 -0.2,-0.92 0,-0.5 0.09,-0.91 0.2,-0.91l3.01 0c0.11,0 0.2,0.41 0.2,0.91 0,0.51 -0.09,0.92 -0.2,0.92z"/>
   <polygon class="fil33" points="63.06,76.9 63.06,76.89 66.41,76.89 66.4,76.9 "/>
   <polygon class="fil34" points="59.55,81.86 63.06,76.9 66.4,76.9 61.9,81.85 "/>
   <polygon class="fil33" points="68.07,76.89 68.07,76.89 69.67,76.89 69.67,76.89 "/>
   <polygon class="fil34" points="64.17,81.85 63.7,81.85 68.07,76.89 69.67,76.89 "/>
   <path class="fil35" d="M58.11 83.35l0.63 0c0.04,0 0.07,0.04 0.07,0.09l0 0.69c0,0.05 -0.03,0.09 -0.07,0.09l-0.63 0c-0.04,0 -0.07,-0.04 -0.07,-0.09l0 -0.69c0,-0.05 0.03,-0.09 0.07,-0.09z"/>
   <path class="fil35" d="M59.14 83.35l0.63 0c0.04,0 0.07,0.04 0.07,0.09l0 0.69c0,0.05 -0.03,0.09 -0.07,0.09l-0.63 0c-0.04,0 -0.07,-0.04 -0.07,-0.09l0 -0.69c0,-0.05 0.03,-0.09 0.07,-0.09z"/>
   <path class="fil35" d="M60.17 83.35l0.64 0c0.03,0 0.06,0.04 0.06,0.09l0 0.69c0,0.05 -0.03,0.09 -0.06,0.09l-0.64 0c-0.04,0 -0.07,-0.04 -0.07,-0.09l0 -0.69c0,-0.05 0.03,-0.09 0.07,-0.09z"/>
   <path class="fil35" d="M61.2 83.35l0.64 0c0.04,0 0.06,0.04 0.06,0.09l0 0.69c0,0.05 -0.02,0.09 -0.06,0.09l-0.64 0c-0.03,0 -0.07,-0.04 -0.07,-0.09l0 -0.69c0,-0.05 0.04,-0.09 0.07,-0.09z"/>
   <path class="fil35" d="M62.23 83.35l0.64 0c0.04,0 0.07,0.04 0.07,0.09l0 0.69c0,0.05 -0.03,0.09 -0.07,0.09l-0.64 0c-0.03,0 -0.07,-0.04 -0.07,-0.09l0 -0.69c0,-0.05 0.04,-0.09 0.07,-0.09z"/>
   <path class="fil35" d="M63.27 83.35l0.63 0c0.04,0 0.07,0.04 0.07,0.09l0 0.69c0,0.05 -0.03,0.09 -0.07,0.09l-0.63 0c-0.04,0 -0.07,-0.04 -0.07,-0.09l0 -0.69c0,-0.05 0.03,-0.09 0.07,-0.09z"/>
   <path class="fil35" d="M64.3 83.35l0.63 0c0.04,0 0.07,0.04 0.07,0.09l0 0.69c0,0.05 -0.03,0.09 -0.07,0.09l-0.63 0c-0.04,0 -0.07,-0.04 -0.07,-0.09l0 -0.69c0,-0.05 0.03,-0.09 0.07,-0.09z"/>
   <path class="fil35" d="M65.33 83.35l0.63 0c0.04,0 0.07,0.04 0.07,0.09l0 0.69c0,0.05 -0.03,0.09 -0.07,0.09l-0.63 0c-0.04,0 -0.07,-0.04 -0.07,-0.09l0 -0.69c0,-0.05 0.03,-0.09 0.07,-0.09z"/>
   <path class="fil35" d="M66.36 83.35l0.63 0c0.04,0 0.07,0.04 0.07,0.09l0 0.69c0,0.05 -0.03,0.09 -0.07,0.09l-0.63 0c-0.04,0 -0.07,-0.04 -0.07,-0.09l0 -0.69c0,-0.05 0.03,-0.09 0.07,-0.09z"/>
   <path class="fil35" d="M67.39 83.35l0.63 0c0.04,0 0.07,0.04 0.07,0.09l0 0.69c0,0.05 -0.03,0.09 -0.07,0.09l-0.63 0c-0.04,0 -0.07,-0.04 -0.07,-0.09l0 -0.69c0,-0.05 0.03,-0.09 0.07,-0.09z"/>
   <path class="fil35" d="M68.42 83.35l0.64 0c0.03,0 0.06,0.04 0.06,0.09l0 0.69c0,0.05 -0.03,0.09 -0.06,0.09l-0.64 0c-0.04,0 -0.07,-0.04 -0.07,-0.09l0 -0.69c0,-0.05 0.03,-0.09 0.07,-0.09z"/>
   <path class="fil35" d="M59.66 84.55l0.63 0c0.04,0 0.07,0.04 0.07,0.09l0 0.68c0,0.05 -0.03,0.09 -0.07,0.09l-0.63 0c-0.04,0 -0.07,-0.04 -0.07,-0.09l0 -0.68c0,-0.05 0.03,-0.09 0.07,-0.09z"/>
   <path class="fil35" d="M60.69 84.55l0.63 0c0.04,0 0.07,0.04 0.07,0.09l0 0.68c0,0.05 -0.03,0.09 -0.07,0.09l-0.63 0c-0.04,0 -0.07,-0.04 -0.07,-0.09l0 -0.68c0,-0.05 0.03,-0.09 0.07,-0.09z"/>
   <path class="fil35" d="M61.72 84.55l0.63 0c0.04,0 0.07,0.04 0.07,0.09l0 0.68c0,0.05 -0.03,0.09 -0.07,0.09l-0.63 0c-0.04,0 -0.07,-0.04 -0.07,-0.09l0 -0.68c0,-0.05 0.03,-0.09 0.07,-0.09z"/>
   <path class="fil35" d="M62.75 84.55l0.63 0c0.04,0 0.07,0.04 0.07,0.09l0 0.68c0,0.05 -0.03,0.09 -0.07,0.09l-0.63 0c-0.04,0 -0.07,-0.04 -0.07,-0.09l0 -0.68c0,-0.05 0.03,-0.09 0.07,-0.09z"/>
   <path class="fil35" d="M63.78 84.55l0.64 0c0.03,0 0.06,0.04 0.06,0.09l0 0.68c0,0.05 -0.03,0.09 -0.06,0.09l-0.64 0c-0.04,0 -0.07,-0.04 -0.07,-0.09l0 -0.68c0,-0.05 0.03,-0.09 0.07,-0.09z"/>
   <path class="fil35" d="M64.81 84.55l0.64 0c0.03,0 0.07,0.04 0.07,0.09l0 0.68c0,0.05 -0.04,0.09 -0.07,0.09l-0.64 0c-0.04,0 -0.07,-0.04 -0.07,-0.09l0 -0.68c0,-0.05 0.03,-0.09 0.07,-0.09z"/>
   <path class="fil35" d="M65.84 84.55l0.64 0c0.04,0 0.07,0.04 0.07,0.09l0 0.68c0,0.05 -0.03,0.09 -0.07,0.09l-0.64 0c-0.03,0 -0.06,-0.04 -0.06,-0.09l0 -0.68c0,-0.05 0.03,-0.09 0.06,-0.09z"/>
   <path class="fil35" d="M66.87 84.55l0.64 0c0.04,0 0.07,0.04 0.07,0.09l0 0.68c0,0.05 -0.03,0.09 -0.07,0.09l-0.64 0c-0.03,0 -0.06,-0.04 -0.06,-0.09l0 -0.68c0,-0.05 0.03,-0.09 0.06,-0.09z"/>
   <path class="fil35" d="M67.9 84.55l0.64 0c0.04,0 0.07,0.04 0.07,0.09l0 0.68c0,0.05 -0.03,0.09 -0.07,0.09l-0.64 0c-0.03,0 -0.06,-0.04 -0.06,-0.09l0 -0.68c0,-0.05 0.03,-0.09 0.06,-0.09z"/>
   <path class="fil35" d="M68.94 84.55l0.63 0c0.04,0 0.07,0.04 0.07,0.09l0 0.68c0,0.05 -0.03,0.09 -0.07,0.09l-0.63 0c-0.04,0 -0.07,-0.04 -0.07,-0.09l0 -0.68c0,-0.05 0.03,-0.09 0.07,-0.09z"/>
   <path class="fil35" d="M69.45 83.35l0.64 0c0.03,0 0.06,0.04 0.06,0.09l0 0.69c0,0.05 -0.03,0.09 -0.06,0.09l-0.64 0c-0.04,0 -0.07,-0.04 -0.07,-0.09l0 -0.69c0,-0.05 0.03,-0.09 0.07,-0.09z"/>
   <path class="fil35" d="M70.48 83.35l0.64 0c0.03,0 0.07,0.04 0.07,0.09l0 0.69c0,0.05 -0.04,0.09 -0.07,0.09l-0.64 0c-0.03,0 -0.07,-0.04 -0.07,-0.09l0 -0.69c0,-0.05 0.04,-0.09 0.07,-0.09z"/>
   <path class="fil35" d="M69.98 84.55l1.14 0c0.03,0 0.07,0.04 0.07,0.09l0 0.68c0,0.05 -0.04,0.09 -0.07,0.09l-1.14 0c-0.03,0 -0.06,-0.04 -0.06,-0.09l0 -0.68c0,-0.05 0.03,-0.09 0.06,-0.09z"/>
   <path class="fil35" d="M58.12 84.55l1.17 0c0.04,0 0.07,0.04 0.07,0.09l0 0.68c0,0.05 -0.03,0.09 -0.07,0.09l-1.17 0c-0.04,0 -0.07,-0.04 -0.07,-0.09l0 -0.68c0,-0.05 0.03,-0.09 0.07,-0.09z"/>
   <path class="fil35" d="M58.12 85.75l1.4 0c0.04,0 0.07,0.03 0.07,0.08l0 0.69c0,0.05 -0.03,0.09 -0.07,0.09l-1.4 0c-0.04,0 -0.07,-0.04 -0.07,-0.09l0 -0.69c0,-0.05 0.03,-0.08 0.07,-0.08z"/>
   <path class="fil35" d="M58.12 86.94l0.63 0c0.04,0 0.07,0.04 0.07,0.09l0 0.68c0,0.05 -0.03,0.09 -0.07,0.09l-0.63 0c-0.04,0 -0.07,-0.04 -0.07,-0.09l0 -0.68c0,-0.05 0.03,-0.09 0.07,-0.09z"/>
   <path class="fil35" d="M59.15 86.94l0.63 0c0.04,0 0.07,0.04 0.07,0.09l0 0.68c0,0.05 -0.03,0.09 -0.07,0.09l-0.63 0c-0.04,0 -0.07,-0.04 -0.07,-0.09l0 -0.68c0,-0.05 0.03,-0.09 0.07,-0.09z"/>
   <path class="fil35" d="M60.18 86.94l0.63 0c0.04,0 0.07,0.04 0.07,0.09l0 0.68c0,0.05 -0.03,0.09 -0.07,0.09l-0.63 0c-0.04,0 -0.07,-0.04 -0.07,-0.09l0 -0.68c0,-0.05 0.03,-0.09 0.07,-0.09z"/>
   <path class="fil35" d="M61.21 86.94l6.59 0c0.04,0 0.07,0.04 0.07,0.09l0 0.68c0,0.05 -0.03,0.09 -0.07,0.09l-6.59 0c-0.04,0 -0.07,-0.04 -0.07,-0.09l0 -0.68c0,-0.05 0.03,-0.09 0.07,-0.09z"/>
   <path class="fil35" d="M59.9 85.76l0.64 0c0.03,0 0.07,0.04 0.07,0.08l0 0.69c0,0.05 -0.04,0.09 -0.07,0.09l-0.64 0c-0.03,0 -0.07,-0.04 -0.07,-0.09l0 -0.69c0,-0.04 0.04,-0.08 0.07,-0.08z"/>
   <path class="fil35" d="M60.93 85.76l0.64 0c0.04,0 0.07,0.04 0.07,0.08l0 0.69c0,0.05 -0.03,0.09 -0.07,0.09l-0.64 0c-0.03,0 -0.06,-0.04 -0.06,-0.09l0 -0.69c0,-0.04 0.03,-0.08 0.06,-0.08z"/>
   <path class="fil35" d="M61.96 85.76l0.64 0c0.04,0 0.07,0.04 0.07,0.08l0 0.69c0,0.05 -0.03,0.09 -0.07,0.09l-0.64 0c-0.03,0 -0.06,-0.04 -0.06,-0.09l0 -0.69c0,-0.04 0.03,-0.08 0.06,-0.08z"/>
   <path class="fil35" d="M63 85.76l0.63 0c0.04,0 0.07,0.04 0.07,0.08l0 0.69c0,0.05 -0.03,0.09 -0.07,0.09l-0.63 0c-0.04,0 -0.07,-0.04 -0.07,-0.09l0 -0.69c0,-0.04 0.03,-0.08 0.07,-0.08z"/>
   <path class="fil35" d="M64.03 85.76l0.63 0c0.04,0 0.07,0.04 0.07,0.08l0 0.69c0,0.05 -0.03,0.09 -0.07,0.09l-0.63 0c-0.04,0 -0.07,-0.04 -0.07,-0.09l0 -0.69c0,-0.04 0.03,-0.08 0.07,-0.08z"/>
   <path class="fil35" d="M65.06 85.76l0.63 0c0.04,0 0.07,0.04 0.07,0.08l0 0.69c0,0.05 -0.03,0.09 -0.07,0.09l-0.63 0c-0.04,0 -0.07,-0.04 -0.07,-0.09l0 -0.69c0,-0.04 0.03,-0.08 0.07,-0.08z"/>
   <path class="fil35" d="M66.09 85.76l0.63 0c0.04,0 0.07,0.04 0.07,0.08l0 0.69c0,0.05 -0.03,0.09 -0.07,0.09l-0.63 0c-0.04,0 -0.07,-0.04 -0.07,-0.09l0 -0.69c0,-0.04 0.03,-0.08 0.07,-0.08z"/>
   <path class="fil35" d="M67.12 85.76l0.64 0c0.03,0 0.06,0.04 0.06,0.08l0 0.69c0,0.05 -0.03,0.09 -0.06,0.09l-0.64 0c-0.04,0 -0.07,-0.04 -0.07,-0.09l0 -0.69c0,-0.04 0.03,-0.08 0.07,-0.08z"/>
   <path class="fil35" d="M68.15 85.76l1.18 0c0.04,0 0.07,0.04 0.07,0.08l0 0.69c0,0.05 -0.03,0.09 -0.07,0.09l-1.18 0c-0.03,0 -0.07,-0.04 -0.07,-0.09l0 -0.69c0,-0.04 0.04,-0.08 0.07,-0.08z"/>
   <path class="fil35" d="M69.71 85.75l1.4 0c0.04,0 0.07,0.03 0.07,0.08l0 0.69c0,0.05 -0.03,0.09 -0.07,0.09l-1.4 0c-0.04,0 -0.07,-0.04 -0.07,-0.09l0 -0.69c0,-0.05 0.03,-0.08 0.07,-0.08z"/>
   <path class="fil35" d="M69.83 86.94l0.53 0c0.01,0 0.03,0.01 0.03,0.03l0 0.24c0,0.01 -0.02,0.03 -0.03,0.03l-0.53 0c-0.01,0 -0.02,-0.02 -0.02,-0.03l0 -0.24c0,-0.02 0.01,-0.03 0.02,-0.03z"/>
   <path class="fil35" d="M69.83 87.45l0.53 0c0.01,0 0.03,0.02 0.03,0.04l0 0.23c0,0.02 -0.02,0.03 -0.03,0.03l-0.53 0c-0.01,0 -0.02,-0.01 -0.02,-0.03l0 -0.23c0,-0.02 0.01,-0.04 0.02,-0.04z"/>
   <path class="fil35" d="M69.05 87.45l0.53 0c0.01,0 0.02,0.02 0.02,0.04l0 0.23c0,0.02 -0.01,0.03 -0.02,0.03l-0.53 0c-0.01,0 -0.03,-0.01 -0.03,-0.03l0 -0.23c0,-0.02 0.02,-0.04 0.03,-0.04z"/>
   <path class="fil35" d="M70.62 87.45l0.52 0c0.02,0 0.03,0.02 0.03,0.04l0 0.23c0,0.02 -0.01,0.03 -0.03,0.03l-0.52 0c-0.02,0 -0.03,-0.01 -0.03,-0.03l0 -0.23c0,-0.02 0.01,-0.04 0.03,-0.04z"/>
   <path class="fil35" d="M68.13 86.94l0.63 0c0.04,0 0.07,0.04 0.07,0.09l0 0.68c0,0.05 -0.03,0.09 -0.07,0.09l-0.63 0c-0.04,0 -0.07,-0.04 -0.07,-0.09l0 -0.68c0,-0.05 0.03,-0.09 0.07,-0.09z"/>
   <polygon class="fil25" points="87.93,82.52 98.31,82.52 98.31,82.04 87.93,82.04 "/>
   <path class="fil26" d="M85.02 76.62c0.01,-0.01 0.03,-0.01 0.04,-0.01 -0.01,0 -0.03,0 -0.04,0.01zm-0.07 0.01c0.01,0 0.02,0 0.03,-0.01 -0.01,0.01 -0.02,0.01 -0.03,0.01zm-0.07 0.02c0.01,0 0.02,-0.01 0.03,-0.01 -0.01,0 -0.02,0.01 -0.03,0.01zm-0.06 0.02c0.01,0 0.01,0 0.02,0 -0.01,0 -0.01,0 -0.02,0zm-0.06 0.03l0.02 -0.01 -0.02 0.01zm-0.06 0.04l0.01 -0.01 -0.01 0.01zm-0.05 0.03l0.01 0 -0.01 0zm0.44 -0.16c0.02,0 0.04,-0.01 0.07,-0.01 -0.03,0 -0.05,0.01 -0.07,0.01zm-0.64 0.42c0,0 -0.01,0.01 -0.01,0.02 0.01,-0.01 0.01,-0.02 0.01,-0.02zm0.02 -0.05l-0.01 0.01 0.01 -0.01zm-0.03 0.1c-0.01,0.01 -0.01,0.02 -0.01,0.03 0,-0.01 0,-0.02 0.01,-0.03zm16.39 -0.91l-15.6 0c-0.72,0 -0.94,0.45 -0.8,0.98 0,0 0,-0.01 0,-0.02 0,0.04 0,0.08 0.01,0.11l1.13 4.27c0.17,0.64 0.32,0.67 1.17,0.67l13.05 0c0.67,0 1,0 1.14,-0.65l0.88 -4.29c0,-0.01 0,-0.03 0,-0.04l0 0 0.05 -0.36c0.06,-0.53 -0.63,-0.67 -1.03,-0.67z"/>
   <path class="fil27" d="M101.81 77.2l0 0c-0.05,-0.27 -0.39,-0.6 -0.72,-0.6l-15.93 0 0 0c-0.05,0 -0.09,0.01 -0.14,0.02 0,0 0,0 0,0 0,0 0,0 0,0 -0.02,0 -0.05,0.01 -0.07,0.01l0 0 0 0c-0.11,0.03 -0.21,0.08 -0.29,0.14l0 0 0 0c-0.14,0.1 -0.23,0.23 -0.23,0.38 -0.03,-0.09 -0.04,-0.19 -0.04,-0.28 0,-0.4 0.25,-0.7 0.84,-0.7l15.6 0c0.38,0 1.03,0.13 1.03,0.6 0,0.02 0,0.04 0,0.07l-0.05 0.36z"/>
   <polygon class="fil28" points="86.22,81.86 85.22,76.91 91.57,76.9 88.07,81.86 90.41,81.85 94.92,76.9 96.58,76.89 92.22,81.85 92.68,81.85 98.18,76.89 101.11,76.89 100.25,81.85 "/>
   <path class="fil29" d="M86 82.32l14.33 0c0.24,0 0.43,0.2 0.43,0.43l0 7.9c0,0.24 -0.19,0.44 -0.43,0.44l-14.33 0c-0.23,0 -0.43,-0.2 -0.43,-0.44l0 -7.9c0,-0.23 0.2,-0.43 0.43,-0.43z"/>
   <polygon class="fil36" points="91.14,90.54 95.2,90.54 95.2,88.41 91.14,88.41 "/>
   <polygon class="fil31" points="86.32,88.04 100.01,88.04 100.01,83.06 86.32,83.06 "/>
   <path class="fil32" d="M94.62 90.41l-3.01 0c-0.11,0 -0.19,-0.41 -0.19,-0.92 0,-0.5 0.08,-0.91 0.19,-0.91l3.01 0c0.11,0 0.2,0.41 0.2,0.91 0,0.51 -0.09,0.92 -0.2,0.92z"/>
   <polygon class="fil33" points="91.57,76.9 91.57,76.89 94.92,76.89 94.92,76.9 "/>
   <polygon class="fil34" points="88.07,81.86 91.57,76.9 94.92,76.9 90.41,81.85 "/>
   <polygon class="fil33" points="96.58,76.89 96.58,76.89 98.18,76.89 98.18,76.89 "/>
   <polygon class="fil34" points="92.68,81.85 92.22,81.85 96.58,76.89 98.18,76.89 "/>
   <path class="fil35" d="M86.62 83.35l0.64 0c0.03,0 0.06,0.04 0.06,0.09l0 0.69c0,0.05 -0.03,0.09 -0.06,0.09l-0.64 0c-0.04,0 -0.07,-0.04 -0.07,-0.09l0 -0.69c0,-0.05 0.03,-0.09 0.07,-0.09z"/>
   <path class="fil35" d="M87.65 83.35l0.64 0c0.03,0 0.07,0.04 0.07,0.09l0 0.69c0,0.05 -0.04,0.09 -0.07,0.09l-0.64 0c-0.04,0 -0.07,-0.04 -0.07,-0.09l0 -0.69c0,-0.05 0.03,-0.09 0.07,-0.09z"/>
   <path class="fil35" d="M88.68 83.35l0.64 0c0.04,0 0.07,0.04 0.07,0.09l0 0.69c0,0.05 -0.03,0.09 -0.07,0.09l-0.64 0c-0.03,0 -0.07,-0.04 -0.07,-0.09l0 -0.69c0,-0.05 0.04,-0.09 0.07,-0.09z"/>
   <path class="fil35" d="M89.71 83.35l0.64 0c0.04,0 0.07,0.04 0.07,0.09l0 0.69c0,0.05 -0.03,0.09 -0.07,0.09l-0.64 0c-0.03,0 -0.06,-0.04 -0.06,-0.09l0 -0.69c0,-0.05 0.03,-0.09 0.06,-0.09z"/>
   <path class="fil35" d="M90.75 83.35l0.63 0c0.04,0 0.07,0.04 0.07,0.09l0 0.69c0,0.05 -0.03,0.09 -0.07,0.09l-0.63 0c-0.04,0 -0.07,-0.04 -0.07,-0.09l0 -0.69c0,-0.05 0.03,-0.09 0.07,-0.09z"/>
   <path class="fil35" d="M91.78 83.35l0.63 0c0.04,0 0.07,0.04 0.07,0.09l0 0.69c0,0.05 -0.03,0.09 -0.07,0.09l-0.63 0c-0.04,0 -0.07,-0.04 -0.07,-0.09l0 -0.69c0,-0.05 0.03,-0.09 0.07,-0.09z"/>
   <path class="fil35" d="M92.81 83.35l0.63 0c0.04,0 0.07,0.04 0.07,0.09l0 0.69c0,0.05 -0.03,0.09 -0.07,0.09l-0.63 0c-0.04,0 -0.07,-0.04 -0.07,-0.09l0 -0.69c0,-0.05 0.03,-0.09 0.07,-0.09z"/>
   <path class="fil35" d="M93.84 83.35l0.63 0c0.04,0 0.07,0.04 0.07,0.09l0 0.69c0,0.05 -0.03,0.09 -0.07,0.09l-0.63 0c-0.04,0 -0.07,-0.04 -0.07,-0.09l0 -0.69c0,-0.05 0.03,-0.09 0.07,-0.09z"/>
   <path class="fil35" d="M94.87 83.35l0.63 0c0.04,0 0.07,0.04 0.07,0.09l0 0.69c0,0.05 -0.03,0.09 -0.07,0.09l-0.63 0c-0.04,0 -0.07,-0.04 -0.07,-0.09l0 -0.69c0,-0.05 0.03,-0.09 0.07,-0.09z"/>
   <path class="fil35" d="M95.9 83.35l0.64 0c0.03,0 0.06,0.04 0.06,0.09l0 0.69c0,0.05 -0.03,0.09 -0.06,0.09l-0.64 0c-0.04,0 -0.07,-0.04 -0.07,-0.09l0 -0.69c0,-0.05 0.03,-0.09 0.07,-0.09z"/>
   <path class="fil35" d="M96.93 83.35l0.64 0c0.03,0 0.07,0.04 0.07,0.09l0 0.69c0,0.05 -0.04,0.09 -0.07,0.09l-0.64 0c-0.04,0 -0.07,-0.04 -0.07,-0.09l0 -0.69c0,-0.05 0.03,-0.09 0.07,-0.09z"/>
   <path class="fil35" d="M88.17 84.55l0.63 0c0.04,0 0.07,0.04 0.07,0.09l0 0.68c0,0.05 -0.03,0.09 -0.07,0.09l-0.63 0c-0.04,0 -0.07,-0.04 -0.07,-0.09l0 -0.68c0,-0.05 0.03,-0.09 0.07,-0.09z"/>
   <path class="fil35" d="M89.2 84.55l0.63 0c0.04,0 0.07,0.04 0.07,0.09l0 0.68c0,0.05 -0.03,0.09 -0.07,0.09l-0.63 0c-0.04,0 -0.07,-0.04 -0.07,-0.09l0 -0.68c0,-0.05 0.03,-0.09 0.07,-0.09z"/>
   <path class="fil35" d="M90.23 84.55l0.64 0c0.03,0 0.06,0.04 0.06,0.09l0 0.68c0,0.05 -0.03,0.09 -0.06,0.09l-0.64 0c-0.04,0 -0.07,-0.04 -0.07,-0.09l0 -0.68c0,-0.05 0.03,-0.09 0.07,-0.09z"/>
   <path class="fil35" d="M91.26 84.55l0.64 0c0.03,0 0.07,0.04 0.07,0.09l0 0.68c0,0.05 -0.04,0.09 -0.07,0.09l-0.64 0c-0.04,0 -0.07,-0.04 -0.07,-0.09l0 -0.68c0,-0.05 0.03,-0.09 0.07,-0.09z"/>
   <path class="fil35" d="M92.29 84.55l0.64 0c0.04,0 0.07,0.04 0.07,0.09l0 0.68c0,0.05 -0.03,0.09 -0.07,0.09l-0.64 0c-0.03,0 -0.06,-0.04 -0.06,-0.09l0 -0.68c0,-0.05 0.03,-0.09 0.06,-0.09z"/>
   <path class="fil35" d="M93.32 84.55l0.64 0c0.04,0 0.07,0.04 0.07,0.09l0 0.68c0,0.05 -0.03,0.09 -0.07,0.09l-0.64 0c-0.03,0 -0.06,-0.04 -0.06,-0.09l0 -0.68c0,-0.05 0.03,-0.09 0.06,-0.09z"/>
   <path class="fil35" d="M94.36 84.55l0.63 0c0.04,0 0.07,0.04 0.07,0.09l0 0.68c0,0.05 -0.03,0.09 -0.07,0.09l-0.63 0c-0.04,0 -0.07,-0.04 -0.07,-0.09l0 -0.68c0,-0.05 0.03,-0.09 0.07,-0.09z"/>
   <path class="fil35" d="M95.39 84.55l0.63 0c0.04,0 0.07,0.04 0.07,0.09l0 0.68c0,0.05 -0.03,0.09 -0.07,0.09l-0.63 0c-0.04,0 -0.07,-0.04 -0.07,-0.09l0 -0.68c0,-0.05 0.03,-0.09 0.07,-0.09z"/>
   <path class="fil35" d="M96.42 84.55l0.63 0c0.04,0 0.07,0.04 0.07,0.09l0 0.68c0,0.05 -0.03,0.09 -0.07,0.09l-0.63 0c-0.04,0 -0.07,-0.04 -0.07,-0.09l0 -0.68c0,-0.05 0.03,-0.09 0.07,-0.09z"/>
   <path class="fil35" d="M97.45 84.55l0.63 0c0.04,0 0.07,0.04 0.07,0.09l0 0.68c0,0.05 -0.03,0.09 -0.07,0.09l-0.63 0c-0.04,0 -0.07,-0.04 -0.07,-0.09l0 -0.68c0,-0.05 0.03,-0.09 0.07,-0.09z"/>
   <path class="fil35" d="M97.96 83.35l0.64 0c0.04,0 0.07,0.04 0.07,0.09l0 0.69c0,0.05 -0.03,0.09 -0.07,0.09l-0.64 0c-0.03,0 -0.06,-0.04 -0.06,-0.09l0 -0.69c0,-0.05 0.03,-0.09 0.06,-0.09z"/>
   <path class="fil35" d="M98.99 83.35l0.64 0c0.04,0 0.07,0.04 0.07,0.09l0 0.69c0,0.05 -0.03,0.09 -0.07,0.09l-0.64 0c-0.03,0 -0.06,-0.04 -0.06,-0.09l0 -0.69c0,-0.05 0.03,-0.09 0.06,-0.09z"/>
   <path class="fil35" d="M98.5 84.55l1.13 0c0.04,0 0.07,0.04 0.07,0.09l0 0.68c0,0.05 -0.03,0.09 -0.07,0.09l-1.13 0c-0.04,0 -0.07,-0.04 -0.07,-0.09l0 -0.68c0,-0.05 0.03,-0.09 0.07,-0.09z"/>
   <path class="fil35" d="M86.63 84.55l1.18 0c0.03,0 0.06,0.04 0.06,0.09l0 0.68c0,0.05 -0.03,0.09 -0.06,0.09l-1.18 0c-0.04,0 -0.07,-0.04 -0.07,-0.09l0 -0.68c0,-0.05 0.03,-0.09 0.07,-0.09z"/>
   <path class="fil35" d="M86.63 85.75l1.4 0c0.04,0 0.07,0.03 0.07,0.08l0 0.69c0,0.05 -0.03,0.09 -0.07,0.09l-1.4 0c-0.04,0 -0.07,-0.04 -0.07,-0.09l0 -0.69c0,-0.05 0.03,-0.08 0.07,-0.08z"/>
   <path class="fil35" d="M86.63 86.94l0.63 0c0.04,0 0.07,0.04 0.07,0.09l0 0.68c0,0.05 -0.03,0.09 -0.07,0.09l-0.63 0c-0.04,0 -0.07,-0.04 -0.07,-0.09l0 -0.68c0,-0.05 0.03,-0.09 0.07,-0.09z"/>
   <path class="fil35" d="M87.66 86.94l0.63 0c0.04,0 0.07,0.04 0.07,0.09l0 0.68c0,0.05 -0.03,0.09 -0.07,0.09l-0.63 0c-0.04,0 -0.07,-0.04 -0.07,-0.09l0 -0.68c0,-0.05 0.03,-0.09 0.07,-0.09z"/>
   <path class="fil35" d="M88.69 86.94l0.63 0c0.04,0 0.07,0.04 0.07,0.09l0 0.68c0,0.05 -0.03,0.09 -0.07,0.09l-0.63 0c-0.04,0 -0.07,-0.04 -0.07,-0.09l0 -0.68c0,-0.05 0.03,-0.09 0.07,-0.09z"/>
   <path class="fil35" d="M89.72 86.94l6.59 0c0.04,0 0.07,0.04 0.07,0.09l0 0.68c0,0.05 -0.03,0.09 -0.07,0.09l-6.59 0c-0.04,0 -0.07,-0.04 -0.07,-0.09l0 -0.68c0,-0.05 0.03,-0.09 0.07,-0.09z"/>
   <path class="fil35" d="M88.41 85.76l0.64 0c0.04,0 0.07,0.04 0.07,0.08l0 0.69c0,0.05 -0.03,0.09 -0.07,0.09l-0.64 0c-0.03,0 -0.06,-0.04 -0.06,-0.09l0 -0.69c0,-0.04 0.03,-0.08 0.06,-0.08z"/>
   <path class="fil35" d="M89.45 85.76l0.63 0c0.04,0 0.07,0.04 0.07,0.08l0 0.69c0,0.05 -0.03,0.09 -0.07,0.09l-0.63 0c-0.04,0 -0.07,-0.04 -0.07,-0.09l0 -0.69c0,-0.04 0.03,-0.08 0.07,-0.08z"/>
   <path class="fil35" d="M90.48 85.76l0.63 0c0.04,0 0.07,0.04 0.07,0.08l0 0.69c0,0.05 -0.03,0.09 -0.07,0.09l-0.63 0c-0.04,0 -0.07,-0.04 -0.07,-0.09l0 -0.69c0,-0.04 0.03,-0.08 0.07,-0.08z"/>
   <path class="fil35" d="M91.51 85.76l0.63 0c0.04,0 0.07,0.04 0.07,0.08l0 0.69c0,0.05 -0.03,0.09 -0.07,0.09l-0.63 0c-0.04,0 -0.07,-0.04 -0.07,-0.09l0 -0.69c0,-0.04 0.03,-0.08 0.07,-0.08z"/>
   <path class="fil35" d="M92.54 85.76l0.63 0c0.04,0 0.07,0.04 0.07,0.08l0 0.69c0,0.05 -0.03,0.09 -0.07,0.09l-0.63 0c-0.04,0 -0.07,-0.04 -0.07,-0.09l0 -0.69c0,-0.04 0.03,-0.08 0.07,-0.08z"/>
   <path class="fil35" d="M93.57 85.76l0.64 0c0.03,0 0.06,0.04 0.06,0.08l0 0.69c0,0.05 -0.03,0.09 -0.06,0.09l-0.64 0c-0.04,0 -0.07,-0.04 -0.07,-0.09l0 -0.69c0,-0.04 0.03,-0.08 0.07,-0.08z"/>
   <path class="fil35" d="M94.6 85.76l0.64 0c0.03,0 0.07,0.04 0.07,0.08l0 0.69c0,0.05 -0.04,0.09 -0.07,0.09l-0.64 0c-0.04,0 -0.07,-0.04 -0.07,-0.09l0 -0.69c0,-0.04 0.03,-0.08 0.07,-0.08z"/>
   <path class="fil35" d="M95.63 85.76l0.64 0c0.04,0 0.07,0.04 0.07,0.08l0 0.69c0,0.05 -0.03,0.09 -0.07,0.09l-0.64 0c-0.03,0 -0.07,-0.04 -0.07,-0.09l0 -0.69c0,-0.04 0.04,-0.08 0.07,-0.08z"/>
   <path class="fil35" d="M96.66 85.76l1.18 0c0.04,0 0.07,0.04 0.07,0.08l0 0.69c0,0.05 -0.03,0.09 -0.07,0.09l-1.18 0c-0.03,0 -0.06,-0.04 -0.06,-0.09l0 -0.69c0,-0.04 0.03,-0.08 0.06,-0.08z"/>
   <path class="fil35" d="M98.22 85.75l1.4 0c0.04,0 0.07,0.03 0.07,0.08l0 0.69c0,0.05 -0.03,0.09 -0.07,0.09l-1.4 0c-0.04,0 -0.07,-0.04 -0.07,-0.09l0 -0.69c0,-0.05 0.03,-0.08 0.07,-0.08z"/>
   <path class="fil35" d="M98.34 86.94l0.53 0c0.02,0 0.03,0.01 0.03,0.03l0 0.24c0,0.01 -0.01,0.03 -0.03,0.03l-0.53 0c-0.01,0 -0.02,-0.02 -0.02,-0.03l0 -0.24c0,-0.02 0.01,-0.03 0.02,-0.03z"/>
   <path class="fil35" d="M98.34 87.45l0.53 0c0.02,0 0.03,0.02 0.03,0.04l0 0.23c0,0.02 -0.01,0.03 -0.03,0.03l-0.53 0c-0.01,0 -0.02,-0.01 -0.02,-0.03l0 -0.23c0,-0.02 0.01,-0.04 0.02,-0.04z"/>
   <path class="fil35" d="M97.56 87.45l0.53 0c0.01,0 0.02,0.02 0.02,0.04l0 0.23c0,0.02 -0.01,0.03 -0.02,0.03l-0.53 0c-0.01,0 -0.02,-0.01 -0.02,-0.03l0 -0.23c0,-0.02 0.01,-0.04 0.02,-0.04z"/>
   <path class="fil35" d="M99.13 87.45l0.53 0c0.01,0 0.02,0.02 0.02,0.04l0 0.23c0,0.02 -0.01,0.03 -0.02,0.03l-0.53 0c-0.02,0 -0.03,-0.01 -0.03,-0.03l0 -0.23c0,-0.02 0.01,-0.04 0.03,-0.04z"/>
   <path class="fil35" d="M96.64 86.94l0.63 0c0.04,0 0.07,0.04 0.07,0.09l0 0.68c0,0.05 -0.03,0.09 -0.07,0.09l-0.63 0c-0.04,0 -0.07,-0.04 -0.07,-0.09l0 -0.68c0,-0.05 0.03,-0.09 0.07,-0.09z"/>
  </g>
 </g>
</svg>
